<svg xmlns="http://www.w3.org/2000/svg" viewBox="0 0 3061.42 3061.42"><defs><style>.cls-1{isolation:isolate;}.cls-2{fill:#505250;}.cls-3{fill:#231f20;}.cls-4{fill:#2a2b2a;}.cls-5{fill:#1d1d1b;}.cls-6{fill:#72bf44;}.cls-7{fill:#039447;}.cls-8{fill:#828282;}.cls-20,.cls-9{fill:#191c17;}.cls-15,.cls-17,.cls-21,.cls-26,.cls-9{mix-blend-mode:multiply;}.cls-10{fill:#6f706f;}.cls-11{fill:#050606;}.cls-12,.cls-24,.cls-26{fill:#1c75bc;}.cls-13{opacity:0;}.cls-14{fill:#878787;}.cls-15{fill:#1c1e1b;}.cls-15,.cls-22,.cls-24,.cls-25,.cls-26{opacity:0.5;}.cls-16,.cls-17{fill:#757576;}.cls-18{fill:#01ae4d;}.cls-19{fill:#0b0b0b;}.cls-21{fill:#636464;}.cls-22{fill:#3f443b;}.cls-22,.cls-24,.cls-25{mix-blend-mode:color-dodge;}.cls-23{fill:#434139;}.cls-25{fill:#27aae1;}.cls-27{fill:#fff;}</style></defs><g class="cls-1"><g id="Layer_1" data-name="Layer 1"><path class="cls-2" d="M2014,2544.14a98.86,98.86,0,1,1-98.85-98.85A98.85,98.85,0,0,1,2014,2544.14Z"/><path class="cls-3" d="M1915.16,2646A101.88,101.88,0,1,1,2017,2544.14,102,102,0,0,1,1915.16,2646Zm0-197.7a95.83,95.83,0,1,0,95.82,95.83A95.94,95.94,0,0,0,1915.16,2448.31Z"/><path class="cls-4" d="M1975.92,2544.14a60.76,60.76,0,1,1-60.76-60.77A60.76,60.76,0,0,1,1975.92,2544.14Z"/><path class="cls-5" d="M1945.29,2548a30.13,30.13,0,1,1-30.13-30.12A30.14,30.14,0,0,1,1945.29,2548Z"/><path class="cls-6" d="M1892,2400.48l4.63,149.83s-4.63,18.53,18.54,20.07c0,0,15.44,3.1,24.71-17l58.69-143.66Z"/><path class="cls-7" d="M1917.45,2573.58h0a15.43,15.43,0,0,1-2.89-.23c-8.16-.51-14.34-3.32-18-8.29-4.39-6-3.39-13.14-3-15L1889,2400.57a3,3,0,0,1,3.28-3.1l106.58,9.26a3,3,0,0,1,2.54,4.16l-58.68,143.65C1934.74,2571.74,1922.39,2573.58,1917.45,2573.58Zm-22.33-169.78,4.52,146.42a3.22,3.22,0,0,1-.08.82c0,.05-1.37,6,2,10.49,2.52,3.43,7.17,5.38,13.83,5.83,2.79.39,14.28,1,21.76-15.23l57.09-139.73Z"/><path class="cls-8" d="M1892,2400.61l4.64,149.83s-4.64,18.53,18.54,20.07c0,0,15.44,3.1,24.71-17l58.69-143.66Z"/><path class="cls-8" d="M1917.47,2573.71h0a15.3,15.3,0,0,1-2.89-.23c-8.16-.52-14.34-3.32-18-8.3-4.39-6-3.39-13.13-3-15L1889,2400.7a3,3,0,0,1,3.29-3.11l106.57,9.26a3,3,0,0,1,2.55,4.17l-58.69,143.65C1934.76,2571.87,1922.41,2573.71,1917.47,2573.71Zm-22.33-169.79,4.52,146.42a3.29,3.29,0,0,1-.08.83s-1.38,5.95,2,10.49c2.53,3.43,7.18,5.38,13.84,5.83,2.79.39,14.28,1,21.76-15.23l57.08-139.73Z"/><polygon class="cls-9" points="1977.8 2460.59 1998.56 2409.74 1891.99 2400.48 1893.84 2460.59 1977.8 2460.59"/><polygon class="cls-10" points="1867.27 2363.4 1881.17 2415.93 2014.01 2415.93 2014.01 2369.59 1867.27 2363.4"/><path class="cls-10" d="M2014,2419H1881.18a3.05,3.05,0,0,1-2.94-2.25l-13.9-52.53a3,3,0,0,1,.57-2.67,2.83,2.83,0,0,1,2.48-1.13l146.74,6.18a3,3,0,0,1,2.9,3v46.34A3,3,0,0,1,2014,2419Zm-130.51-6.06H2011v-40.4l-139.73-5.9Z"/><path class="cls-11" d="M1926,2545.92a11.59,11.59,0,1,1-11.59-11.57A11.59,11.59,0,0,1,1926,2545.92Z"/><path class="cls-12" d="M1771.49,1171.77,2110.82,1214l-71.72-164.2s-19.24-33.25-64.71-33.25H973.87c-45.47,0-64.72,33.25-64.72,33.25l-71.72,167.7,339.35-45.74V1174l297.35-1.11,297.36,1.11Z"/><path class="cls-12" d="M837.43,1220.54a3,3,0,0,1-2.78-4.22l71.71-167.7c1-1.75,20.84-35.08,67.51-35.08H1974.39c46.68,0,66.51,33.34,67.34,34.76l71.55,163.8a3,3,0,0,1,.68,1.91,3,3,0,0,1-3,3h-.11a2.42,2.42,0,0,1-.38,0l-336.16-41.84a3.14,3.14,0,0,1-.66,1,3,3,0,0,1-2.13.88h0l-297.36-1.11L1176.79,1177h0a3,3,0,0,1-2.13-.88,3,3,0,0,1-.65-1l-336.17,45.32A2.5,2.5,0,0,1,837.43,1220.54Zm136.44-200.95c-43.23,0-61.91,31.42-62.1,31.74L842.31,1213.8l334.07-45a3,3,0,0,1,2.39.72,3.07,3.07,0,0,1,.93,1.47l294.42-1.1,294.44,1.1a3.17,3.17,0,0,1,.92-1.47,3,3,0,0,1,2.38-.73l334,41.59L2036.33,1051s-18.86-31.43-61.94-31.43Z"/><g class="cls-13"><path class="cls-12" d="M1766.91,1215.62l339.33-1.26-71.71-120.7s-19.24-33.23-64.72-33.23H969.29c-45.47,0-64.71,33.23-64.71,33.23l-71.72,120.7,339.34,1.26v2.23l297.36-1.11,297.35,1.11Z"/><path class="cls-12" d="M1766.91,1220.88h0l-297.35-1.11-297.33,1.11h0a3,3,0,0,1-2.14-.88,3.21,3.21,0,0,1-.8-1.36l-336.43-1.26a3,3,0,0,1-2.61-1.54,3,3,0,0,1,0-3L902,1092.11c.81-1.39,20.65-34.71,67.32-34.71H1969.81c46.68,0,66.52,33.33,67.34,34.74l71.69,120.67a3,3,0,0,1-2.58,4.57l-336.42,1.26a3.19,3.19,0,0,1-.79,1.36A3.06,3.06,0,0,1,1766.91,1220.88Zm-297.36-7.16,294.44,1.09a3,3,0,0,1,2.91-2.22l334-1.25-69-116.13c-.2-.34-19-31.75-62.12-31.75H969.29c-43.22,0-61.91,31.4-62.09,31.72l-69,116.16,334.05,1.25a3,3,0,0,1,2.9,2.22Z"/></g><path class="cls-14" d="M1964.36,1187.63l-42.1-70.84s-15.41-26.63-51.86-26.63H1068.71c-36.45,0-51.87,26.63-51.87,26.63l-42.09,70.84Z"/><path class="cls-14" d="M1964.36,1190.65H974.75a3,3,0,0,1-2.63-1.53,3,3,0,0,1,0-3l42.09-70.84c.64-1.11,16.71-28.1,54.47-28.1H1870.4c37.77,0,53.81,27,54.48,28.14l42.08,70.8a3,3,0,0,1-2.6,4.57Zm-984.29-6.05h979l-39.37-66.26c-.61-1-15.1-25.15-49.26-25.15H1068.71c-34.16,0-48.64,24.1-49.25,25.12Z"/><polygon class="cls-15" points="992.75 1157.34 974.75 1187.63 1964.36 1187.63 1946.36 1157.34 992.75 1157.34"/><rect class="cls-16" x="645.78" y="1425.86" width="142.1" height="71.06"/><path class="cls-16" d="M787.88,1499.94H645.78a3,3,0,0,1-3-3v-71.05a3,3,0,0,1,3-3h142.1a3,3,0,0,1,3,3v71.05A3,3,0,0,1,787.88,1499.94Zm-139.07-6.06H784.86v-65H648.81Z"/><polygon class="cls-17" points="787.88 1496.91 713.74 1496.91 703.44 1425.86 787.88 1425.86 787.88 1496.91"/><rect class="cls-16" x="2153.29" y="1425.86" width="142.1" height="71.06"/><path class="cls-16" d="M2295.39,1499.94h-142.1a3,3,0,0,1-3-3v-71.05a3,3,0,0,1,3-3h142.1a3,3,0,0,1,3,3v71.05A3,3,0,0,1,2295.39,1499.94Zm-139.07-6.06h136v-65h-136Z"/><polygon class="cls-17" points="2153.29 1496.91 2227.42 1496.91 2237.72 1425.86 2153.29 1425.86 2153.29 1496.91"/><path class="cls-6" d="M1470.6,1276.25v-1.77l-45.74.94-52.09-.94v2l-652.87,13.44s95.77,966.9,98.87,976.16,0,95.77,108.11,111.21h1094.6c108.12-15.44,105-101.94,108.12-111.21s98.85-976.16,98.85-976.16Z"/><path class="cls-18" d="M2021.49,2380.35H926.89c-98.07-14-107.13-84.45-110.09-107.61a49.51,49.51,0,0,0-.9-5.69c-3.12-9.3-89.19-877.82-99-976.82a3,3,0,0,1,.74-2.31,3,3,0,0,1,2.2-1l650-13.37a2.92,2.92,0,0,1,.74-1.21,3.05,3.05,0,0,1,2.18-.88l52.1.94,45.62-.94a2.81,2.81,0,0,1,2.18.87,3,3,0,0,1,.66,1l755.14,13.64a3,3,0,0,1,3,3.32c-9.81,99-95.88,967.52-99,976.82a49.8,49.8,0,0,0-.9,5.7c-3,23.16-12,93.61-109.67,107.56A3,3,0,0,1,2021.49,2380.35ZM723.25,1292.9c33,332.94,95.54,960.16,98.43,972.38a40.55,40.55,0,0,1,1.12,6.69c2.83,22,11.43,89.05,104.52,102.34l1093.95,0c92.88-13.37,101.47-80.31,104.3-102.31a45.19,45.19,0,0,1,1.16-6.84c2.85-12.06,65.41-639.27,98.39-972.23l-754.58-13.63a3.06,3.06,0,0,1-2.68-1.71l-42.93.88-49.31-.89a3,3,0,0,1-2.77,2Z"/><path class="cls-19" d="M1470.6,1276.29v-1.77l-45.74,1-52.09-1,0,2L719.92,1290s95.76,966.9,98.86,976.16,0,95.77,108.12,111.22H2021.49c108.12-15.45,105-102,108.12-111.22S2228.46,1290,2228.46,1290Z"/><path class="cls-19" d="M2021.49,2380.35H926.89c-98.07-14-107.13-84.45-110.09-107.61a49.51,49.51,0,0,0-.9-5.69c-3.12-9.3-89.19-877.82-99-976.82a3,3,0,0,1,.74-2.31,3,3,0,0,1,2.2-1l650-13.37a2.92,2.92,0,0,1,.74-1.21,3.05,3.05,0,0,1,2.18-.88l52.1.94,45.62-.94a2.81,2.81,0,0,1,2.18.87,3,3,0,0,1,.66,1l755.14,13.64a3,3,0,0,1,3,3.32c-9.81,99-95.88,967.52-99,976.82a49.8,49.8,0,0,0-.9,5.7c-3,23.16-12,93.61-109.67,107.56A3,3,0,0,1,2021.49,2380.35ZM723.25,1292.9c33,332.94,95.54,960.16,98.43,972.38a40.55,40.55,0,0,1,1.12,6.69c2.83,22,11.43,89.05,104.52,102.34l1093.95,0c92.88-13.37,101.47-80.31,104.3-102.31a45.19,45.19,0,0,1,1.16-6.84c2.85-12.06,65.41-639.27,98.39-972.23l-754.58-13.63a3.06,3.06,0,0,1-2.68-1.71l-42.93.88-49.31-.89a3,3,0,0,1-2.77,2Z"/><path class="cls-20" d="M1470.6,1276.25v-1.77l-45.74.94-52.09-.94v2l-652.87,13.44,4.6,46.33H1904.19s74.69-.94,74.69,61.62L1926,2267.82s2.43,93.84-284.18,109.49h379.69c108.12-15.44,105-101.94,108.12-111.21s98.85-976.16,98.85-976.16Z"/><path class="cls-21" d="M723,1321.28H2225.35c2-20.08,3.11-31.34,3.11-31.34l-757.86-13.69v-1.77l-45.74.94-52.09-.94v2l-652.87,13.44S721,1301.2,723,1321.28Z"/><path class="cls-22" d="M738.46,1339.36l92.67,874.23s-3.08,139,135.92,148.28h590l-447.67-39.56s-175.39-23.59-197-168.79-77.95-817.25-77.95-817.25Z"/><polygon class="cls-12" points="850.04 1291.47 867.04 1388.79 882.48 1388.79 892.53 1289.94 850.04 1291.47"/><path class="cls-12" d="M882.48,1391.81H867a3,3,0,0,1-3-2.51l-17-97.3a3,3,0,0,1,2.87-3.56l42.49-1.53a2.84,2.84,0,0,1,2.32.95,3,3,0,0,1,.8,2.39l-10,98.84A3,3,0,0,1,882.48,1391.81Zm-12.9-6h10.16l9.43-92.68-35.55,1.29Z"/><polygon class="cls-12" points="1149.69 1291.47 1166.69 1388.79 1182.13 1388.79 1192.17 1289.94 1149.69 1291.47"/><path class="cls-12" d="M1182.13,1391.81h-15.44a3,3,0,0,1-3-2.51l-17-97.3a3,3,0,0,1,.63-2.43,3.07,3.07,0,0,1,2.24-1.13l42.47-1.53a2.9,2.9,0,0,1,2.33.95,3.07,3.07,0,0,1,.8,2.39l-10,98.84A3,3,0,0,1,1182.13,1391.81Zm-12.9-6h10.17l9.4-92.68-35.53,1.29Z"/><polygon class="cls-12" points="1449.35 1291.47 1466.33 1388.79 1481.79 1388.79 1491.82 1289.94 1449.35 1291.47"/><path class="cls-12" d="M1481.79,1391.81h-15.46a3,3,0,0,1-3-2.51l-17-97.3a3,3,0,0,1,.63-2.43,3.07,3.07,0,0,1,2.24-1.13l42.47-1.53a3,3,0,0,1,2.32.95,3,3,0,0,1,.8,2.39l-10,98.84A3,3,0,0,1,1481.79,1391.81Zm-12.92-6h10.18l9.41-92.68-35.53,1.29Z"/><polygon class="cls-12" points="1749.01 1291.47 1765.98 1388.79 1781.43 1388.79 1791.47 1289.94 1749.01 1291.47"/><path class="cls-12" d="M1781.43,1391.81H1766a3,3,0,0,1-3-2.51l-17-97.3a3,3,0,0,1,.62-2.43,3.09,3.09,0,0,1,2.25-1.13l42.46-1.53a2.86,2.86,0,0,1,2.33.95,3.06,3.06,0,0,1,.79,2.39l-10,98.84A3,3,0,0,1,1781.43,1391.81Zm-12.91-6h10.17l9.41-92.68-35.52,1.29Z"/><polygon class="cls-12" points="2048.64 1291.47 2065.63 1388.79 2081.08 1388.79 2091.11 1289.94 2048.64 1291.47"/><path class="cls-12" d="M2081.08,1391.81h-15.45a3,3,0,0,1-3-2.51l-17-97.3a3,3,0,0,1,.62-2.43,3.09,3.09,0,0,1,2.25-1.13l42.46-1.53a2.9,2.9,0,0,1,2.33.95,3,3,0,0,1,.8,2.39l-10,98.84A3,3,0,0,1,2081.08,1391.81Zm-12.9-6h10.16l9.4-92.68-35.53,1.29Z"/><rect class="cls-23" x="698.54" y="1250.01" width="1542.51" height="39.4"/><path class="cls-23" d="M2241.06,1292.43H698.54a3,3,0,0,1-3-3V1250a3,3,0,0,1,3-3H2241.06a3,3,0,0,1,3,3v39.4A3,3,0,0,1,2241.06,1292.43Zm-1539.49-6.06H2238V1253H701.57Z"/><rect class="cls-12" x="685.39" y="1274.48" width="1568.8" height="27.82"/><path class="cls-12" d="M2254.2,1305.32H685.39a3,3,0,0,1-3-3v-27.81a3,3,0,0,1,3-3H2254.2a3,3,0,0,1,3,3v27.81A3,3,0,0,1,2254.2,1305.32Zm-1565.77-6H2251.17v-21.76H688.43Z"/><rect class="cls-12" x="685.39" y="1211.39" width="1568.8" height="47.37"/><path class="cls-12" d="M2254.2,1261.79H685.39a3,3,0,0,1-3-3v-47.37a3,3,0,0,1,3-3H2254.2a3,3,0,0,1,3,3v47.37A3,3,0,0,1,2254.2,1261.79Zm-1565.77-6H2251.17v-41.32H688.43Z"/><rect class="cls-24" x="685.39" y="1211.39" width="1568.8" height="12.08"/><path class="cls-25" d="M863.43,1189.86l56-94.45s22.74-31.48,78.71-29.73H1545.6l-503.76,10.49s-15.73-5.25-33.23,14-56,98-56,98Z"/><path class="cls-12" d="M1967.81,1036.55h38.51A139.85,139.85,0,0,0,1967.81,1036.55Z"/><path class="cls-26" d="M2035.57,1097.71s-19.24-33.23-64.71-33.23h-45.25c14.36,2.09,29.6,8.07,39.8,21.06,93.77,119.57,42.34,115.7,42.34,115.7H844.1l-10.2,17.17,339.35,1.26v2.23l297.35-1.11L1768,1221.9v-2.23l339.33-1.26Z"/><path class="cls-2" d="M1131.15,2558.82A98.86,98.86,0,1,1,1032.3,2460,98.85,98.85,0,0,1,1131.15,2558.82Z"/><path class="cls-3" d="M1032.3,2660.69a101.88,101.88,0,1,1,101.87-101.87A102,102,0,0,1,1032.3,2660.69Zm0-197.7a95.83,95.83,0,1,0,95.82,95.83A95.94,95.94,0,0,0,1032.3,2463Z"/><path class="cls-4" d="M1093.06,2558.82a60.76,60.76,0,1,1-60.76-60.77A60.76,60.76,0,0,1,1093.06,2558.82Z"/><path class="cls-5" d="M1062.43,2562.68a30.13,30.13,0,1,1-30.13-30.13A30.14,30.14,0,0,1,1062.43,2562.68Z"/><path class="cls-6" d="M1009.13,2415.16l4.63,149.83s-4.63,18.53,18.54,20.07c0,0,15.44,3.1,24.71-17l58.69-143.66Z"/><path class="cls-7" d="M1034.59,2588.26h0a15.43,15.43,0,0,1-2.89-.23c-8.16-.51-14.34-3.32-18-8.3-4.39-6-3.39-13.13-3-15l-4.62-149.47a3.06,3.06,0,0,1,.94-2.29,3.1,3.1,0,0,1,2.34-.82l106.58,9.27a3,3,0,0,1,2.54,4.16l-58.68,143.65C1051.88,2586.42,1039.53,2588.26,1034.59,2588.26Zm-22.33-169.78,4.52,146.42a3.22,3.22,0,0,1-.08.82c0,.05-1.37,6,2,10.49,2.52,3.43,7.17,5.38,13.83,5.83,2.79.39,14.28,1,21.76-15.23l57.09-139.73Z"/><path class="cls-8" d="M1009.14,2415.29l4.64,149.83s-4.64,18.53,18.54,20.07c0,0,15.44,3.1,24.71-17l58.69-143.66Z"/><path class="cls-8" d="M1034.61,2588.39h0a15.3,15.3,0,0,1-2.89-.23c-8.16-.52-14.34-3.33-18-8.3-4.39-6-3.39-13.13-3-15l-4.63-149.47a3.08,3.08,0,0,1,.95-2.29,3,3,0,0,1,2.34-.82l106.57,9.26a3,3,0,0,1,2.55,4.17l-58.69,143.65C1051.9,2586.55,1039.55,2588.39,1034.61,2588.39Zm-22.34-169.79L1016.8,2565a3.29,3.29,0,0,1-.08.83c0,.05-1.38,6,2,10.49,2.53,3.43,7.17,5.38,13.84,5.83,2.79.39,14.28,1,21.76-15.23l57.08-139.73Z"/><polygon class="cls-9" points="1094.93 2475.26 1115.7 2424.42 1009.13 2415.16 1010.98 2475.26 1094.93 2475.26"/><polygon class="cls-10" points="984.41 2378.08 998.32 2430.61 1131.15 2430.61 1131.15 2384.27 984.41 2378.08"/><path class="cls-10" d="M1131.15,2433.64H998.31a3,3,0,0,1-2.93-2.25l-13.9-52.53a3,3,0,0,1,.57-2.67,2.81,2.81,0,0,1,2.48-1.13l146.74,6.18a3,3,0,0,1,2.9,3v46.34A3,3,0,0,1,1131.15,2433.64Zm-130.51-6.06h127.48v-40.41l-139.73-5.89Z"/><path class="cls-11" d="M1043.12,2560.6a11.59,11.59,0,1,1-11.59-11.57A11.59,11.59,0,0,1,1043.12,2560.6Z"/><path class="cls-27" d="M1488.86,1635c.65.8,1.27,1.66,1.87,2.47q12.63,17.13,24.39,34.84c2.45,3.67,4.69,7.43,6.86,11.24-8.29,3.84-16.58,7.61-25,11.2a.8.8,0,0,1-.32-.16c-1.22.6-2.47,1.26-3.68,1.94,8.06,4.49,17.2,7.87,25.45,11.2,14.21,5.77,28.56,11,42.52,17.25,13,5.71,26.33,10.53,39.75,15v0a20.47,20.47,0,0,1,2.3.49c.47-1.4.81-2.8,1.34-4.16h-.07c2.78-8.77,5.67-17.49,8.58-26.14Q1618,1695,1623.2,1680a46.14,46.14,0,0,1,3.21-9.47c2.14-6,4.1-11.91,6.16-17.82,1.57-4.47,3.12-8.84,4.71-13.24a1.41,1.41,0,0,1,.28-.23c.45-1.23,1-2.48,1.39-3.6a1.83,1.83,0,0,1-.14-.28,60.87,60.87,0,0,1-8.73,3.39c-6.76,3.19-14,5.71-21,8.35-6.57-9.15-13-18.3-19.51-27.56s-13.3-18.8-21.23-27.09c-3.23-3.34-8.19-5.92-11.74-9-2.52-2.16-7.38-2.84-8.46-2.91-21.16-1-42.55.64-63.71,1.24-17.43.56-34.71-1.12-52.33.8-4.06-.47-12-.24-16.44,1.84a23.75,23.75,0,0,0-6.34,4.62c-.1.11-.2.34-.32.45a1.84,1.84,0,0,0-.59.42c-16.31,14.7-28.84,33.21-42.85,50-4.77,5.66-9.54,11.31-14.22,17,.91.68,1.79,1.42,2.66,2.08l.2-.23c13.56,8.74,26.27,19.55,39.22,29.13,12.06,8.89,23.81,19.6,37,26.92v.12c1.89,1.18,3.73,2.41,5.45,3.66.71-1.19,1.46-2.43,2.18-3.72,5.52-9.65,11.83-18.8,17.64-28.27,5.49-8.93,10.84-17.89,16.32-26.82C1477.16,1651.55,1482.32,1642.34,1488.86,1635Zm-52.09-43.46c-3.81-1.19-9.62-4-13.58-2.69-2.56.86-1.46.81-4,.54-.34-.12-.24-.64.11-.7,3.16-.39,5.22-2.42,8.52-1.94,2.58.37,5.06.91,7.59,1.46a46.14,46.14,0,0,1,17.2,8.24,173.91,173.91,0,0,1,34.21,34.18c.54.8-.75,2.31-1.55,1.55-4.86-4.66-8.69-10.32-13.81-14.85-5.51-4.85-10.88-9.91-16.43-14.59C1449.57,1598.25,1443.65,1593.72,1436.77,1591.57Z"/><path class="cls-27" d="M1699.24,1810.34a1.83,1.83,0,0,0-.21-.53,1.05,1.05,0,0,0,0-.7c-4-21.6-13.45-41.85-20.48-62.52-2.44-7-4.75-14-7.21-20.95-1,.33-2.1.76-3.12,1.2,0,.1.08.14.08.32-14.47,7-30.29,12.33-45.22,18.41-13.86,5.71-29.1,10.27-42.19,17.76-.07-.06-.09-.06-.09-.06-2,1-4,1.85-6,2.72.74,1.27,1.47,2.52,2.13,3.75,5.39,9.81,10,19.92,15.07,29.84,4.78,9.31,9.68,18.46,14.39,27.78,4.37,8.66,9.56,17.82,12.43,27.14-1,.17-2.07.26-3.11.38-14.1,1.28-28.26,2.15-42.39,2.86-4.41.16-8.78.1-13.19,0,1-9,2.08-18.11,3.33-27.16.17,0,.23-.16.31-.21.11-1.39.19-2.73.21-4.13-7.92,4.56-15.58,10.66-22.75,15.92-12.18,9.22-24.18,18.74-36.69,27.52-11.64,8.08-22.71,17.07-33.48,26.18h0c-.54.6-1.06,1.18-1.6,1.71.94,1.09,1.92,2.16,2.83,3.29h0c6.1,6.89,12,13.84,18,20.84,6.83,8.12,13.65,16.32,20.47,24.5a37.14,37.14,0,0,1,6.4,7.71q6.09,7.26,12.17,14.41c3,3.67,5.91,7.28,8.88,10.94,0,.11,0,.27.05.32l2.33,3.08h.35a49.07,49.07,0,0,1,1.56-9.17c.8-7.42,2.35-15,3.79-22.33,11.15-.92,22.36-1.67,33.59-2.44,11.48-.87,23-1.62,34.21-4.2,4.53-1,9.34-3.93,13.79-5.32,3.16-1,6.35-4.85,6.87-5.71,11.76-17.6,21.48-36.73,31.94-55.2,8.64-15.12,19-29.07,26.41-45.13,2.57-3.2,6.46-10.17,7-15A21.44,21.44,0,0,0,1699.24,1810.34ZM1694.1,1824c-8.11,10.88-15.27,20.23-28.36,25.3a92.43,92.43,0,0,1-38.76,5.83c-1.49-.08-.85-2.16.23-2.43,12.47-2.32,25.38-2.75,37.35-7.39,12.35-4.78,19.94-12.49,28.87-21.91C1693.87,1822.94,1694.49,1823.37,1694.1,1824Z"/><path class="cls-27" d="M1461.9,1860.31c-.15-2.2-.15-4.42-.15-6.56-1.37.1-2.81.17-4.25.38-11.13,1-22.26,1.18-33.35,1.81-10.44.76-20.83,1.52-31.2,2.17-9.72.53-20.18,1.55-29.9.42.34-1,.62-2,.94-3,4.46-13.4,9.3-26.76,14.35-40,1.58-4.14,3.44-8.07,5.28-12.06q11.84,6.77,23.54,13.93a1.49,1.49,0,0,1,0,.33c1.27.66,2.49,1.31,3.74,1.9-1-9.12-3.53-18.49-5.55-27.26-3.43-14.85-7.44-29.61-10.45-44.69-2.76-13.84-6.52-27.57-10.57-41.15h.06a13.19,13.19,0,0,1-1-2.14c-1.36.43-2.78.92-4.13,1.3v.11c-8.8,2.68-17.53,5.43-26.36,8.07-10.15,3-20.39,5.91-30.61,8.95a40.22,40.22,0,0,1-9.66,2.78c-6,1.78-12,3.56-18.12,5.29-4.52,1.28-9,2.58-13.48,3.82a.85.85,0,0,1-.41-.12c-1.21.33-2.45.6-3.7,1a2.24,2.24,0,0,1-.13.27,51.09,51.09,0,0,1,7.77,5.11c6.56,3.76,12.79,8.14,19,12.39-3.65,10.6-7.44,21.21-11.23,31.76-3.85,10.82-7.75,21.76-9.92,33.08-.86,4.51-.11,10-.55,14.69-.31,3.34,1.87,7.75,2.46,8.62,11.44,17.87,25.09,34.45,37.72,51.36,10.48,14,19.13,29,30.83,42.27,1.92,3.67,6.79,10,11,12.44a20.91,20.91,0,0,0,7.38,2.43h.63a1,1,0,0,0,.63.31c21.43,4.9,43.74,4.36,65.55,6.19,7.32.61,14.69,1.35,22,1.83,0-1.06.11-2.2.12-3.33a.54.54,0,0,0-.18,0c-.79-16.06.7-32.74,1.08-48.85.35-15,2.32-30.75.67-45.71C1461.9,1860.36,1461.9,1860.31,1461.9,1860.31Zm-102.67-3c-14.38,2.25-32-.11-45.84-4.14-11.16-3.3-26.5-7.06-29.56-20-.08-.22.37-.55.44-.22,5.51,11.56,21.85,15.34,33.5,18,13.86,3,27.58,2.69,41.67,3.76C1361,1854.93,1360.42,1857.13,1359.23,1857.36Z"/></g></g></svg>