<svg xmlns="http://www.w3.org/2000/svg" viewBox="0 0 3061.42 3061.42"><defs><style>.cls-1{isolation:isolate;}.cls-2{fill:#505250;}.cls-3{fill:#231f20;}.cls-4{fill:#2a2b2a;}.cls-5{fill:#1d1d1b;}.cls-6{fill:#72bf44;}.cls-7{fill:#039447;}.cls-8{fill:#828282;}.cls-21,.cls-9{fill:#191c17;}.cls-16,.cls-18,.cls-22,.cls-28,.cls-9{mix-blend-mode:multiply;}.cls-10{fill:#6f706f;}.cls-11{fill:#050606;}.cls-12,.cls-25{fill:#009444;}.cls-13{opacity:0;}.cls-14{fill:#fcee21;}.cls-15{fill:#878787;}.cls-16{fill:#1c1e1b;}.cls-16,.cls-23,.cls-25,.cls-26,.cls-28{opacity:0.5;}.cls-17,.cls-18{fill:#757576;}.cls-19{fill:#01ae4d;}.cls-20{fill:#0b0b0b;}.cls-22{fill:#4f4f4f;}.cls-23{fill:#3f443b;}.cls-23,.cls-25,.cls-26{mix-blend-mode:color-dodge;}.cls-24{fill:#434139;}.cls-26{fill:#27aae1;}.cls-27,.cls-28{fill:#1c75bc;}.cls-29{fill:#fff;}</style></defs><g class="cls-1"><g id="Layer_1" data-name="Layer 1"><path class="cls-2" d="M1992.78,2285.7a98.86,98.86,0,1,1-98.85-98.85A98.85,98.85,0,0,1,1992.78,2285.7Z"/><path class="cls-3" d="M1893.93,2387.57A101.88,101.88,0,1,1,1995.8,2285.7,102,102,0,0,1,1893.93,2387.57Zm0-197.7a95.83,95.83,0,1,0,95.82,95.83A95.94,95.94,0,0,0,1893.93,2189.87Z"/><path class="cls-4" d="M1954.69,2285.7a60.76,60.76,0,1,1-60.76-60.77A60.76,60.76,0,0,1,1954.69,2285.7Z"/><path class="cls-5" d="M1924.06,2289.56a30.13,30.13,0,1,1-30.13-30.13A30.14,30.14,0,0,1,1924.06,2289.56Z"/><path class="cls-6" d="M1870.76,2142l4.63,149.83s-4.63,18.53,18.54,20.07c0,0,15.44,3.1,24.71-17l58.69-143.66Z"/><path class="cls-7" d="M1896.22,2315.14h0a15.43,15.43,0,0,1-2.89-.23c-8.16-.51-14.34-3.32-18-8.3-4.39-6-3.39-13.13-3-15l-4.62-149.47a3.06,3.06,0,0,1,.94-2.29,3.1,3.1,0,0,1,2.34-.82l106.58,9.27a3,3,0,0,1,2.54,4.16l-58.68,143.65C1913.51,2313.3,1901.16,2315.14,1896.22,2315.14Zm-22.33-169.78,4.52,146.42a3.22,3.22,0,0,1-.08.82c0,.05-1.37,6,2,10.49,2.52,3.43,7.17,5.38,13.83,5.83,2.79.39,14.28,1,21.76-15.23L1973,2154Z"/><path class="cls-8" d="M1870.77,2142.17l4.64,149.83s-4.64,18.53,18.54,20.07c0,0,15.44,3.1,24.71-17l58.69-143.66Z"/><path class="cls-8" d="M1896.24,2315.27h0a15.3,15.3,0,0,1-2.89-.23c-8.16-.52-14.34-3.32-18-8.3-4.39-6-3.39-13.13-3-15l-4.63-149.47a3.08,3.08,0,0,1,1-2.29,3,3,0,0,1,2.34-.82l106.57,9.26a3,3,0,0,1,2.55,4.17l-58.69,143.65C1913.53,2313.43,1901.18,2315.27,1896.24,2315.27Zm-22.33-169.79,4.52,146.42a3.29,3.29,0,0,1-.08.83c0,.05-1.38,5.95,2,10.49,2.53,3.43,7.18,5.38,13.84,5.83,2.79.39,14.28,1,21.76-15.23L1973,2154.09Z"/><polygon class="cls-9" points="1956.57 2202.14 1977.33 2151.3 1870.76 2142.04 1872.61 2202.14 1956.57 2202.14"/><polygon class="cls-10" points="1846.04 2104.96 1859.94 2157.49 1992.78 2157.49 1992.78 2111.15 1846.04 2104.96"/><path class="cls-10" d="M1992.78,2160.52H1860a3.05,3.05,0,0,1-2.94-2.25l-13.9-52.53a3,3,0,0,1,.57-2.67,2.81,2.81,0,0,1,2.48-1.13l146.74,6.18a3,3,0,0,1,2.9,3v46.34A3,3,0,0,1,1992.78,2160.52Zm-130.51-6.06h127.48v-40.41L1850,2108.16Z"/><path class="cls-11" d="M1904.75,2287.48a11.59,11.59,0,1,1-11.59-11.57A11.59,11.59,0,0,1,1904.75,2287.48Z"/><path class="cls-12" d="M1750.26,913.33l339.33,42.24-71.72-164.2s-19.24-33.25-64.71-33.25H952.64c-45.47,0-64.72,33.25-64.72,33.25L816.2,959.06l339.35-45.73v2.23l297.35-1.11,297.36,1.11Z"/><path class="cls-12" d="M816.2,962.1a3,3,0,0,1-2.78-4.22l71.71-167.7c1-1.75,20.84-35.08,67.51-35.08H1953.16c46.68,0,66.51,33.34,67.34,34.76l71.55,163.8a3,3,0,0,1,.68,1.91,3,3,0,0,1-3,3h-.11a2.42,2.42,0,0,1-.38,0l-336.16-41.84a3.14,3.14,0,0,1-.66,1,3,3,0,0,1-2.13.88h0l-297.36-1.11-297.33,1.11h0a3,3,0,0,1-2.13-.88,3,3,0,0,1-.65-1L816.6,962.06A1.7,1.7,0,0,1,816.2,962.1Zm136.44-201c-43.23,0-61.91,31.42-62.1,31.74L821.08,955.36l334.07-45a3,3,0,0,1,2.39.71,3.09,3.09,0,0,1,.93,1.48l294.42-1.1,294.44,1.1a3.12,3.12,0,0,1,.92-1.47,3,3,0,0,1,2.38-.73l334,41.59L2015.1,792.58s-18.86-31.43-61.94-31.43Z"/><g class="cls-13"><path class="cls-14" d="M1745.68,957.18,2085,955.91,2013.3,835.22S1994.06,802,1948.58,802H948.06c-45.47,0-64.71,33.23-64.71,33.23L811.63,955.91,1151,957.18v2.23l297.36-1.11,297.35,1.11Z"/><path class="cls-14" d="M1745.68,962.44h0l-297.35-1.11L1151,962.44h0a3,3,0,0,1-2.14-.88,3.18,3.18,0,0,1-.8-1.37l-336.43-1.25a3,3,0,0,1-2.58-4.58l71.71-120.69c.81-1.39,20.65-34.71,67.32-34.71H1948.58c46.68,0,66.52,33.33,67.34,34.74l71.69,120.66a3,3,0,0,1-2.58,4.58l-336.42,1.25a3.16,3.16,0,0,1-.79,1.37A3.06,3.06,0,0,1,1745.68,962.44Zm-297.36-7.17,294.44,1.1a3,3,0,0,1,2.91-2.22l334-1.25-69-116.13c-.2-.34-19-31.75-62.12-31.75H948.06c-43.22,0-61.91,31.4-62.09,31.72l-69,116.16,334,1.25a3,3,0,0,1,2.9,2.22Z"/></g><path class="cls-15" d="M1943.13,929.19,1901,858.35s-15.41-26.63-51.86-26.63H1047.48c-36.45,0-51.87,26.63-51.87,26.63l-42.09,70.84Z"/><path class="cls-15" d="M1943.13,932.21H953.52a3,3,0,0,1-2.6-4.57L993,856.8c.64-1.11,16.71-28.1,54.47-28.1h801.69c37.77,0,53.81,27,54.48,28.14l42.08,70.8a3,3,0,0,1-2.6,4.57Zm-984.29-6.05h979l-39.37-66.26c-.61-1-15.1-25.15-49.26-25.15H1047.48c-34.16,0-48.64,24.1-49.25,25.12Z"/><polygon class="cls-16" points="971.52 898.89 953.52 929.19 1943.13 929.19 1925.12 898.89 971.52 898.89"/><rect class="cls-17" x="624.55" y="1167.41" width="142.1" height="71.06"/><path class="cls-17" d="M766.65,1241.5H624.55a3,3,0,0,1-3-3v-71.06a3,3,0,0,1,3-3h142.1a3,3,0,0,1,3,3v71.06A3,3,0,0,1,766.65,1241.5Zm-139.07-6.06h136v-65h-136Z"/><polygon class="cls-18" points="766.65 1238.47 692.51 1238.47 682.21 1167.41 766.65 1167.41 766.65 1238.47"/><rect class="cls-17" x="2132.06" y="1167.41" width="142.1" height="71.06"/><path class="cls-17" d="M2274.15,1241.5H2132.06a3,3,0,0,1-3-3v-71.06a3,3,0,0,1,3-3h142.09a3,3,0,0,1,3,3v71.06A3,3,0,0,1,2274.15,1241.5Zm-139.06-6.06h136v-65h-136Z"/><polygon class="cls-18" points="2132.06 1238.47 2206.19 1238.47 2216.49 1167.41 2132.06 1167.41 2132.06 1238.47"/><path class="cls-6" d="M1449.37,1017.81V1016l-45.74,1-52.09-1v2L698.68,1031.5s95.77,966.89,98.87,976.16,0,95.77,108.11,111.21h1094.6c108.12-15.44,105-101.94,108.12-111.21s98.85-976.16,98.85-976.16Z"/><path class="cls-19" d="M2000.26,2121.9H905.66c-98.07-14-107.13-84.45-110.09-107.6a49.51,49.51,0,0,0-.9-5.69c-3.12-9.31-89.19-877.82-99-976.82a3,3,0,0,1,.74-2.31,3,3,0,0,1,2.2-1l650-13.38a3,3,0,0,1,.74-1.2,3.05,3.05,0,0,1,2.18-.88l52.1.94,45.62-.94a2.82,2.82,0,0,1,2.18.87,3,3,0,0,1,.66,1l755.14,13.64a3,3,0,0,1,3,3.32c-9.81,99-95.88,967.51-99,976.82a49.41,49.41,0,0,0-.9,5.7c-3,23.16-12,93.61-109.67,107.56A3,3,0,0,1,2000.26,2121.9ZM702,1034.46c33,332.94,95.54,960.16,98.43,972.38a40.55,40.55,0,0,1,1.12,6.69c2.83,22,11.43,89,104.52,102.34l1093.95,0c92.88-13.37,101.47-80.31,104.3-102.31a45.19,45.19,0,0,1,1.16-6.84c2.85-12.06,65.41-639.27,98.39-972.23l-754.58-13.63a3.06,3.06,0,0,1-2.68-1.71l-42.93.88-49.31-.89a3,3,0,0,1-2.77,2Z"/><path class="cls-20" d="M1449.37,1017.85v-1.77l-45.74.95-52.09-.95,0,2-652.87,13.43s95.76,966.9,98.86,976.16,0,95.77,108.12,111.22H2000.26c108.12-15.45,105-102,108.12-111.22s98.85-976.16,98.85-976.16Z"/><path class="cls-20" d="M2000.26,2121.9H905.66c-98.07-14-107.13-84.45-110.09-107.6a49.51,49.51,0,0,0-.9-5.69c-3.12-9.31-89.19-877.82-99-976.82a3,3,0,0,1,.74-2.31,3,3,0,0,1,2.2-1l650-13.38a3,3,0,0,1,.74-1.2,3.05,3.05,0,0,1,2.18-.88l52.1.94,45.62-.94a2.82,2.82,0,0,1,2.18.87,3,3,0,0,1,.66,1l755.14,13.64a3,3,0,0,1,3,3.32c-9.81,99-95.88,967.51-99,976.82a49.41,49.41,0,0,0-.9,5.7c-3,23.16-12,93.61-109.67,107.56A3,3,0,0,1,2000.26,2121.9ZM702,1034.46c33,332.94,95.54,960.16,98.43,972.38a40.55,40.55,0,0,1,1.12,6.69c2.83,22,11.43,89,104.52,102.34l1093.95,0c92.88-13.37,101.47-80.31,104.3-102.31a45.19,45.19,0,0,1,1.16-6.84c2.85-12.06,65.41-639.27,98.39-972.23l-754.58-13.63a3.06,3.06,0,0,1-2.68-1.71l-42.93.88-49.31-.89a3,3,0,0,1-2.77,2Z"/><path class="cls-21" d="M1449.37,1017.81V1016l-45.74,1-52.09-1v2L698.68,1031.5l4.6,46.33H1883s74.69-.94,74.69,61.61l-52.9,869.94s2.43,93.84-284.18,109.49h379.69c108.12-15.44,105-101.94,108.12-111.21s98.85-976.16,98.85-976.16Z"/><path class="cls-22" d="M701.8,1062.84H2204.12c2-20.08,3.11-31.34,3.11-31.34l-757.86-13.69V1016l-45.74,1-52.09-1v2L698.68,1031.5S699.81,1042.76,701.8,1062.84Z"/><path class="cls-23" d="M717.23,1080.92l92.67,874.23s-3.08,139,135.92,148.28h590l-447.67-39.56s-175.39-23.59-197-168.79-77.95-817.25-77.95-817.25Z"/><polygon class="cls-12" points="828.81 1033.03 845.81 1130.35 861.25 1130.35 871.3 1031.5 828.81 1033.03"/><path class="cls-12" d="M861.25,1133.37H845.81a3,3,0,0,1-3-2.51l-17-97.3a3,3,0,0,1,2.87-3.56l42.49-1.53a2.84,2.84,0,0,1,2.32,1,3,3,0,0,1,.8,2.39l-10,98.84A3,3,0,0,1,861.25,1133.37Zm-12.9-6.06h10.16l9.43-92.67-35.55,1.29Z"/><polygon class="cls-12" points="1128.46 1033.03 1145.46 1130.35 1160.9 1130.35 1170.94 1031.5 1128.46 1033.03"/><path class="cls-12" d="M1160.9,1133.37h-15.44a3,3,0,0,1-3-2.51l-17-97.3a3,3,0,0,1,.63-2.43,3.07,3.07,0,0,1,2.24-1.13l42.47-1.53a2.9,2.9,0,0,1,2.33,1,3.11,3.11,0,0,1,.8,2.39l-10,98.84A3,3,0,0,1,1160.9,1133.37Zm-12.9-6.06h10.17l9.4-92.67-35.53,1.29Z"/><polygon class="cls-12" points="1428.12 1033.03 1445.1 1130.35 1460.56 1130.35 1470.59 1031.5 1428.12 1033.03"/><path class="cls-12" d="M1460.56,1133.37H1445.1a3,3,0,0,1-3-2.51l-17-97.3a3,3,0,0,1,.63-2.43A3.07,3.07,0,0,1,1428,1030l42.47-1.53a3,3,0,0,1,2.32,1,3,3,0,0,1,.8,2.39l-10,98.84A3,3,0,0,1,1460.56,1133.37Zm-12.92-6.06h10.18l9.41-92.67-35.53,1.29Z"/><polygon class="cls-12" points="1727.78 1033.03 1744.75 1130.35 1760.2 1130.35 1770.24 1031.5 1727.78 1033.03"/><path class="cls-12" d="M1760.2,1133.37h-15.45a3,3,0,0,1-3-2.51l-17-97.3a3,3,0,0,1,.62-2.43,3.07,3.07,0,0,1,2.25-1.13l42.46-1.53a2.86,2.86,0,0,1,2.33,1,3.06,3.06,0,0,1,.79,2.39l-10,98.84A3,3,0,0,1,1760.2,1133.37Zm-12.91-6.06h10.17l9.41-92.67-35.52,1.29Z"/><polygon class="cls-12" points="2027.41 1033.03 2044.4 1130.35 2059.85 1130.35 2069.88 1031.5 2027.41 1033.03"/><path class="cls-12" d="M2059.85,1133.37H2044.4a3,3,0,0,1-3-2.51l-17-97.3a3,3,0,0,1,.62-2.43,3.09,3.09,0,0,1,2.25-1.13l42.46-1.53a2.9,2.9,0,0,1,2.33,1,3,3,0,0,1,.8,2.39l-10,98.84A3,3,0,0,1,2059.85,1133.37Zm-12.9-6.06h10.16l9.4-92.67-35.53,1.29Z"/><rect class="cls-24" x="677.31" y="991.57" width="1542.51" height="39.4"/><path class="cls-24" d="M2219.83,1034H677.31a3,3,0,0,1-3-3V991.57a3,3,0,0,1,3-3H2219.83a3,3,0,0,1,3,3V1031A3,3,0,0,1,2219.83,1034Zm-1539.49-6.06H2216.8V994.6H680.34Z"/><rect class="cls-12" x="664.16" y="1016.03" width="1568.8" height="27.82"/><path class="cls-12" d="M2233,1046.88H664.16a3,3,0,0,1-3-3V1016a3,3,0,0,1,3-3H2233a3,3,0,0,1,3,3v27.82A3,3,0,0,1,2233,1046.88ZM667.2,1040.83H2229.94v-21.76H667.2Z"/><rect class="cls-12" x="664.16" y="952.95" width="1568.8" height="47.37"/><path class="cls-12" d="M2233,1003.35H664.16a3,3,0,0,1-3-3V953a3,3,0,0,1,3-3H2233a3,3,0,0,1,3,3v47.37A3,3,0,0,1,2233,1003.35ZM667.2,997.3H2229.94V956H667.2Z"/><rect class="cls-25" x="664.16" y="952.95" width="1568.8" height="12.08"/><path class="cls-26" d="M842.2,931.41l56-94.44s22.74-31.48,78.71-29.73h547.48l-503.76,10.49s-15.73-5.25-33.23,14-56,98-56,98Z"/><path class="cls-27" d="M1946.58,778.11h38.51A139.85,139.85,0,0,0,1946.58,778.11Z"/><path class="cls-28" d="M2014.34,839.27S1995.1,806,1949.63,806h-45.25c14.36,2.09,29.6,8.07,39.8,21.06,93.77,119.57,42.34,115.7,42.34,115.7H822.87L812.67,960,1152,961.23v2.23l297.35-1.11,297.36,1.11v-2.23L2086.06,960Z"/><path class="cls-2" d="M1109.92,2300.38a98.86,98.86,0,1,1-98.85-98.86A98.85,98.85,0,0,1,1109.92,2300.38Z"/><path class="cls-3" d="M1011.07,2402.25a101.88,101.88,0,1,1,101.87-101.87A102,102,0,0,1,1011.07,2402.25Zm0-197.7a95.83,95.83,0,1,0,95.82,95.83A95.94,95.94,0,0,0,1011.07,2204.55Z"/><path class="cls-4" d="M1071.83,2300.38a60.76,60.76,0,1,1-60.76-60.77A60.76,60.76,0,0,1,1071.83,2300.38Z"/><path class="cls-5" d="M1041.2,2304.24a30.13,30.13,0,1,1-30.13-30.13A30.14,30.14,0,0,1,1041.2,2304.24Z"/><path class="cls-6" d="M987.9,2156.72l4.63,149.83s-4.63,18.53,18.54,20.07c0,0,15.44,3.1,24.71-17L1094.47,2166Z"/><path class="cls-7" d="M1013.36,2329.82h0a15.43,15.43,0,0,1-2.89-.23c-8.16-.51-14.34-3.32-18-8.3-4.39-6-3.39-13.13-3-15l-4.62-149.47a3.06,3.06,0,0,1,.94-2.29,3.1,3.1,0,0,1,2.34-.82l106.58,9.27a3,3,0,0,1,2.54,4.16l-58.68,143.65C1030.65,2328,1018.3,2329.82,1013.36,2329.82ZM991,2160l4.52,146.43a3.26,3.26,0,0,1-.08.82s-1.37,6,2,10.49c2.52,3.43,7.17,5.38,13.83,5.83,2.79.39,14.28,1,21.76-15.23l57.09-139.73Z"/><path class="cls-8" d="M987.91,2156.85l4.64,149.83s-4.64,18.53,18.54,20.07c0,0,15.44,3.1,24.71-17l58.69-143.66Z"/><path class="cls-8" d="M1013.38,2330h0a15.3,15.3,0,0,1-2.89-.23c-8.16-.52-14.34-3.33-18-8.3-4.39-6-3.39-13.13-3-15l-4.63-149.47a3.08,3.08,0,0,1,1-2.29,3,3,0,0,1,2.34-.82l106.57,9.26a3,3,0,0,1,2.55,4.17l-58.69,143.65C1030.67,2328.11,1018.32,2330,1013.38,2330ZM991,2160.16l4.53,146.42a3.29,3.29,0,0,1-.08.83s-1.38,6,2,10.49c2.53,3.43,7.17,5.38,13.84,5.83,2.79.39,14.28,1,21.76-15.23l57.08-139.73Z"/><polygon class="cls-9" points="1073.7 2216.82 1094.47 2165.98 987.9 2156.72 989.75 2216.82 1073.7 2216.82"/><polygon class="cls-10" points="963.18 2119.64 977.09 2172.17 1109.92 2172.17 1109.92 2125.83 963.18 2119.64"/><path class="cls-10" d="M1109.92,2175.2H977.08a3,3,0,0,1-2.93-2.26l-13.9-52.52a3,3,0,0,1,.57-2.68,2.83,2.83,0,0,1,2.48-1.12L1110,2122.8a3,3,0,0,1,2.9,3v46.34A3,3,0,0,1,1109.92,2175.2Zm-130.51-6.06h127.48v-40.41l-139.73-5.89Z"/><path class="cls-11" d="M1021.89,2302.16a11.59,11.59,0,1,1-11.59-11.57A11.58,11.58,0,0,1,1021.89,2302.16Z"/><path class="cls-29" d="M1467.63,1376.59c.65.8,1.27,1.66,1.87,2.47q12.63,17.13,24.39,34.83c2.45,3.67,4.69,7.44,6.86,11.25-8.29,3.84-16.58,7.61-25,11.2a.8.8,0,0,1-.32-.16c-1.22.6-2.47,1.26-3.68,1.94,8.06,4.49,17.2,7.87,25.45,11.2,14.21,5.77,28.56,11,42.52,17.25,13,5.71,26.33,10.53,39.75,15v.05a20.47,20.47,0,0,1,2.3.49c.47-1.4.81-2.8,1.34-4.16h-.07c2.78-8.77,5.67-17.49,8.58-26.14q5.11-15.21,10.32-30.28a46.14,46.14,0,0,1,3.21-9.47c2.14-6,4.1-11.91,6.16-17.82,1.57-4.47,3.12-8.84,4.71-13.24a1.41,1.41,0,0,1,.28-.23c.45-1.23,1-2.48,1.39-3.6a1.83,1.83,0,0,1-.14-.28,60.87,60.87,0,0,1-8.73,3.39c-6.76,3.19-14,5.71-21,8.35-6.57-9.15-13-18.3-19.51-27.56s-13.3-18.8-21.23-27.09c-3.23-3.34-8.19-5.92-11.74-9-2.52-2.16-7.38-2.84-8.46-2.91-21.16-1-42.55.64-63.72,1.24-17.42.56-34.7-1.12-52.32.8-4.06-.47-12-.24-16.44,1.84a23.93,23.93,0,0,0-6.34,4.61,4.73,4.73,0,0,1-.32.46,1.74,1.74,0,0,0-.59.42c-16.31,14.7-28.84,33.21-42.85,50-4.77,5.66-9.54,11.31-14.22,16.95.91.68,1.79,1.42,2.66,2.08l.2-.23c13.56,8.74,26.27,19.55,39.22,29.13,12.06,8.89,23.81,19.6,37,26.92v.12c1.89,1.18,3.73,2.41,5.45,3.66.71-1.19,1.46-2.43,2.18-3.72,5.52-9.65,11.83-18.8,17.64-28.27,5.49-8.93,10.84-17.89,16.32-26.82C1455.93,1393.11,1461.09,1383.9,1467.63,1376.59Zm-52.09-43.46c-3.81-1.19-9.62-4-13.58-2.69-2.56.86-1.46.81-4,.54-.34-.12-.24-.64.11-.7,3.16-.39,5.22-2.42,8.52-1.94,2.58.37,5.06.91,7.59,1.46a46.14,46.14,0,0,1,17.2,8.24,173.91,173.91,0,0,1,34.21,34.18c.54.8-.75,2.31-1.55,1.55-4.86-4.66-8.69-10.32-13.81-14.85-5.51-4.85-10.88-9.91-16.43-14.59C1428.34,1339.81,1422.42,1335.28,1415.54,1333.13Z"/><path class="cls-29" d="M1678,1551.9a2.41,2.41,0,0,0-.21-.54,1.06,1.06,0,0,0,0-.7c-4-21.59-13.45-41.84-20.48-62.51-2.44-7.05-4.75-14-7.21-21-1,.33-2.1.76-3.12,1.2,0,.09.08.14.08.32-14.47,7-30.29,12.33-45.22,18.41-13.86,5.71-29.1,10.27-42.19,17.76-.07-.06-.09-.06-.09-.06-2,1-4,1.85-6,2.72.74,1.27,1.47,2.52,2.13,3.75,5.39,9.81,10,19.92,15.07,29.84,4.78,9.31,9.68,18.46,14.38,27.78,4.38,8.66,9.57,17.82,12.44,27.14-1,.17-2.07.26-3.11.38-14.1,1.28-28.26,2.15-42.39,2.86-4.41.16-8.79.1-13.19,0,1-9,2.08-18.11,3.33-27.16.17,0,.23-.16.31-.21.11-1.39.19-2.73.21-4.13-7.92,4.56-15.58,10.66-22.75,15.92-12.18,9.22-24.18,18.74-36.69,27.52-11.64,8.07-22.71,17.07-33.48,26.18h0c-.54.6-1.06,1.18-1.6,1.71.94,1.09,1.92,2.16,2.83,3.29h0c6.1,6.89,12,13.84,18,20.84,6.83,8.12,13.65,16.32,20.47,24.5a37.14,37.14,0,0,1,6.4,7.71q6.09,7.26,12.17,14.41c3,3.67,5.91,7.28,8.88,10.94,0,.11,0,.27.05.32l2.33,3.08h.35a49.07,49.07,0,0,1,1.56-9.17c.8-7.42,2.35-15,3.79-22.33,11.15-.92,22.36-1.67,33.59-2.44,11.48-.87,23-1.62,34.21-4.2,4.53-1,9.34-3.93,13.79-5.32,3.16-1,6.35-4.85,6.87-5.71,11.76-17.6,21.48-36.73,31.94-55.2,8.64-15.12,19-29.07,26.41-45.13,2.57-3.2,6.46-10.17,7-15A21.44,21.44,0,0,0,1678,1551.9Zm-5.14,13.63c-8.11,10.88-15.27,20.23-28.36,25.3a92.43,92.43,0,0,1-38.76,5.83c-1.49-.08-.85-2.16.23-2.44,12.47-2.31,25.38-2.74,37.35-7.38,12.35-4.78,19.94-12.49,28.87-21.91C1672.64,1564.5,1673.26,1564.93,1672.87,1565.53Z"/><path class="cls-29" d="M1440.67,1601.87c-.15-2.2-.15-4.42-.15-6.56-1.37.1-2.81.17-4.25.38-11.13,1-22.26,1.18-33.35,1.81-10.44.76-20.83,1.52-31.2,2.17-9.72.53-20.18,1.55-29.9.42.34-1,.62-2,.94-3,4.46-13.4,9.3-26.76,14.35-39.95,1.58-4.14,3.44-8.08,5.28-12.06q11.83,6.77,23.54,13.93a1.49,1.49,0,0,1,0,.33c1.27.66,2.49,1.31,3.74,1.9-1-9.12-3.53-18.49-5.55-27.26-3.43-14.86-7.44-29.61-10.45-44.69-2.76-13.84-6.52-27.57-10.57-41.15h.06a13.19,13.19,0,0,1-1-2.14c-1.36.43-2.78.92-4.13,1.29v.12c-8.8,2.67-17.53,5.43-26.36,8.07-10.15,3-20.39,5.91-30.61,9a40.22,40.22,0,0,1-9.66,2.78c-6,1.78-12,3.56-18.12,5.29-4.52,1.28-9,2.58-13.48,3.81a.84.84,0,0,1-.41-.11c-1.21.33-2.45.6-3.7,1,0,0-.09.22-.13.27a51.8,51.8,0,0,1,7.77,5.1c6.56,3.77,12.79,8.15,18.95,12.4-3.65,10.6-7.44,21.21-11.23,31.76-3.85,10.82-7.75,21.76-9.92,33.08-.86,4.5-.11,10-.55,14.69-.31,3.34,1.87,7.75,2.46,8.62,11.44,17.87,25.09,34.45,37.72,51.36,10.48,14,19.13,29,30.83,42.27,1.92,3.67,6.79,10,11,12.44a20.9,20.9,0,0,0,7.38,2.42h.63a1,1,0,0,0,.63.32c21.43,4.9,43.74,4.36,65.55,6.19,7.32.61,14.69,1.35,22.05,1.83,0-1.06.11-2.2.12-3.33a.54.54,0,0,0-.18,0c-.79-16.06.7-32.74,1.08-48.85.35-15,2.32-30.75.67-45.71C1440.67,1601.92,1440.67,1601.87,1440.67,1601.87ZM1338,1598.92c-14.38,2.25-32-.12-45.84-4.14-11.16-3.3-26.51-7.06-29.56-20-.08-.22.37-.55.44-.22,5.51,11.56,21.85,15.34,33.5,18,13.86,3,27.58,2.69,41.67,3.76C1339.72,1596.49,1339.19,1598.69,1338,1598.92Z"/></g></g></svg>