<svg xmlns="http://www.w3.org/2000/svg" viewBox="0 0 3061.42 3061.42"><defs><style>.cls-1{isolation:isolate;}.cls-2{fill:#505250;}.cls-3{fill:#231f20;}.cls-4{fill:#2a2b2a;}.cls-5{fill:#1d1d1b;}.cls-6{fill:#72bf44;}.cls-7{fill:#039447;}.cls-8{fill:#828282;}.cls-21,.cls-9{fill:#191c17;}.cls-16,.cls-18,.cls-22,.cls-28,.cls-9{mix-blend-mode:multiply;}.cls-10{fill:#6f706f;}.cls-11{fill:#050606;}.cls-12,.cls-25{fill:#ed1c24;}.cls-13{opacity:0;}.cls-14{fill:#fcee21;}.cls-15{fill:#878787;}.cls-16{fill:#1c1e1b;}.cls-16,.cls-23,.cls-25,.cls-26,.cls-28{opacity:0.5;}.cls-17,.cls-18{fill:#757576;}.cls-19{fill:#01ae4d;}.cls-20{fill:#0b0b0b;}.cls-22{fill:#4c4c4d;}.cls-23{fill:#3f443b;}.cls-23,.cls-25,.cls-26{mix-blend-mode:color-dodge;}.cls-24{fill:#3d3d3d;}.cls-26{fill:#27aae1;}.cls-27,.cls-28{fill:#be1e2d;}.cls-29{fill:#fff;}</style></defs><g class="cls-1"><g id="Layer_1" data-name="Layer 1"><path class="cls-2" d="M2259.16,2174.23a98.86,98.86,0,1,1-98.85-98.86A98.85,98.85,0,0,1,2259.16,2174.23Z"/><path class="cls-3" d="M2160.31,2276.1a101.88,101.88,0,1,1,101.87-101.87A102,102,0,0,1,2160.31,2276.1Zm0-197.71a95.83,95.83,0,1,0,95.82,95.84A95.95,95.95,0,0,0,2160.31,2078.39Z"/><path class="cls-4" d="M2221.07,2174.23a60.76,60.76,0,1,1-60.76-60.77A60.76,60.76,0,0,1,2221.07,2174.23Z"/><path class="cls-5" d="M2190.44,2178.08a30.13,30.13,0,1,1-30.13-30.12A30.13,30.13,0,0,1,2190.44,2178.08Z"/><path class="cls-6" d="M2137.14,2030.57l4.63,149.83s-4.63,18.53,18.54,20.07c0,0,15.44,3.1,24.71-17l58.69-143.66Z"/><path class="cls-7" d="M2162.6,2203.67h0a15.43,15.43,0,0,1-2.89-.23c-8.16-.52-14.34-3.33-18-8.3-4.39-6-3.39-13.13-3-15l-4.62-149.47a3,3,0,0,1,3.28-3.11l106.58,9.26a3.06,3.06,0,0,1,2.33,1.44,3,3,0,0,1,.21,2.73l-58.68,143.65C2179.89,2201.83,2167.54,2203.67,2162.6,2203.67Zm-22.33-169.79,4.53,146.42a3.84,3.84,0,0,1-.09.83s-1.37,5.95,2,10.49c2.52,3.43,7.17,5.38,13.83,5.83,2.79.39,14.28,1,21.76-15.23l57.09-139.73Z"/><path class="cls-8" d="M2137.15,2030.69l4.64,149.83s-4.64,18.53,18.54,20.08c0,0,15.44,3.1,24.71-17L2243.73,2040Z"/><path class="cls-8" d="M2162.62,2203.8h0a14.68,14.68,0,0,1-2.89-.24c-8.16-.51-14.34-3.32-18-8.29-4.39-6-3.39-13.14-3-15l-4.63-149.47a3.11,3.11,0,0,1,1-2.29,3.06,3.06,0,0,1,2.34-.81l106.57,9.26a3,3,0,0,1,2.55,4.16l-58.69,143.66C2179.91,2202,2167.56,2203.8,2162.62,2203.8ZM2140.29,2034l4.52,146.42a3.17,3.17,0,0,1-.08.82c0,.05-1.37,6,2,10.49,2.53,3.43,7.18,5.39,13.84,5.83,2.79.4,14.28,1,21.76-15.23l57.08-139.73Z"/><polygon class="cls-9" points="2222.95 2090.67 2243.71 2039.83 2137.14 2030.57 2138.99 2090.67 2222.95 2090.67"/><polygon class="cls-10" points="2112.42 1993.49 2126.33 2046.01 2259.16 2046.01 2259.16 1999.67 2112.42 1993.49"/><path class="cls-10" d="M2259.16,2049H2126.33a3,3,0,0,1-2.93-2.25l-13.91-52.52a3,3,0,0,1,.57-2.68,2.87,2.87,0,0,1,2.49-1.13l146.73,6.19a3,3,0,0,1,2.9,3V2046A3,3,0,0,1,2259.16,2049ZM2128.65,2043h127.48v-40.4l-139.73-5.89Z"/><path class="cls-11" d="M2171.13,2176a11.59,11.59,0,1,1-11.59-11.58A11.58,11.58,0,0,1,2171.13,2176Z"/><path class="cls-12" d="M2016.64,801.85,2356,844.1l-71.72-164.21s-19.24-33.24-64.71-33.24H1219c-45.47,0-64.72,33.24-64.72,33.24l-71.72,167.7,339.35-45.74v2.23L1719.28,803l297.36,1.11Z"/><path class="cls-12" d="M1082.58,850.62a3,3,0,0,1-2.78-4.22l71.71-167.7c1-1.75,20.84-35.08,67.51-35.08H2219.54c46.68,0,66.51,33.34,67.34,34.76l71.55,163.8a3,3,0,0,1,.68,1.92,3,3,0,0,1-3,3H2356l-.37,0-336.16-41.85a3.11,3.11,0,0,1-.67,1,3,3,0,0,1-2.13.88h0L1719.27,806l-297.33,1.11h0a3,3,0,0,1-2.14-.88,3,3,0,0,1-.65-1L1083,850.59A2.5,2.5,0,0,1,1082.58,850.62ZM1219,649.68c-43.23,0-61.91,31.42-62.1,31.73l-69.46,162.47,334.07-45a3,3,0,0,1,2.39.72,3.07,3.07,0,0,1,.93,1.47L1719.27,800,2013.71,801a3.22,3.22,0,0,1,.92-1.46,3,3,0,0,1,2.38-.73l334,41.58L2281.48,681.1s-18.86-31.42-61.94-31.42Z"/><g class="cls-13"><path class="cls-14" d="M2012.06,845.71l339.33-1.27-71.71-120.7s-19.24-33.23-64.72-33.23H1214.44c-45.46,0-64.71,33.23-64.71,33.23L1078,844.44l339.34,1.27v2.22l297.36-1.11,297.35,1.11Z"/><path class="cls-14" d="M2012.06,851h0l-297.35-1.11L1417.37,851h0a3,3,0,0,1-2.14-.87,3.18,3.18,0,0,1-.8-1.37L1078,847.46a3,3,0,0,1-2.58-4.57l71.71-120.69c.81-1.39,20.65-34.72,67.32-34.72H2215c46.68,0,66.52,33.33,67.34,34.75L2354,842.89a3,3,0,0,1-2.58,4.57L2015,848.72a3.16,3.16,0,0,1-.79,1.37A3.05,3.05,0,0,1,2012.06,851ZM1714.7,843.8l294.44,1.09a3,3,0,0,1,2.91-2.22l334-1.24-69-116.14c-.2-.33-19-31.74-62.12-31.74H1214.44c-43.22,0-61.91,31.4-62.09,31.71l-69,116.17,334,1.24a3.05,3.05,0,0,1,2.91,2.22Z"/></g><path class="cls-15" d="M2209.51,817.71l-42.1-70.83s-15.4-26.64-51.86-26.64H1313.86c-36.45,0-51.87,26.64-51.87,26.64l-42.09,70.83Z"/><path class="cls-15" d="M2209.51,820.73H1219.9a3,3,0,0,1-2.6-4.57l42.09-70.83c.64-1.12,16.71-28.11,54.47-28.11h801.69c37.77,0,53.82,27,54.48,28.15l42.08,70.79a3,3,0,0,1-2.6,4.57Zm-984.29-6.05h979l-39.37-66.25c-.61-1.06-15.09-25.16-49.26-25.16H1313.86c-34.16,0-48.64,24.1-49.24,25.13Z"/><polygon class="cls-16" points="1237.9 787.42 1219.9 817.71 2209.51 817.71 2191.51 787.42 1237.9 787.42"/><rect class="cls-17" x="890.93" y="1055.94" width="142.1" height="71.06"/><path class="cls-17" d="M1033,1130H890.93a3,3,0,0,1-3-3v-71.06a3,3,0,0,1,3-3H1033a3,3,0,0,1,3,3V1127A3,3,0,0,1,1033,1130ZM894,1124h136v-65H894Z"/><polygon class="cls-18" points="1033.03 1127 958.89 1127 948.59 1055.94 1033.03 1055.94 1033.03 1127"/><rect class="cls-17" x="2398.44" y="1055.94" width="142.1" height="71.06"/><path class="cls-17" d="M2540.54,1130h-142.1a3,3,0,0,1-3-3v-71.06a3,3,0,0,1,3-3h142.1a3,3,0,0,1,3,3V1127A3,3,0,0,1,2540.54,1130ZM2401.47,1124h136v-65h-136Z"/><polygon class="cls-18" points="2398.44 1127 2472.57 1127 2482.87 1055.94 2398.44 1055.94 2398.44 1127"/><path class="cls-6" d="M1715.75,906.33v-1.77l-45.74,1-52.09-1v2L965.06,920s95.77,966.9,98.87,976.16,0,95.77,108.11,111.22h1094.6c108.12-15.45,105-102,108.12-111.22S2473.61,920,2473.61,920Z"/><path class="cls-19" d="M2266.64,2010.43H1172c-98.07-14-107.13-84.45-110.09-107.6a49.12,49.12,0,0,0-.9-5.69c-3.11-9.31-89.19-877.82-99-976.82a3,3,0,0,1,.74-2.31,3.06,3.06,0,0,1,2.2-1l650-13.37a3,3,0,0,1,2.92-2.08l52.1.94,45.62-.94a2.8,2.8,0,0,1,2.18.86,3,3,0,0,1,.66,1L2473.66,917a3.05,3.05,0,0,1,2.21,1,3,3,0,0,1,.75,2.31c-9.81,99-95.88,967.51-99,976.82a49.41,49.41,0,0,0-.9,5.7c-3,23.15-12,93.61-109.67,107.56ZM968.4,923c33,333,95.54,960.17,98.43,972.38a40.94,40.94,0,0,1,1.12,6.7c2.83,22,11.43,89,104.52,102.34l1094,0c92.88-13.37,101.47-80.31,104.3-102.31a45,45,0,0,1,1.16-6.84c2.85-12.07,65.41-639.28,98.39-972.24l-754.58-13.63a3,3,0,0,1-2.68-1.71l-42.93.89-49.31-.9a3,3,0,0,1-2.77,2Z"/><path class="cls-20" d="M1715.75,906.38V904.6l-45.74.95-52.09-.95,0,2L965.07,920.06s95.76,966.9,98.86,976.16,0,95.78,108.12,111.22H2266.64c108.12-15.44,105-102,108.12-111.22s98.85-976.16,98.85-976.16Z"/><path class="cls-20" d="M2266.64,2010.43H1172c-98.07-14-107.13-84.45-110.09-107.6a49.12,49.12,0,0,0-.9-5.69c-3.11-9.31-89.19-877.82-99-976.82a3,3,0,0,1,.74-2.31,3.06,3.06,0,0,1,2.2-1l650-13.37a3,3,0,0,1,2.92-2.08l52.1.94,45.62-.94a2.8,2.8,0,0,1,2.18.86,3,3,0,0,1,.66,1L2473.66,917a3.05,3.05,0,0,1,2.21,1,3,3,0,0,1,.75,2.31c-9.81,99-95.88,967.51-99,976.82a49.41,49.41,0,0,0-.9,5.7c-3,23.15-12,93.61-109.67,107.56ZM968.4,923c33,333,95.54,960.17,98.43,972.38a40.94,40.94,0,0,1,1.12,6.7c2.83,22,11.43,89,104.52,102.34l1094,0c92.88-13.37,101.47-80.31,104.3-102.31a45,45,0,0,1,1.16-6.84c2.85-12.07,65.41-639.28,98.39-972.24l-754.58-13.63a3,3,0,0,1-2.68-1.71l-42.93.89-49.31-.9a3,3,0,0,1-2.77,2Z"/><path class="cls-21" d="M1715.75,906.33v-1.77l-45.74,1-52.09-1v2L965.06,920s1.68,16.94,4.6,46.33H2149.35S2224,965.41,2224,1028l-52.9,869.94s2.43,93.83-284.18,109.49h379.69c108.12-15.45,105-102,108.12-111.22S2473.61,920,2473.61,920Z"/><path class="cls-22" d="M968.18,951.36H2470.5c2-20.07,3.11-31.34,3.11-31.34l-757.86-13.69v-1.77l-45.74,1-52.09-1v2L965.06,920S966.19,931.29,968.18,951.36Z"/><path class="cls-23" d="M983.61,969.45l92.67,874.22s-3.08,139,135.92,148.28h590l-447.67-39.56s-175.39-23.59-197-168.78-78-817.26-78-817.26Z"/><polygon class="cls-12" points="1095.19 921.56 1112.19 1018.87 1127.63 1018.87 1137.68 920.02 1095.19 921.56"/><path class="cls-12" d="M1127.63,1021.89h-15.44a3,3,0,0,1-3-2.5l-17-97.31a3,3,0,0,1,2.87-3.55l42.49-1.54a2.85,2.85,0,0,1,2.32,1,3,3,0,0,1,.8,2.38l-10,98.84A3,3,0,0,1,1127.63,1021.89Zm-12.9-6h10.17l9.42-92.67-35.55,1.29Z"/><polygon class="cls-12" points="1394.84 921.56 1411.84 1018.87 1427.29 1018.87 1437.32 920.02 1394.84 921.56"/><path class="cls-12" d="M1427.29,1021.89h-15.45a3,3,0,0,1-3-2.5l-17-97.31a3,3,0,0,1,2.87-3.55L1437.2,917a2.91,2.91,0,0,1,2.33,1,3,3,0,0,1,.8,2.38l-10,98.84A3,3,0,0,1,1427.29,1021.89Zm-12.91-6h10.18l9.39-92.67-35.53,1.29Z"/><polygon class="cls-12" points="1694.5 921.56 1711.48 1018.87 1726.94 1018.87 1736.97 920.02 1694.5 921.56"/><path class="cls-12" d="M1726.94,1021.89h-15.46a3,3,0,0,1-3-2.5l-17-97.31a3,3,0,0,1,2.87-3.55l42.47-1.54a3,3,0,0,1,2.32,1,3,3,0,0,1,.8,2.38l-10,98.84A3,3,0,0,1,1726.94,1021.89Zm-12.92-6h10.18l9.41-92.67-35.53,1.29Z"/><polygon class="cls-12" points="1994.16 921.56 2011.13 1018.87 2026.58 1018.87 2036.62 920.02 1994.16 921.56"/><path class="cls-12" d="M2026.58,1021.89h-15.45a3,3,0,0,1-3-2.5l-17-97.31a3,3,0,0,1,2.87-3.55l42.46-1.54a2.86,2.86,0,0,1,2.33,1,3,3,0,0,1,.79,2.38l-10,98.84A3,3,0,0,1,2026.58,1021.89Zm-12.91-6h10.18l9.4-92.67-35.52,1.29Z"/><polygon class="cls-12" points="2293.79 921.56 2310.78 1018.87 2326.23 1018.87 2336.26 920.02 2293.79 921.56"/><path class="cls-12" d="M2326.23,1021.89h-15.45a3,3,0,0,1-3-2.5l-17-97.31a3,3,0,0,1,2.87-3.55l42.47-1.54a2.9,2.9,0,0,1,2.32,1,3,3,0,0,1,.8,2.38l-10,98.84A3,3,0,0,1,2326.23,1021.89Zm-12.9-6h10.16l9.4-92.67-35.53,1.29Z"/><rect class="cls-24" x="943.69" y="880.09" width="1542.51" height="39.4"/><path class="cls-24" d="M2486.21,922.51H943.69a3,3,0,0,1-3-3v-39.4a3,3,0,0,1,3-3H2486.21a3,3,0,0,1,3,3v39.4A3,3,0,0,1,2486.21,922.51Zm-1539.49-6H2483.18V883.12H946.72Z"/><rect class="cls-12" x="930.55" y="904.56" width="1568.8" height="27.82"/><path class="cls-12" d="M2499.35,935.41H930.55a3,3,0,0,1-3-3V904.56a3,3,0,0,1,3-3h1568.8a3,3,0,0,1,3,3v27.82A3,3,0,0,1,2499.35,935.41ZM933.58,929.35H2496.32V907.59H933.58Z"/><rect class="cls-12" x="930.55" y="841.48" width="1568.8" height="47.37"/><path class="cls-12" d="M2499.35,891.88H930.55a3,3,0,0,1-3-3V841.48a3,3,0,0,1,3-3h1568.8a3,3,0,0,1,3,3v47.36A3,3,0,0,1,2499.35,891.88ZM933.58,885.82H2496.32V844.51H933.58Z"/><rect class="cls-25" x="930.55" y="841.48" width="1568.8" height="12.08"/><path class="cls-26" d="M1108.58,819.94l56-94.44s22.74-31.48,78.71-29.73h547.48L1287,706.25s-15.73-5.25-33.23,14-56,98-56,98Z"/><path class="cls-27" d="M2213,666.64h38.51A139.39,139.39,0,0,0,2213,666.64Z"/><path class="cls-28" d="M2280.73,727.8s-19.25-33.23-64.72-33.23h-45.25c14.36,2.09,29.6,8.06,39.8,21,93.77,119.58,42.34,115.71,42.34,115.71H1089.25l-10.2,17.16,339.35,1.27V852l297.35-1.11L2013.11,852v-2.23l339.33-1.27Z"/><path class="cls-2" d="M1376.3,2188.91a98.86,98.86,0,1,1-98.85-98.86A98.85,98.85,0,0,1,1376.3,2188.91Z"/><path class="cls-3" d="M1277.45,2290.78a101.88,101.88,0,1,1,101.87-101.87A102,102,0,0,1,1277.45,2290.78Zm0-197.71a95.83,95.83,0,1,0,95.82,95.84A95.95,95.95,0,0,0,1277.45,2093.07Z"/><path class="cls-4" d="M1338.21,2188.91a60.76,60.76,0,1,1-60.76-60.77A60.76,60.76,0,0,1,1338.21,2188.91Z"/><path class="cls-5" d="M1307.58,2192.76a30.13,30.13,0,1,1-30.13-30.12A30.13,30.13,0,0,1,1307.58,2192.76Z"/><path class="cls-6" d="M1254.28,2045.24l4.63,149.84s-4.63,18.53,18.54,20.07c0,0,15.44,3.1,24.71-17l58.69-143.66Z"/><path class="cls-7" d="M1279.74,2218.35h0a15.43,15.43,0,0,1-2.89-.23c-8.16-.52-14.34-3.33-18-8.3-4.39-6-3.39-13.13-3-15l-4.62-149.47a3,3,0,0,1,3.28-3.11l106.58,9.26a3.08,3.08,0,0,1,2.33,1.44,3,3,0,0,1,.21,2.73L1305,2199.31C1297,2216.51,1284.68,2218.35,1279.74,2218.35Zm-22.33-169.79,4.52,146.42a3.29,3.29,0,0,1-.08.83s-1.37,6,2,10.49c2.52,3.43,7.17,5.38,13.83,5.83,2.79.39,14.28,1,21.76-15.24l57.09-139.72Z"/><path class="cls-8" d="M1254.29,2045.37l4.64,149.83s-4.64,18.53,18.54,20.07c0,0,15.44,3.1,24.71-17l58.69-143.66Z"/><path class="cls-8" d="M1279.76,2218.48h0a14.68,14.68,0,0,1-2.89-.24c-8.16-.51-14.34-3.32-18-8.29-4.39-6-3.39-13.14-3-15l-4.63-149.47a3.11,3.11,0,0,1,1-2.29,3,3,0,0,1,2.34-.81l106.57,9.26a3,3,0,0,1,2.55,4.16L1305,2199.44C1297.05,2216.63,1284.7,2218.48,1279.76,2218.48Zm-22.33-169.79,4.52,146.42a3.22,3.22,0,0,1-.08.82c0,.05-1.38,6,2,10.49,2.53,3.43,7.18,5.38,13.84,5.83,2.79.39,14.28,1,21.76-15.23l57.08-139.73Z"/><polygon class="cls-9" points="1340.09 2105.35 1360.85 2054.51 1254.28 2045.24 1256.13 2105.35 1340.09 2105.35"/><polygon class="cls-10" points="1229.56 2008.17 1243.46 2060.69 1376.3 2060.69 1376.3 2014.35 1229.56 2008.17"/><path class="cls-10" d="M1376.3,2063.72H1243.47a3,3,0,0,1-2.94-2.25l-13.9-52.52a3,3,0,0,1,.57-2.68,2.86,2.86,0,0,1,2.48-1.13l146.74,6.19a3,3,0,0,1,2.9,3v46.34A3,3,0,0,1,1376.3,2063.72Zm-130.51-6.06h127.48v-40.4l-139.73-5.89Z"/><path class="cls-11" d="M1288.27,2190.69a11.59,11.59,0,1,1-11.59-11.58A11.58,11.58,0,0,1,1288.27,2190.69Z"/><path class="cls-29" d="M1734,1265.12c.65.8,1.27,1.66,1.88,2.46q12.61,17.14,24.38,34.84c2.46,3.67,4.69,7.44,6.86,11.24-8.29,3.84-16.58,7.61-25,11.21a.72.72,0,0,1-.32-.17c-1.22.61-2.47,1.27-3.68,2,8.06,4.48,17.2,7.87,25.45,11.19,14.21,5.77,28.56,11,42.52,17.26,12.95,5.7,26.34,10.53,39.75,15v.05a18.47,18.47,0,0,1,2.3.49c.47-1.4.81-2.8,1.35-4.16h-.08c2.78-8.77,5.67-17.49,8.59-26.15q5.1-15.21,10.31-30.27a45.38,45.38,0,0,1,3.22-9.47c2.13-6,4.09-11.91,6.15-17.83,1.57-4.46,3.12-8.83,4.71-13.23a1.41,1.41,0,0,1,.28-.23c.45-1.24,1-2.48,1.39-3.61a1.74,1.74,0,0,1-.14-.27,60.87,60.87,0,0,1-8.73,3.39c-6.76,3.18-14,5.7-21,8.35-6.57-9.16-13-18.31-19.51-27.57s-13.3-18.8-21.23-27.08c-3.23-3.34-8.19-5.92-11.74-9-2.52-2.15-7.38-2.84-8.45-2.9-21.17-1-42.56.63-63.72,1.23-17.43.56-34.71-1.12-52.33.81-4-.47-12-.25-16.44,1.84a23.5,23.5,0,0,0-6.34,4.61c-.1.11-.2.34-.32.46a1.7,1.7,0,0,0-.59.42c-16.31,14.69-28.84,33.21-42.85,50-4.77,5.67-9.54,11.32-14.22,17,.91.67,1.79,1.41,2.66,2.07l.21-.23c13.55,8.74,26.27,19.55,39.21,29.14,12.06,8.88,23.81,19.6,37,26.91v.12c1.89,1.18,3.73,2.41,5.45,3.66.71-1.18,1.46-2.43,2.18-3.71,5.52-9.65,11.83-18.8,17.64-28.28,5.49-8.93,10.84-17.89,16.32-26.81C1722.31,1281.63,1727.47,1272.42,1734,1265.12Zm-52.09-43.46c-3.81-1.2-9.62-4.05-13.58-2.7-2.56.87-1.46.82-4,.54-.34-.11-.24-.63.11-.7,3.16-.38,5.22-2.42,8.52-1.94,2.58.37,5.06.92,7.59,1.47a46.12,46.12,0,0,1,17.2,8.23,174.23,174.23,0,0,1,34.21,34.19c.54.8-.75,2.31-1.55,1.54-4.86-4.66-8.69-10.31-13.81-14.84-5.51-4.85-10.88-9.91-16.43-14.6C1694.72,1228.34,1688.8,1223.8,1681.92,1221.66Z"/><path class="cls-29" d="M1944.39,1440.43a1.89,1.89,0,0,0-.21-.54,1.05,1.05,0,0,0,0-.7c-4-21.59-13.45-41.84-20.48-62.51-2.44-7.06-4.75-14-7.21-21-1,.33-2.1.75-3.12,1.19,0,.1.08.15.08.33-14.47,7-30.29,12.32-45.22,18.4-13.86,5.71-29.1,10.28-42.18,17.77l-.09-.07c-2,1-4,1.85-6.06,2.72.74,1.28,1.47,2.52,2.13,3.76,5.39,9.8,10,19.92,15.07,29.83,4.79,9.32,9.68,18.46,14.39,27.79,4.37,8.65,9.56,17.81,12.43,27.14-1.05.16-2.07.26-3.11.37-14.1,1.29-28.26,2.16-42.39,2.87-4.41.15-8.78.09-13.19,0,1-9.06,2.08-18.11,3.33-27.16.17,0,.23-.16.31-.21.11-1.39.19-2.74.21-4.14-7.92,4.56-15.58,10.66-22.75,15.93-12.18,9.21-24.18,18.73-36.69,27.52-11.64,8.07-22.71,17.07-33.48,26.17h0c-.54.6-1.06,1.18-1.6,1.72.94,1.08,1.92,2.16,2.83,3.29h0c6.1,6.89,12,13.83,18,20.84q10.25,12.18,20.47,24.5a37.35,37.35,0,0,1,6.4,7.7c4.06,4.84,8.12,9.63,12.17,14.42,3,3.67,5.91,7.27,8.88,10.93,0,.12,0,.28,0,.33.81,1.08,1.55,2,2.33,3.07h.35a49.36,49.36,0,0,1,1.56-9.17c.8-7.42,2.35-15,3.79-22.33,11.15-.91,22.36-1.67,33.59-2.43,11.48-.87,23-1.62,34.21-4.21,4.53-1,9.34-3.93,13.79-5.32,3.16-1,6.35-4.85,6.87-5.7,11.76-17.61,21.48-36.73,31.94-55.2,8.64-15.13,19-29.07,26.41-45.13,2.57-3.21,6.46-10.17,7-15A21.44,21.44,0,0,0,1944.39,1440.43Zm-5.14,13.62c-8.11,10.88-15.27,20.24-28.36,25.31a92.58,92.58,0,0,1-38.76,5.82c-1.49-.07-.85-2.15.23-2.43,12.47-2.31,25.38-2.74,37.35-7.39,12.35-4.77,19.94-12.49,28.87-21.91C1939,1453,1939.65,1453.45,1939.25,1454.05Z"/><path class="cls-29" d="M1707.05,1490.4c-.15-2.21-.15-4.42-.15-6.56-1.37.1-2.81.16-4.25.37-11.13,1-22.26,1.18-33.35,1.82-10.44.75-20.83,1.51-31.2,2.16-9.72.54-20.18,1.56-29.9.43.34-1,.62-2,.94-3,4.47-13.39,9.3-26.75,14.35-39.94,1.58-4.14,3.44-8.08,5.28-12.07q11.84,6.78,23.54,13.94a1.34,1.34,0,0,1,0,.33c1.27.65,2.5,1.31,3.74,1.89-1-9.11-3.53-18.48-5.55-27.25-3.43-14.86-7.44-29.62-10.45-44.69-2.76-13.84-6.52-27.58-10.57-41.15h.06a13.6,13.6,0,0,1-1-2.14c-1.36.43-2.78.92-4.13,1.29v.11c-8.8,2.68-17.53,5.44-26.36,8.07-10.15,3-20.39,5.92-30.61,9a40.7,40.7,0,0,1-9.66,2.79c-6,1.78-12,3.56-18.12,5.28-4.52,1.29-9,2.58-13.48,3.82a1,1,0,0,1-.41-.11c-1.21.32-2.45.6-3.7,1,0,0-.09.23-.13.28a51,51,0,0,1,7.77,5.1c6.56,3.77,12.79,8.14,19,12.39-3.65,10.6-7.44,21.22-11.23,31.76-3.85,10.82-7.75,21.77-9.92,33.08-.86,4.51-.11,10.06-.55,14.7-.31,3.33,1.88,7.75,2.46,8.61,11.44,17.88,25.09,34.46,37.72,51.36,10.48,14,19.13,29,30.83,42.28,1.92,3.67,6.79,10,11,12.44a20.9,20.9,0,0,0,7.38,2.42h.63a1,1,0,0,0,.63.32c21.43,4.9,43.74,4.36,65.55,6.19,7.32.6,14.69,1.35,22,1.82,0-1.06.11-2.2.12-3.33a.54.54,0,0,0-.18,0c-.79-16.06.7-32.74,1.08-48.84.36-15,2.32-30.76.67-45.72C1707.05,1490.45,1707.05,1490.4,1707.05,1490.4Zm-102.67-3c-14.38,2.26-32-.11-45.84-4.14-11.16-3.29-26.5-7.06-29.56-20-.08-.22.37-.54.44-.22,5.51,11.56,21.85,15.35,33.5,18,13.86,3,27.58,2.68,41.67,3.76C1606.1,1485,1605.58,1487.22,1604.38,1487.44Z"/></g></g></svg>