<svg xmlns="http://www.w3.org/2000/svg" viewBox="0 0 3061.42 3061.42"><defs><style>.cls-1{isolation:isolate;}.cls-2{fill:#505250;}.cls-3{fill:#231f20;}.cls-4{fill:#2a2b2a;}.cls-5{fill:#1d1d1b;}.cls-6{fill:#72bf44;}.cls-7{fill:#039447;}.cls-8{fill:#828282;}.cls-21,.cls-9{fill:#191c17;}.cls-16,.cls-18,.cls-22,.cls-27,.cls-9{mix-blend-mode:multiply;}.cls-10{fill:#6f706f;}.cls-11{fill:#050606;}.cls-12,.cls-25,.cls-27{fill:#8b5e3c;}.cls-13{opacity:0;}.cls-14{fill:#fcee21;}.cls-15{fill:#878787;}.cls-16{fill:#1c1e1b;}.cls-16,.cls-23,.cls-25,.cls-26,.cls-27{opacity:0.5;}.cls-17,.cls-18{fill:#757576;}.cls-19{fill:#01ae4d;}.cls-20{fill:#0b0b0b;}.cls-22{fill:#3d3d3d;}.cls-23{fill:#3f443b;}.cls-23,.cls-25,.cls-26{mix-blend-mode:color-dodge;}.cls-24{fill:#444545;}.cls-26{fill:#27aae1;}.cls-28{fill:#fff;}</style></defs><g class="cls-1"><g id="Layer_1" data-name="Layer 1"><path class="cls-2" d="M2070.54,2271.78a98.86,98.86,0,1,1-98.85-98.85A98.85,98.85,0,0,1,2070.54,2271.78Z"/><path class="cls-3" d="M1971.69,2373.65a101.88,101.88,0,1,1,101.87-101.87A102,102,0,0,1,1971.69,2373.65Zm0-197.7a95.83,95.83,0,1,0,95.82,95.83A95.95,95.95,0,0,0,1971.69,2176Z"/><path class="cls-4" d="M2032.45,2271.78a60.76,60.76,0,1,1-60.76-60.77A60.76,60.76,0,0,1,2032.45,2271.78Z"/><path class="cls-5" d="M2001.82,2275.64a30.13,30.13,0,1,1-30.13-30.12A30.14,30.14,0,0,1,2001.82,2275.64Z"/><path class="cls-6" d="M1948.51,2128.12l4.64,149.83s-4.64,18.53,18.54,20.07c0,0,15.44,3.11,24.71-17l58.69-143.66Z"/><path class="cls-7" d="M1974,2301.23h0a14.68,14.68,0,0,1-2.89-.24c-8.16-.51-14.34-3.32-18-8.29-4.39-6-3.39-13.14-3-15l-4.63-149.47a3.11,3.11,0,0,1,1-2.29,3,3,0,0,1,2.34-.81l106.57,9.26a3,3,0,0,1,2.55,4.16l-58.69,143.66C1991.27,2299.38,1978.92,2301.23,1974,2301.23Zm-22.34-169.79,4.53,146.42a3.22,3.22,0,0,1-.08.82c0,.05-1.38,6,2,10.49,2.53,3.43,7.17,5.38,13.84,5.83,2.79.4,14.28,1,21.76-15.23L2050.73,2140Z"/><path class="cls-8" d="M1948.53,2128.25l4.64,149.83s-4.64,18.53,18.53,20.07c0,0,15.44,3.1,24.71-17l58.7-143.66Z"/><path class="cls-8" d="M1974,2301.35h0a15.43,15.43,0,0,1-2.89-.23c-8.16-.52-14.33-3.32-18-8.3-4.39-6-3.38-13.13-3-15l-4.63-149.47a3,3,0,0,1,1-2.29,3.09,3.09,0,0,1,2.34-.82l106.57,9.26a3,3,0,0,1,2.55,4.17l-58.69,143.65C1991.28,2299.51,1978.94,2301.35,1974,2301.35Zm-22.33-169.79,4.53,146.43a2.87,2.87,0,0,1-.09.82c0,.05-1.37,6,2,10.49,2.52,3.43,7.17,5.38,13.84,5.83,2.79.39,14.28,1,21.76-15.23l57.08-139.73Z"/><polygon class="cls-9" points="2034.32 2188.23 2055.09 2137.38 1948.51 2128.12 1950.37 2188.23 2034.32 2188.23"/><polygon class="cls-10" points="1923.8 2091.04 1937.7 2143.57 2070.54 2143.57 2070.54 2097.23 1923.8 2091.04"/><path class="cls-10" d="M2070.54,2146.6H1937.7a3,3,0,0,1-2.93-2.25l-13.9-52.53a3,3,0,0,1,.57-2.67,2.83,2.83,0,0,1,2.48-1.13l146.74,6.19a3,3,0,0,1,2.9,3v46.34A3,3,0,0,1,2070.54,2146.6ZM1940,2140.54h127.48v-40.4l-139.73-5.9Z"/><path class="cls-11" d="M1982.51,2273.56a11.59,11.59,0,1,1-11.59-11.57A11.59,11.59,0,0,1,1982.51,2273.56Z"/><path class="cls-12" d="M1828,899.41l339.33,42.24-71.71-164.2s-19.24-33.25-64.72-33.25H1030.39c-45.46,0-64.71,33.25-64.71,33.25L894,945.15l339.34-45.74v2.23l297.36-1.11L1828,901.64Z"/><path class="cls-12" d="M894,948.18a3,3,0,0,1-2.79-4.22l71.72-167.7c1-1.75,20.83-35.08,67.5-35.08H2030.91c46.68,0,66.52,33.34,67.34,34.76l71.56,163.8a3,3,0,0,1-2.35,4.94h-.12a2.31,2.31,0,0,1-.37,0l-336.16-41.84a3.32,3.32,0,0,1-.66,1,3.06,3.06,0,0,1-2.14.88h0l-297.35-1.11-297.33,1.11h0a3,3,0,0,1-2.13-.88,2.82,2.82,0,0,1-.65-1L894.36,948.15A2.5,2.5,0,0,1,894,948.18Zm136.43-200.95c-43.22,0-61.91,31.42-62.09,31.74L898.84,941.44l334.06-45a3,3,0,0,1,2.39.72,3.08,3.08,0,0,1,.94,1.47l294.42-1.1,294.44,1.1a3.17,3.17,0,0,1,.92-1.47,3,3,0,0,1,2.37-.73L2162.44,938l-69.59-159.33s-18.86-31.43-61.94-31.43Z"/><g class="cls-13"><path class="cls-14" d="M1823.44,943.26,2162.77,942l-71.71-120.7s-19.24-33.23-64.72-33.23H1025.82c-45.47,0-64.72,33.23-64.72,33.23L889.38,942l339.35,1.26v2.23l297.35-1.11,297.36,1.11Z"/><path class="cls-14" d="M1823.44,948.52h0l-297.35-1.11-297.34,1.11h0a3.06,3.06,0,0,1-2.94-2.24L889.37,945a3.06,3.06,0,0,1-2.62-1.54,3,3,0,0,1,0-3l71.71-120.7c.81-1.39,20.65-34.71,67.32-34.71H2026.34c46.68,0,66.51,33.33,67.34,34.74l71.69,120.67a3,3,0,0,1-2.59,4.57l-336.41,1.26a3,3,0,0,1-.8,1.36A3,3,0,0,1,1823.44,948.52Zm-297.36-7.16,294.44,1.09a3,3,0,0,1,2.91-2.22l334-1.25-69-116.13c-.2-.34-19-31.75-62.12-31.75H1025.82c-43.22,0-61.91,31.4-62.1,31.72L894.7,939l334,1.25a3,3,0,0,1,2.91,2.22Z"/></g><path class="cls-15" d="M2020.89,915.27l-42.1-70.83s-15.41-26.64-51.86-26.64H1125.24c-36.45,0-51.87,26.64-51.87,26.64l-42.09,70.83Z"/><path class="cls-15" d="M2020.89,918.29H1031.28a3,3,0,0,1-2.6-4.57l42.09-70.83c.64-1.12,16.7-28.11,54.47-28.11h801.69c37.76,0,53.81,27,54.47,28.14l42.09,70.8a3,3,0,0,1-2.6,4.57Zm-984.29-6h979L1976.18,846c-.61-1.06-15.09-25.16-49.25-25.16H1125.24c-34.16,0-48.65,24.1-49.25,25.12Z"/><polygon class="cls-16" points="1049.28 884.98 1031.28 915.27 2020.89 915.27 2002.88 884.98 1049.28 884.98"/><rect class="cls-17" x="702.31" y="1153.5" width="142.1" height="71.06"/><path class="cls-17" d="M844.41,1227.58H702.31a3,3,0,0,1-3-3v-71a3,3,0,0,1,3-3h142.1a3,3,0,0,1,3,3v71A3,3,0,0,1,844.41,1227.58Zm-139.07-6.06h136v-65h-136Z"/><polygon class="cls-18" points="844.41 1224.55 770.27 1224.55 759.97 1153.5 844.41 1153.5 844.41 1224.55"/><rect class="cls-17" x="2209.82" y="1153.5" width="142.1" height="71.06"/><path class="cls-17" d="M2351.91,1227.58H2209.82a3,3,0,0,1-3-3v-71a3,3,0,0,1,3-3h142.09a3,3,0,0,1,3,3v71A3,3,0,0,1,2351.91,1227.58Zm-139.06-6.06h136v-65h-136Z"/><polygon class="cls-18" points="2209.82 1224.55 2283.95 1224.55 2294.24 1153.5 2209.82 1153.5 2209.82 1224.55"/><path class="cls-6" d="M1527.12,1003.89v-1.77l-45.73.94-52.1-.94,0,2-652.87,13.44s95.76,966.9,98.86,976.16,0,95.77,108.12,111.22H2078c108.11-15.45,105-102,108.11-111.22S2285,1017.58,2285,1017.58Z"/><path class="cls-19" d="M2078,2108H983.42c-98.08-14-107.13-84.45-110.09-107.61a51.91,51.91,0,0,0-.9-5.69c-3.12-9.3-89.19-877.82-99-976.82a3,3,0,0,1,3-3.32l650-13.37a2.82,2.82,0,0,1,.74-1.21,3.05,3.05,0,0,1,2.18-.88l52.1.94,45.62-.94a2.82,2.82,0,0,1,2.18.87,3,3,0,0,1,.66.95L2285,1014.55a3,3,0,0,1,3,3.32c-9.81,99-95.88,967.52-99,976.82a48.18,48.18,0,0,0-.89,5.7c-3,23.16-12,93.61-109.67,107.57ZM779.78,1020.54c33,332.94,95.54,960.17,98.43,972.38a42.88,42.88,0,0,1,1.12,6.69c2.83,22,11.43,89,104.52,102.35l1094,0c92.88-13.37,101.47-80.31,104.3-102.31a42.73,42.73,0,0,1,1.16-6.84c2.84-12.06,65.41-639.27,98.39-972.23l-754.59-13.63a3,3,0,0,1-2.67-1.71l-42.93.89-49.31-.9a3,3,0,0,1-2.77,2Z"/><path class="cls-20" d="M1527.13,1003.93v-1.77l-45.74,1-52.09-1v2l-652.87,13.43s95.77,966.9,98.87,976.16,0,95.77,108.11,111.22H2078c108.12-15.45,105-102,108.12-111.22S2285,1017.62,2285,1017.62Z"/><path class="cls-20" d="M2078,2108H983.42c-98.08-14-107.13-84.45-110.09-107.61a51.91,51.91,0,0,0-.9-5.69c-3.12-9.3-89.19-877.82-99-976.82a3,3,0,0,1,3-3.32l650-13.37a2.82,2.82,0,0,1,.74-1.21,3.05,3.05,0,0,1,2.18-.88l52.1.94,45.62-.94a2.82,2.82,0,0,1,2.18.87,3,3,0,0,1,.66.95L2285,1014.55a3,3,0,0,1,3,3.32c-9.81,99-95.88,967.52-99,976.82a48.18,48.18,0,0,0-.89,5.7c-3,23.16-12,93.61-109.67,107.57ZM779.78,1020.54c33,332.94,95.54,960.17,98.43,972.38a42.88,42.88,0,0,1,1.12,6.69c2.83,22,11.43,89,104.52,102.35l1094,0c92.88-13.37,101.47-80.31,104.3-102.31a42.73,42.73,0,0,1,1.16-6.84c2.84-12.06,65.41-639.27,98.39-972.23l-754.59-13.63a3,3,0,0,1-2.67-1.71l-42.93.89-49.31-.9a3,3,0,0,1-2.77,2Z"/><path class="cls-21" d="M1527.12,1003.89v-1.77l-45.73.94-52.1-.94,0,2-652.87,13.44s1.68,16.93,4.59,46.33H1960.72s74.69-.94,74.69,61.62l-52.9,869.94s2.43,93.83-284.19,109.49H2078c108.11-15.45,105-102,108.11-111.22S2285,1017.58,2285,1017.58Z"/><path class="cls-22" d="M779.55,1048.92H2281.87c2-20.07,3.11-31.34,3.11-31.34l-757.86-13.69v-1.77l-45.73.94-52.1-.94,0,2-652.87,13.44S777.57,1028.85,779.55,1048.92Z"/><path class="cls-23" d="M795,1067l92.67,874.23s-3.09,139,135.92,148.28h590L1165.93,2050s-175.38-23.59-197-168.79-78-817.25-78-817.25Z"/><polygon class="cls-12" points="906.57 1019.11 923.56 1116.43 939.01 1116.43 949.06 1017.58 906.57 1019.11"/><path class="cls-12" d="M939,1119.45H923.56a3,3,0,0,1-3-2.51l-17-97.3a3,3,0,0,1,.62-2.43,3.09,3.09,0,0,1,2.25-1.13l42.49-1.53a2.82,2.82,0,0,1,2.31,1,3,3,0,0,1,.8,2.39l-10,98.84A3,3,0,0,1,939,1119.45Zm-12.9-6h10.16l9.42-92.68L910.14,1022Z"/><polygon class="cls-12" points="1206.22 1019.11 1223.22 1116.43 1238.66 1116.43 1248.69 1017.58 1206.22 1019.11"/><path class="cls-12" d="M1238.66,1119.45h-15.44a3,3,0,0,1-3-2.51l-17-97.3a3,3,0,0,1,.64-2.43,3,3,0,0,1,2.23-1.13l42.48-1.53a2.9,2.9,0,0,1,2.33,1,3.06,3.06,0,0,1,.79,2.39l-10,98.84A3,3,0,0,1,1238.66,1119.45Zm-12.91-6h10.18l9.39-92.68L1209.8,1022Z"/><polygon class="cls-12" points="1505.88 1019.11 1522.85 1116.43 1538.31 1116.43 1548.35 1017.58 1505.88 1019.11"/><path class="cls-12" d="M1538.31,1119.45h-15.46a3,3,0,0,1-3-2.51l-17-97.3a3,3,0,0,1,.63-2.43,3,3,0,0,1,2.23-1.13l42.48-1.53a3,3,0,0,1,2.32,1,3,3,0,0,1,.79,2.39l-10,98.84A3,3,0,0,1,1538.31,1119.45Zm-12.91-6h10.18l9.4-92.68-35.52,1.29Z"/><polygon class="cls-12" points="1805.53 1019.11 1822.51 1116.43 1837.96 1116.43 1848 1017.58 1805.53 1019.11"/><path class="cls-12" d="M1838,1119.45h-15.45a3,3,0,0,1-3-2.51l-17-97.3a3,3,0,0,1,.63-2.43,3.07,3.07,0,0,1,2.24-1.13l42.46-1.53a2.85,2.85,0,0,1,2.33,1,3.07,3.07,0,0,1,.8,2.39l-10,98.84A3,3,0,0,1,1838,1119.45Zm-12.91-6h10.17l9.41-92.68-35.52,1.29Z"/><polygon class="cls-12" points="2105.17 1019.11 2122.16 1116.43 2137.6 1116.43 2147.64 1017.58 2105.17 1019.11"/><path class="cls-12" d="M2137.6,1119.45h-15.44a3,3,0,0,1-3-2.51l-17-97.3a3,3,0,0,1,.63-2.43,3.07,3.07,0,0,1,2.24-1.13l42.47-1.53a2.87,2.87,0,0,1,2.32,1,3,3,0,0,1,.8,2.39l-10,98.84A3,3,0,0,1,2137.6,1119.45Zm-12.9-6h10.17l9.4-92.68-35.53,1.29Z"/><rect class="cls-24" x="755.07" y="977.65" width="1542.51" height="39.4"/><path class="cls-24" d="M2297.58,1020.07H755.07a3,3,0,0,1-3-3v-39.4a3,3,0,0,1,3-3H2297.58a3,3,0,0,1,3,3v39.4A3,3,0,0,1,2297.58,1020.07ZM758.1,1014H2294.56V980.68H758.1Z"/><rect class="cls-12" x="741.92" y="1002.12" width="1568.8" height="27.82"/><path class="cls-12" d="M2310.72,1033H741.92a3,3,0,0,1-3-3v-27.81a3,3,0,0,1,3-3h1568.8a3,3,0,0,1,3,3v27.81A3,3,0,0,1,2310.72,1033Zm-1565.77-6H2307.69v-21.76H745Z"/><rect class="cls-12" x="741.92" y="939.03" width="1568.8" height="47.37"/><path class="cls-12" d="M2310.72,989.43H741.92a3,3,0,0,1-3-3V939a3,3,0,0,1,3-3h1568.8a3,3,0,0,1,3,3V986.4A3,3,0,0,1,2310.72,989.43ZM745,983.38H2307.69V942.07H745Z"/><rect class="cls-25" x="741.92" y="939.03" width="1568.8" height="12.08"/><path class="cls-26" d="M920,917.5l56-94.45s22.73-31.48,78.71-29.73h547.48l-503.76,10.49s-15.73-5.25-33.24,14-56,98-56,98Z"/><path class="cls-12" d="M2024.34,764.19h38.5A139.77,139.77,0,0,0,2024.34,764.19Z"/><path class="cls-27" d="M2092.1,825.35s-19.24-33.23-64.71-33.23h-45.26c14.37,2.09,29.61,8.07,39.8,21.06,93.78,119.57,42.35,115.7,42.35,115.7H900.62l-10.19,17.17,339.34,1.26v2.23l297.36-1.11,297.35,1.11v-2.23l339.33-1.26Z"/><path class="cls-2" d="M1187.68,2286.46a98.86,98.86,0,1,1-98.85-98.85A98.85,98.85,0,0,1,1187.68,2286.46Z"/><path class="cls-3" d="M1088.83,2388.33a101.88,101.88,0,1,1,101.87-101.87A102,102,0,0,1,1088.83,2388.33Zm0-197.7a95.83,95.83,0,1,0,95.81,95.83A95.95,95.95,0,0,0,1088.83,2190.63Z"/><path class="cls-4" d="M1149.59,2286.46a60.76,60.76,0,1,1-60.76-60.77A60.76,60.76,0,0,1,1149.59,2286.46Z"/><path class="cls-5" d="M1119,2290.32a30.13,30.13,0,1,1-30.13-30.12A30.14,30.14,0,0,1,1119,2290.32Z"/><path class="cls-6" d="M1065.65,2142.8l4.64,149.83s-4.64,18.53,18.54,20.07c0,0,15.44,3.1,24.7-17l58.7-143.66Z"/><path class="cls-7" d="M1091.12,2315.9h0a15.3,15.3,0,0,1-2.89-.23c-8.16-.51-14.34-3.32-18-8.29-4.38-6-3.38-13.14-3-15l-4.63-149.47a3.11,3.11,0,0,1,1-2.29,3,3,0,0,1,2.34-.81l106.57,9.26a3,3,0,0,1,2.55,4.16l-58.69,143.65C1108.41,2314.06,1096.06,2315.9,1091.12,2315.9Zm-22.34-169.78,4.53,146.42a3.22,3.22,0,0,1-.08.82s-1.38,6,2,10.49c2.52,3.43,7.17,5.38,13.84,5.83,2.79.39,14.28,1,21.76-15.23l57.08-139.73Z"/><path class="cls-8" d="M1065.67,2142.93l4.63,149.83s-4.63,18.53,18.54,20.07c0,0,15.44,3.1,24.71-17l58.7-143.66Z"/><path class="cls-8" d="M1091.13,2316h0a15.43,15.43,0,0,1-2.89-.23c-8.16-.52-14.33-3.32-18-8.3-4.39-6-3.38-13.13-3-15L1062.64,2143a3,3,0,0,1,3.28-3.11l106.58,9.26a3.06,3.06,0,0,1,2.33,1.44,3,3,0,0,1,.22,2.73L1116.36,2297C1108.42,2314.19,1096.08,2316,1091.13,2316Zm-22.33-169.79,4.53,146.42a3.3,3.3,0,0,1-.09.83c0,.05-1.37,6,2,10.49,2.52,3.43,7.17,5.38,13.83,5.83,2.8.39,14.29,1,21.77-15.23l57.08-139.73Z"/><polygon class="cls-9" points="1151.46 2202.91 1172.23 2152.06 1065.65 2142.8 1067.5 2202.91 1151.46 2202.91"/><polygon class="cls-10" points="1040.94 2105.72 1054.84 2158.25 1187.67 2158.25 1187.67 2111.91 1040.94 2105.72"/><path class="cls-10" d="M1187.68,2161.28H1054.84a3,3,0,0,1-2.93-2.25L1038,2106.5a3,3,0,0,1,.57-2.67,2.83,2.83,0,0,1,2.48-1.13l146.74,6.18a3,3,0,0,1,2.9,3v46.34A3,3,0,0,1,1187.68,2161.28Zm-130.51-6.06h127.47v-40.4l-139.72-5.9Z"/><path class="cls-11" d="M1099.65,2288.24a11.59,11.59,0,1,1-11.59-11.57A11.59,11.59,0,0,1,1099.65,2288.24Z"/><path class="cls-28" d="M1545.39,1362.67c.65.8,1.27,1.66,1.87,2.47q12.62,17.13,24.38,34.84c2.46,3.67,4.7,7.43,6.86,11.24-8.28,3.84-16.58,7.61-25,11.2a.77.77,0,0,1-.31-.16c-1.22.6-2.48,1.26-3.68,1.94,8,4.49,17.2,7.87,25.45,11.2,14.2,5.77,28.56,11,42.52,17.26,13,5.7,26.33,10.52,39.75,15v0a20.47,20.47,0,0,1,2.3.49c.47-1.4.81-2.8,1.34-4.15h-.07c2.77-8.78,5.67-17.5,8.58-26.15q5.1-15.21,10.32-30.28a45,45,0,0,1,3.21-9.47c2.13-6,4.09-11.91,6.16-17.82,1.56-4.47,3.12-8.84,4.7-13.24a1.73,1.73,0,0,1,.29-.23c.44-1.23,1-2.48,1.39-3.6a1.08,1.08,0,0,1-.15-.28,61.64,61.64,0,0,1-8.73,3.4c-6.75,3.18-14,5.7-21,8.34-6.58-9.15-13-18.3-19.51-27.56s-13.3-18.8-21.24-27.09c-3.23-3.34-8.18-5.92-11.74-9-2.51-2.16-7.37-2.84-8.45-2.91-21.17-1-42.55.64-63.72,1.24-17.43.56-34.71-1.12-52.33.8-4-.47-12-.24-16.43,1.84a23.59,23.59,0,0,0-6.34,4.62c-.1.11-.2.34-.32.45a1.74,1.74,0,0,0-.59.42c-16.31,14.7-28.84,33.21-42.85,50-4.78,5.66-9.55,11.32-14.22,17,.91.68,1.79,1.42,2.66,2.08,0-.07.16-.18.2-.23,13.55,8.74,26.27,19.55,39.22,29.13,12,8.89,23.81,19.6,37,26.92v.12c1.89,1.18,3.73,2.41,5.45,3.66.71-1.19,1.46-2.43,2.18-3.72,5.52-9.65,11.83-18.8,17.64-28.27,5.49-8.93,10.84-17.89,16.32-26.81C1533.68,1379.19,1538.85,1370,1545.39,1362.67Zm-52.09-43.46c-3.81-1.19-9.63-4-13.58-2.69-2.56.86-1.47.81-4,.54a.37.37,0,0,1,.1-.7c3.17-.39,5.23-2.42,8.52-1.94,2.59.37,5.07.91,7.59,1.47a46.09,46.09,0,0,1,17.21,8.23,173.64,173.64,0,0,1,34.2,34.19c.55.79-.75,2.31-1.54,1.54-4.87-4.66-8.69-10.31-13.82-14.85-5.51-4.85-10.88-9.91-16.42-14.59C1506.09,1325.89,1500.17,1321.36,1493.3,1319.21Z"/><path class="cls-28" d="M1755.76,1538a1.59,1.59,0,0,0-.21-.53,1,1,0,0,0,0-.7c-4-21.6-13.46-41.85-20.48-62.52-2.45-7-4.76-14-7.21-21-1,.34-2.1.76-3.12,1.2,0,.1.07.14.07.32-14.46,7-30.29,12.33-45.21,18.41-13.86,5.71-29.11,10.27-42.19,17.76-.07-.06-.09-.06-.09-.06-2,1-4,1.85-6,2.72.74,1.27,1.46,2.52,2.13,3.76,5.39,9.8,10,19.91,15.07,29.83,4.78,9.31,9.68,18.46,14.38,27.78,4.38,8.66,9.57,17.82,12.43,27.14-1,.17-2.06.26-3.1.38-14.1,1.28-28.27,2.15-42.39,2.86-4.41.16-8.79.1-13.19,0,1-9.05,2.08-18.11,3.33-27.15.17,0,.23-.17.31-.22.11-1.39.18-2.73.21-4.13-7.93,4.56-15.58,10.66-22.75,15.92-12.19,9.22-24.18,18.74-36.69,27.53-11.64,8.07-22.72,17.06-33.49,26.17h0c-.54.6-1.06,1.18-1.59,1.71.94,1.09,1.92,2.16,2.83,3.29h0c6.1,6.89,12,13.84,18,20.85,6.82,8.12,13.65,16.31,20.47,24.49a37.41,37.41,0,0,1,6.39,7.71q6.11,7.26,12.17,14.41c3,3.67,5.92,7.28,8.89,10.94,0,.11,0,.27,0,.32.81,1.09,1.55,2,2.32,3.08h.35a49.91,49.91,0,0,1,1.57-9.17c.79-7.42,2.35-15,3.79-22.33,11.14-.91,22.35-1.67,33.59-2.44,11.48-.87,23-1.61,34.2-4.2,4.53-1,9.35-3.93,13.79-5.32,3.17-1,6.36-4.85,6.88-5.71,11.75-17.6,21.48-36.73,31.94-55.2,8.64-15.12,19-29.07,26.41-45.13,2.57-3.2,6.46-10.17,7-15A21.69,21.69,0,0,0,1755.76,1538Zm-5.13,13.63c-8.11,10.88-15.27,20.23-28.37,25.3a92.4,92.4,0,0,1-38.76,5.83c-1.49-.07-.84-2.16.24-2.43,12.46-2.32,25.37-2.75,37.34-7.39,12.35-4.78,19.94-12.49,28.88-21.91C1750.4,1550.59,1751,1551,1750.63,1551.61Z"/><path class="cls-28" d="M1518.43,1588c-.16-2.2-.16-4.42-.16-6.55-1.36.09-2.8.16-4.24.37-11.13,1-22.26,1.18-33.35,1.81-10.44.76-20.83,1.52-31.2,2.17-9.72.53-20.18,1.55-29.9.42.34-1,.62-2,.93-3,4.47-13.4,9.3-26.76,14.36-40,1.57-4.14,3.44-8.07,5.28-12.06q11.83,6.76,23.53,13.94a1,1,0,0,1,0,.32c1.27.66,2.5,1.31,3.75,1.9-1-9.11-3.54-18.49-5.55-27.26-3.44-14.85-7.45-29.61-10.46-44.69-2.76-13.84-6.51-27.57-10.57-41.15h.07a12.4,12.4,0,0,1-1-2.14c-1.36.43-2.79.92-4.13,1.3v.11c-8.8,2.68-17.53,5.43-26.36,8.07-10.15,3-20.4,5.91-30.61,9a40.22,40.22,0,0,1-9.66,2.78c-6,1.78-12,3.57-18.13,5.29-4.51,1.29-9,2.58-13.47,3.82a.89.89,0,0,1-.42-.12c-1.2.33-2.44.6-3.69,1a2.29,2.29,0,0,1-.14.27,50.69,50.69,0,0,1,7.78,5.11c6.56,3.76,12.79,8.14,18.95,12.39-3.65,10.6-7.45,21.22-11.24,31.76-3.85,10.82-7.74,21.76-9.91,33.08-.87,4.51-.11,10.05-.55,14.69-.32,3.34,1.87,7.75,2.46,8.62,11.44,17.87,25.09,34.45,37.72,51.36,10.47,14,19.13,29,30.83,42.27,1.92,3.67,6.78,10,11,12.44a20.78,20.78,0,0,0,7.38,2.43h.62a1,1,0,0,0,.64.31c21.43,4.9,43.74,4.36,65.55,6.19,7.31.61,14.68,1.35,22.05,1.83,0-1.06.11-2.2.12-3.33a.54.54,0,0,0-.18,0c-.79-16.06.7-32.74,1.07-48.85.36-15,2.33-30.75.68-45.71C1518.43,1588,1518.43,1588,1518.43,1588Zm-102.68-3c-14.37,2.25-32-.11-45.83-4.14-11.16-3.3-26.51-7.06-29.57-20-.07-.22.38-.55.44-.22,5.52,11.56,21.85,15.34,33.51,18,13.86,3,27.58,2.68,41.67,3.75C1417.48,1582.58,1417,1584.77,1415.75,1585Z"/></g></g></svg>