<svg xmlns="http://www.w3.org/2000/svg" viewBox="0 0 3061.42 3061.42"><defs><style>.cls-1{isolation:isolate;}.cls-2{fill:#505250;}.cls-27,.cls-3{fill:#231f20;}.cls-4{fill:#2a2b2a;}.cls-5{fill:#1d1d1b;}.cls-6{fill:#72bf44;}.cls-7{fill:#039447;}.cls-8{fill:#828282;}.cls-21,.cls-9{fill:#191c17;}.cls-16,.cls-18,.cls-22,.cls-27,.cls-9{mix-blend-mode:multiply;}.cls-10{fill:#6f706f;}.cls-11{fill:#050606;}.cls-12,.cls-25{fill:#58595b;}.cls-13{opacity:0;}.cls-14{fill:#fcee21;}.cls-15{fill:#878787;}.cls-16{fill:#1c1e1b;}.cls-16,.cls-23,.cls-25,.cls-26,.cls-27{opacity:0.5;}.cls-17,.cls-18{fill:#757576;}.cls-19{fill:#01ae4d;}.cls-20{fill:#0b0b0b;}.cls-22{fill:#606161;}.cls-23{fill:#3f443b;}.cls-23,.cls-25,.cls-26{mix-blend-mode:color-dodge;}.cls-24{fill:#3a3a3a;}.cls-26{fill:#27aae1;}.cls-28{fill:#fff;}</style></defs><g class="cls-1"><g id="Layer_1" data-name="Layer 1"><path class="cls-2" d="M2243.68,2488.09a98.86,98.86,0,1,1-98.85-98.86A98.85,98.85,0,0,1,2243.68,2488.09Z"/><path class="cls-3" d="M2144.83,2590a101.88,101.88,0,1,1,101.87-101.87A102,102,0,0,1,2144.83,2590Zm0-197.71a95.83,95.83,0,1,0,95.82,95.84A96,96,0,0,0,2144.83,2392.25Z"/><path class="cls-4" d="M2205.59,2488.09a60.76,60.76,0,1,1-60.76-60.77A60.76,60.76,0,0,1,2205.59,2488.09Z"/><path class="cls-5" d="M2175,2491.94a30.13,30.13,0,1,1-30.13-30.12A30.13,30.13,0,0,1,2175,2491.94Z"/><path class="cls-6" d="M2121.65,2344.43l4.64,149.83s-4.64,18.53,18.54,20.07c0,0,15.44,3.1,24.71-17l58.69-143.66Z"/><path class="cls-7" d="M2147.12,2517.53h0a15.3,15.3,0,0,1-2.89-.23c-8.16-.52-14.34-3.33-18-8.3-4.39-6-3.39-13.13-3-15l-4.63-149.47a3.08,3.08,0,0,1,1-2.29,3,3,0,0,1,2.34-.82l106.57,9.26a3,3,0,0,1,2.55,4.17l-58.69,143.65C2164.41,2515.69,2152.06,2517.53,2147.12,2517.53Zm-22.33-169.79,4.52,146.42a3.29,3.29,0,0,1-.08.83c0,.05-1.38,6,2,10.49,2.53,3.43,7.18,5.38,13.84,5.83,2.79.39,14.28,1,21.76-15.23l57.08-139.73Z"/><path class="cls-8" d="M2121.67,2344.55l4.64,149.83s-4.64,18.53,18.54,20.08c0,0,15.43,3.1,24.7-17l58.7-143.67Z"/><path class="cls-8" d="M2147.14,2517.66h0a14.86,14.86,0,0,1-2.9-.24c-8.16-.51-14.33-3.32-18-8.29-4.38-6-3.38-13.14-3-15l-4.63-149.47a3,3,0,0,1,3.29-3.1l106.57,9.26a3,3,0,0,1,2.55,4.16l-58.69,143.66C2164.43,2515.81,2152.08,2517.66,2147.14,2517.66Zm-22.34-169.79,4.53,146.42a2.79,2.79,0,0,1-.09.82s-1.37,6,2,10.49c2.52,3.43,7.17,5.39,13.84,5.83,2.79.4,14.28,1,21.76-15.23l57.08-139.73Z"/><polygon class="cls-9" points="2207.46 2404.53 2228.23 2353.69 2121.65 2344.43 2123.51 2404.53 2207.46 2404.53"/><polygon class="cls-10" points="2096.94 2307.35 2110.84 2359.87 2243.68 2359.87 2243.68 2313.53 2096.94 2307.35"/><path class="cls-10" d="M2243.68,2362.9H2110.84a3,3,0,0,1-2.93-2.25l-13.9-52.52a3,3,0,0,1,.57-2.68,2.83,2.83,0,0,1,2.48-1.12l146.74,6.18a3,3,0,0,1,2.9,3v46.34A3,3,0,0,1,2243.68,2362.9Zm-130.51-6.06h127.48v-40.4l-139.73-5.89Z"/><path class="cls-11" d="M2155.65,2489.87a11.59,11.59,0,1,1-11.59-11.58A11.58,11.58,0,0,1,2155.65,2489.87Z"/><path class="cls-12" d="M2001.15,1115.71,2340.48,1158l-71.71-164.21s-19.24-33.24-64.72-33.24H1203.53c-45.46,0-64.71,33.24-64.71,33.24l-71.72,167.7,339.34-45.74v2.23l297.36-1.11,297.35,1.11Z"/><path class="cls-12" d="M1067.1,1164.48a3,3,0,0,1-2.78-4.22L1136,992.57c1-1.76,20.83-35.09,67.5-35.09H2204.05c46.68,0,66.52,33.34,67.34,34.76L2343,1156a3,3,0,0,1-2.35,4.94h-.12l-.37,0L2004,1119.11a3.08,3.08,0,0,1-.66,1,3,3,0,0,1-2.14.88h0l-297.36-1.11L1406.46,1121h0a3,3,0,0,1-2.13-.88,2.78,2.78,0,0,1-.65-.95l-336.17,45.31A2.5,2.5,0,0,1,1067.1,1164.48Zm136.43-200.94c-43.22,0-61.91,31.42-62.09,31.73L1072,1157.74l334.06-45a3,3,0,0,1,2.39.72,3.08,3.08,0,0,1,.94,1.47l294.42-1.09,294.44,1.09a3.14,3.14,0,0,1,.92-1.46,3,3,0,0,1,2.37-.73l334.06,41.58L2266,995s-18.86-31.42-61.94-31.42Z"/><g class="cls-13"><path class="cls-14" d="M1996.58,1159.57l339.33-1.27-71.71-120.7s-19.24-33.22-64.72-33.22H1199c-45.47,0-64.72,33.22-64.72,33.22l-71.72,120.7,339.35,1.27v2.22l297.35-1.11,297.36,1.11Z"/><path class="cls-14" d="M1996.58,1164.82h0l-297.35-1.11-297.33,1.11h0a3,3,0,0,1-2.14-.87,3.18,3.18,0,0,1-.8-1.37l-336.43-1.26a3,3,0,0,1-2.58-4.57l71.71-120.69c.81-1.39,20.65-34.72,67.32-34.72H2199.48c46.68,0,66.51,33.33,67.34,34.75l71.69,120.66a3,3,0,0,1-2.59,4.57l-336.41,1.26a3.16,3.16,0,0,1-.79,1.37A3.07,3.07,0,0,1,1996.58,1164.82Zm-297.36-7.16,294.44,1.1a3,3,0,0,1,2.91-2.23l334-1.24-69-116.14c-.2-.33-19-31.74-62.12-31.74H1199c-43.22,0-61.91,31.4-62.09,31.71l-69,116.17,334.05,1.24a3,3,0,0,1,2.9,2.23Z"/></g><path class="cls-15" d="M2194,1131.57l-42.1-70.83s-15.41-26.64-51.86-26.64H1298.38c-36.45,0-51.87,26.64-51.87,26.64l-42.09,70.83Z"/><path class="cls-15" d="M2194,1134.6H1204.42a3,3,0,0,1-2.6-4.58l42.09-70.83c.64-1.12,16.7-28.11,54.47-28.11h801.69c37.76,0,53.81,27,54.48,28.15l42.08,70.79a3.07,3.07,0,0,1,0,3A3,3,0,0,1,2194,1134.6Zm-984.29-6.06h979l-39.38-66.25c-.61-1.06-15.09-25.16-49.25-25.16H1298.38c-34.16,0-48.65,24.1-49.25,25.13Z"/><polygon class="cls-16" points="1222.42 1101.28 1204.42 1131.57 2194.03 1131.57 2176.02 1101.28 1222.42 1101.28"/><rect class="cls-17" x="875.45" y="1369.8" width="142.1" height="71.06"/><path class="cls-17" d="M1017.55,1443.89H875.45a3,3,0,0,1-3-3V1369.8a3,3,0,0,1,3-3h142.1a3,3,0,0,1,3,3v71.06A3,3,0,0,1,1017.55,1443.89Zm-139.07-6.06h136v-65h-136Z"/><polygon class="cls-18" points="1017.55 1440.86 943.41 1440.86 933.11 1369.8 1017.55 1369.8 1017.55 1440.86"/><rect class="cls-17" x="2382.96" y="1369.8" width="142.1" height="71.06"/><path class="cls-17" d="M2525.05,1443.89H2383a3,3,0,0,1-3-3V1369.8a3,3,0,0,1,3-3h142.09a3,3,0,0,1,3,3v71.06A3,3,0,0,1,2525.05,1443.89ZM2386,1437.83h136v-65H2386Z"/><polygon class="cls-18" points="2382.96 1440.86 2457.09 1440.86 2467.39 1369.8 2382.96 1369.8 2382.96 1440.86"/><path class="cls-6" d="M1700.27,1220.19v-1.77l-45.74.95-52.1-.95,0,2-652.87,13.43s95.76,966.9,98.86,976.16,0,95.77,108.12,111.22h1094.6c108.11-15.45,105-102,108.11-111.22s98.85-976.16,98.85-976.16Z"/><path class="cls-19" d="M2251.16,2324.29H1156.56c-98.08-14-107.13-84.45-110.09-107.6a49.12,49.12,0,0,0-.9-5.69c-3.12-9.31-89.19-877.82-99-976.82a3,3,0,0,1,.74-2.31,3.09,3.09,0,0,1,2.21-1l650-13.37a2.79,2.79,0,0,1,.74-1.2,3,3,0,0,1,2.18-.88l52.1.94,45.62-.94a2.81,2.81,0,0,1,2.18.86,3,3,0,0,1,.66,1l755.14,13.63a3,3,0,0,1,3,3.33c-9.81,99-95.88,967.51-99,976.82a47.82,47.82,0,0,0-.89,5.7c-3,23.16-12,93.61-109.67,107.56ZM952.92,1236.84c33,333,95.54,960.17,98.43,972.38a43.31,43.31,0,0,1,1.12,6.7c2.83,22,11.43,89,104.52,102.34l1094,0c92.88-13.37,101.47-80.31,104.3-102.31a43.7,43.7,0,0,1,1.16-6.84c2.84-12.07,65.41-639.28,98.39-972.24l-754.59-13.62a3,3,0,0,1-2.67-1.72l-42.93.89-49.31-.89a3,3,0,0,1-2.77,2Z"/><path class="cls-20" d="M1700.27,1220.24v-1.78l-45.74,1-52.09-1v2l-652.87,13.43s95.77,966.9,98.87,976.16,0,95.78,108.12,111.22H2251.16c108.12-15.44,105-102,108.12-111.22s98.85-976.16,98.85-976.16Z"/><path class="cls-20" d="M2251.16,2324.29H1156.56c-98.08-14-107.13-84.45-110.09-107.6a49.12,49.12,0,0,0-.9-5.69c-3.12-9.31-89.19-877.82-99-976.82a3,3,0,0,1,.74-2.31,3.09,3.09,0,0,1,2.21-1l650-13.37a2.79,2.79,0,0,1,.74-1.2,3,3,0,0,1,2.18-.88l52.1.94,45.62-.94a2.81,2.81,0,0,1,2.18.86,3,3,0,0,1,.66,1l755.14,13.63a3,3,0,0,1,3,3.33c-9.81,99-95.88,967.51-99,976.82a47.82,47.82,0,0,0-.89,5.7c-3,23.16-12,93.61-109.67,107.56ZM952.92,1236.84c33,333,95.54,960.17,98.43,972.38a43.31,43.31,0,0,1,1.12,6.7c2.83,22,11.43,89,104.52,102.34l1094,0c92.88-13.37,101.47-80.31,104.3-102.31a43.7,43.7,0,0,1,1.16-6.84c2.84-12.07,65.41-639.28,98.39-972.24l-754.59-13.62a3,3,0,0,1-2.67-1.72l-42.93.89-49.31-.89a3,3,0,0,1-2.77,2Z"/><path class="cls-21" d="M1700.27,1220.19v-1.77l-45.74.95-52.1-.95,0,2-652.87,13.43s1.68,16.94,4.6,46.33H2133.86s74.69-.94,74.69,61.62l-52.9,869.94s2.43,93.84-284.19,109.49h379.7c108.11-15.45,105-102,108.11-111.22s98.85-976.16,98.85-976.16Z"/><path class="cls-22" d="M952.69,1265.22H2455c2-20.07,3.1-31.34,3.1-31.34l-757.85-13.69v-1.77l-45.74.95-52.1-.95,0,2-652.87,13.43S950.71,1245.15,952.69,1265.22Z"/><path class="cls-23" d="M968.13,1283.31l92.67,874.22s-3.09,139,135.92,148.28h590l-447.67-39.56s-175.38-23.59-197-168.78-78-817.26-78-817.26Z"/><polygon class="cls-12" points="1079.71 1235.42 1096.7 1332.73 1112.15 1332.73 1122.2 1233.88 1079.71 1235.42"/><path class="cls-12" d="M1112.15,1335.75H1096.7a3,3,0,0,1-3-2.5l-17-97.31a3.07,3.07,0,0,1,.62-2.43,3,3,0,0,1,2.25-1.12l42.49-1.54a2.83,2.83,0,0,1,2.31,1,3,3,0,0,1,.81,2.38l-10,98.84A3,3,0,0,1,1112.15,1335.75Zm-12.9-6h10.16l9.43-92.67-35.55,1.29Z"/><polygon class="cls-12" points="1379.36 1235.42 1396.36 1332.73 1411.8 1332.73 1421.84 1233.88 1379.36 1235.42"/><path class="cls-12" d="M1411.8,1335.75h-15.44a3,3,0,0,1-3-2.5l-17-97.31a3,3,0,0,1,2.87-3.55l42.48-1.54a2.91,2.91,0,0,1,2.33,1,3,3,0,0,1,.79,2.38l-10,98.84A3,3,0,0,1,1411.8,1335.75Zm-12.91-6h10.18l9.4-92.67-35.53,1.29Z"/><polygon class="cls-12" points="1679.02 1235.42 1695.99 1332.73 1711.45 1332.73 1721.49 1233.88 1679.02 1235.42"/><path class="cls-12" d="M1711.45,1335.75H1696a3,3,0,0,1-3-2.5l-17-97.31a3,3,0,0,1,.63-2.43,3,3,0,0,1,2.23-1.12l42.48-1.54a3,3,0,0,1,2.32,1,3,3,0,0,1,.8,2.38l-10,98.84A3,3,0,0,1,1711.45,1335.75Zm-12.91-6h10.18l9.41-92.67-35.53,1.29Z"/><polygon class="cls-12" points="1978.67 1235.42 1995.65 1332.73 2011.1 1332.73 2021.14 1233.88 1978.67 1235.42"/><path class="cls-12" d="M2011.1,1335.75h-15.45a3,3,0,0,1-3-2.5l-17-97.31a3,3,0,0,1,2.86-3.55l42.47-1.54a2.85,2.85,0,0,1,2.32,1,3,3,0,0,1,.8,2.38l-10,98.84A3,3,0,0,1,2011.1,1335.75Zm-12.91-6h10.17l9.41-92.67-35.52,1.29Z"/><polygon class="cls-12" points="2278.31 1235.42 2295.3 1332.73 2310.74 1332.73 2320.78 1233.88 2278.31 1235.42"/><path class="cls-12" d="M2310.74,1335.75H2295.3a3,3,0,0,1-3-2.5l-17-97.31a3,3,0,0,1,.62-2.43,3,3,0,0,1,2.24-1.12l42.47-1.54a2.88,2.88,0,0,1,2.32,1,3,3,0,0,1,.81,2.38l-10,98.84A3,3,0,0,1,2310.74,1335.75Zm-12.9-6H2308l9.4-92.67-35.53,1.29Z"/><rect class="cls-24" x="928.21" y="1193.95" width="1542.51" height="39.4"/><path class="cls-24" d="M2470.72,1236.37H928.21a3,3,0,0,1-3-3V1194a3,3,0,0,1,3-3H2470.72a3,3,0,0,1,3,3v39.4A3,3,0,0,1,2470.72,1236.37Zm-1539.48-6H2467.7V1197H931.24Z"/><rect class="cls-12" x="915.06" y="1218.42" width="1568.8" height="27.82"/><path class="cls-12" d="M2483.86,1249.27H915.06a3,3,0,0,1-3-3v-27.82a3,3,0,0,1,3-3h1568.8a3,3,0,0,1,3,3v27.82A3,3,0,0,1,2483.86,1249.27Zm-1565.77-6.06H2480.83v-21.76H918.09Z"/><rect class="cls-12" x="915.06" y="1155.34" width="1568.8" height="47.37"/><path class="cls-12" d="M2483.86,1205.74H915.06a3,3,0,0,1-3-3v-47.36a3,3,0,0,1,3-3h1568.8a3,3,0,0,1,3,3v47.36A3,3,0,0,1,2483.86,1205.74Zm-1565.77-6.06H2480.83v-41.31H918.09Z"/><rect class="cls-25" x="915.06" y="1155.34" width="1568.8" height="12.08"/><path class="cls-26" d="M1093.09,1133.8l56-94.44s22.73-31.48,78.71-29.73h547.48l-503.76,10.49s-15.73-5.26-33.24,14-56,98-56,98Z"/><path class="cls-3" d="M2197.48,980.5H2236A139.31,139.31,0,0,0,2197.48,980.5Z"/><path class="cls-27" d="M2265.24,1041.66s-19.24-33.23-64.71-33.23h-45.26c14.37,2.09,29.61,8.06,39.8,21.05,93.78,119.58,42.35,115.71,42.35,115.71H1073.76l-10.19,17.16,339.34,1.27v2.23l297.36-1.11,297.35,1.11v-2.23l339.33-1.27Z"/><path class="cls-2" d="M1360.82,2502.77a98.86,98.86,0,1,1-98.85-98.86A98.85,98.85,0,0,1,1360.82,2502.77Z"/><path class="cls-3" d="M1262,2604.64a101.88,101.88,0,1,1,101.87-101.87A102,102,0,0,1,1262,2604.64Zm0-197.71a95.83,95.83,0,1,0,95.82,95.84A96,96,0,0,0,1262,2406.93Z"/><path class="cls-4" d="M1322.73,2502.77A60.76,60.76,0,1,1,1262,2442,60.76,60.76,0,0,1,1322.73,2502.77Z"/><path class="cls-5" d="M1292.1,2506.62A30.13,30.13,0,1,1,1262,2476.5,30.13,30.13,0,0,1,1292.1,2506.62Z"/><path class="cls-6" d="M1238.79,2359.1l4.64,149.84s-4.64,18.53,18.54,20.07c0,0,15.44,3.1,24.71-17l58.69-143.66Z"/><path class="cls-7" d="M1264.26,2532.21h0a15.3,15.3,0,0,1-2.89-.23c-8.16-.52-14.34-3.33-18-8.3-4.39-6-3.39-13.13-3-15l-4.63-149.47a3.08,3.08,0,0,1,1-2.29,3,3,0,0,1,2.34-.82l106.57,9.26a3,3,0,0,1,2.55,4.17l-58.69,143.65C1281.55,2530.37,1269.2,2532.21,1264.26,2532.21Zm-22.34-169.79,4.53,146.42a3.29,3.29,0,0,1-.08.83s-1.38,5.95,2,10.49c2.53,3.43,7.17,5.38,13.84,5.83,2.79.39,14.28,1,21.76-15.24L1341,2371Z"/><path class="cls-8" d="M1238.81,2359.23l4.64,149.83s-4.64,18.53,18.53,20.07c0,0,15.44,3.11,24.71-17l58.7-143.66Z"/><path class="cls-8" d="M1264.27,2532.34h0a14.81,14.81,0,0,1-2.89-.24c-8.16-.51-14.33-3.32-18-8.29-4.39-6-3.38-13.14-3-15l-4.63-149.47a3.07,3.07,0,0,1,1-2.29,3,3,0,0,1,2.34-.81l106.57,9.26a3,3,0,0,1,2.55,4.16L1289.5,2513.3C1281.56,2530.49,1269.22,2532.34,1264.27,2532.34Zm-22.33-169.79,4.53,146.42a2.83,2.83,0,0,1-.09.82c0,.05-1.37,6,2,10.49,2.52,3.43,7.17,5.38,13.84,5.83,2.79.4,14.28,1,21.76-15.23L1341,2371.15Z"/><polygon class="cls-9" points="1324.6 2419.21 1345.37 2368.37 1238.79 2359.11 1240.64 2419.21 1324.6 2419.21"/><polygon class="cls-10" points="1214.08 2322.03 1227.98 2374.55 1360.82 2374.55 1360.82 2328.21 1214.08 2322.03"/><path class="cls-10" d="M1360.82,2377.58H1228a3,3,0,0,1-2.93-2.25l-13.9-52.52a3,3,0,0,1,.57-2.68,2.86,2.86,0,0,1,2.48-1.13l146.74,6.19a3,3,0,0,1,2.9,3v46.34A3,3,0,0,1,1360.82,2377.58Zm-130.51-6.06h127.48v-40.4l-139.73-5.89Z"/><path class="cls-11" d="M1272.79,2504.55A11.59,11.59,0,1,1,1261.2,2493,11.58,11.58,0,0,1,1272.79,2504.55Z"/><path class="cls-28" d="M1718.53,1579c.65.8,1.27,1.66,1.87,2.46q12.61,17.14,24.39,34.84c2.45,3.67,4.69,7.44,6.85,11.24-8.28,3.84-16.58,7.61-25,11.21a.69.69,0,0,1-.31-.17c-1.22.61-2.48,1.27-3.68,2,8,4.48,17.2,7.87,25.45,11.19,14.2,5.77,28.56,11,42.52,17.26,12.95,5.7,26.33,10.53,39.75,15v0a18.47,18.47,0,0,1,2.3.49c.47-1.4.81-2.8,1.34-4.16H1834c2.77-8.77,5.67-17.49,8.58-26.15q5.1-15.21,10.32-30.27a44.78,44.78,0,0,1,3.21-9.47c2.13-6,4.09-11.91,6.16-17.83,1.56-4.46,3.12-8.83,4.7-13.23a1.73,1.73,0,0,1,.29-.23c.45-1.24,1-2.48,1.39-3.61a1.82,1.82,0,0,1-.15-.27,60,60,0,0,1-8.73,3.39c-6.75,3.18-14,5.7-21,8.35-6.57-9.15-13-18.31-19.51-27.57s-13.3-18.8-21.24-27.08c-3.23-3.34-8.18-5.92-11.74-9-2.51-2.15-7.37-2.84-8.45-2.9-21.17-1-42.55.63-63.72,1.23-17.42.56-34.7-1.12-52.33.81-4-.47-12-.25-16.43,1.84A23.34,23.34,0,0,0,1639,1533c-.1.11-.2.34-.32.46a1.61,1.61,0,0,0-.59.42c-16.31,14.69-28.84,33.21-42.85,50-4.78,5.67-9.54,11.32-14.22,17,.91.67,1.79,1.41,2.66,2.07l.2-.23c13.56,8.74,26.27,19.55,39.22,29.14,12,8.88,23.81,19.6,37,26.91v.12c1.89,1.18,3.73,2.41,5.45,3.67.71-1.19,1.46-2.44,2.18-3.72,5.52-9.65,11.83-18.8,17.64-28.28,5.49-8.93,10.84-17.89,16.32-26.81C1706.82,1595.49,1712,1586.28,1718.53,1579Zm-52.09-43.46c-3.81-1.2-9.63-4-13.58-2.7-2.56.87-1.47.82-4,.54-.34-.11-.25-.63.1-.7,3.17-.38,5.23-2.41,8.52-1.93,2.59.36,5.07.91,7.59,1.46a46.24,46.24,0,0,1,17.21,8.23,173.91,173.91,0,0,1,34.2,34.19c.55.8-.74,2.31-1.54,1.54-4.87-4.66-8.69-10.31-13.82-14.84-5.51-4.85-10.87-9.91-16.42-14.6C1679.24,1542.2,1673.31,1537.66,1666.44,1535.52Z"/><path class="cls-28" d="M1928.9,1754.29a1.64,1.64,0,0,0-.21-.54,1,1,0,0,0,0-.7c-4-21.59-13.46-41.84-20.48-62.51-2.45-7.06-4.76-14-7.21-21-1,.33-2.1.75-3.12,1.19,0,.1.07.15.07.33-14.46,7-30.29,12.32-45.21,18.4-13.86,5.71-29.11,10.28-42.19,17.77-.07-.07-.09-.07-.09-.07-2,1-4,1.85-6,2.72.74,1.28,1.46,2.52,2.13,3.76,5.39,9.8,10,19.92,15.07,29.83,4.78,9.32,9.68,18.46,14.38,27.79,4.38,8.65,9.57,17.81,12.43,27.14-1.05.16-2.06.26-3.1.37-14.1,1.29-28.27,2.16-42.39,2.87-4.41.15-8.79.09-13.19,0,1-9.06,2.08-18.11,3.33-27.16.17,0,.23-.16.31-.21.11-1.39.18-2.74.21-4.13-7.93,4.55-15.58,10.65-22.75,15.92-12.19,9.21-24.18,18.73-36.69,27.52-11.64,8.07-22.72,17.07-33.49,26.17h0c-.53.6-1.06,1.18-1.59,1.72.94,1.08,1.92,2.16,2.83,3.29h0c6.1,6.89,12,13.83,18,20.84q10.23,12.18,20.47,24.5a37.3,37.3,0,0,1,6.39,7.7c4.07,4.84,8.13,9.63,12.17,14.42,3,3.67,5.92,7.27,8.89,10.93,0,.12,0,.28,0,.33.81,1.08,1.55,2,2.32,3.07h.35a50.21,50.21,0,0,1,1.57-9.17c.79-7.42,2.35-15,3.79-22.33,11.14-.91,22.35-1.67,33.59-2.43,11.48-.87,23-1.62,34.2-4.21,4.53-1,9.35-3.93,13.79-5.32,3.17-1,6.36-4.85,6.88-5.7,11.75-17.61,21.48-36.73,31.94-55.2,8.64-15.13,19-29.07,26.41-45.13,2.57-3.21,6.46-10.17,7-15A21.67,21.67,0,0,0,1928.9,1754.29Zm-5.13,13.62c-8.11,10.88-15.27,20.24-28.37,25.31a92.56,92.56,0,0,1-38.76,5.82c-1.49-.07-.84-2.15.24-2.43,12.46-2.31,25.37-2.74,37.34-7.39,12.35-4.77,19.94-12.49,28.88-21.91C1923.54,1766.89,1924.16,1767.31,1923.77,1767.91Z"/><path class="cls-28" d="M1691.57,1804.26c-.16-2.21-.16-4.42-.16-6.56-1.36.1-2.8.16-4.24.37-11.13,1-22.26,1.18-33.35,1.82-10.44.75-20.83,1.51-31.2,2.16-9.72.54-20.18,1.56-29.9.43.34-1,.62-2,.93-3,4.47-13.4,9.3-26.76,14.36-40,1.57-4.14,3.44-8.08,5.28-12.07q11.84,6.78,23.53,13.94a1,1,0,0,1,0,.33c1.27.65,2.5,1.31,3.75,1.89-1-9.11-3.53-18.48-5.55-27.25-3.44-14.86-7.45-29.62-10.46-44.69-2.75-13.84-6.51-27.58-10.56-41.15h.06a12.75,12.75,0,0,1-1-2.14c-1.36.43-2.79.92-4.13,1.29v.11c-8.8,2.68-17.53,5.44-26.36,8.07-10.15,3-20.4,5.92-30.61,9a40.24,40.24,0,0,1-9.66,2.79c-6,1.78-12,3.56-18.13,5.28-4.51,1.29-9,2.58-13.47,3.82a1,1,0,0,1-.42-.11c-1.2.32-2.44.6-3.69,1,0,0-.1.23-.14.28a50.64,50.64,0,0,1,7.78,5.1c6.56,3.77,12.79,8.14,19,12.39-3.65,10.6-7.45,21.22-11.24,31.76-3.84,10.82-7.74,21.77-9.91,33.08-.87,4.51-.11,10.06-.55,14.7-.32,3.33,1.87,7.75,2.46,8.61,11.44,17.88,25.09,34.46,37.72,51.36,10.47,14,19.13,29,30.83,42.28,1.92,3.67,6.79,10,11,12.44a20.83,20.83,0,0,0,7.38,2.42h.63a1,1,0,0,0,.63.32c21.43,4.9,43.74,4.36,65.55,6.19,7.31.6,14.68,1.35,22,1.82,0-1.06.11-2.2.12-3.33a.54.54,0,0,0-.18,0c-.79-16.06.7-32.73,1.07-48.84.36-15,2.33-30.76.68-45.72C1691.57,1804.31,1691.57,1804.26,1691.57,1804.26Zm-102.67-3c-14.38,2.26-32-.11-45.84-4.14-11.16-3.29-26.51-7.06-29.57-20-.07-.22.38-.54.44-.22,5.52,11.56,21.86,15.35,33.51,18,13.86,3,27.58,2.68,41.67,3.76C1590.62,1798.88,1590.09,1801.08,1588.9,1801.3Z"/></g></g></svg>