<svg xmlns="http://www.w3.org/2000/svg" viewBox="0 0 3061.42 3061.42"><defs><style>.cls-1{isolation:isolate;}.cls-2{fill:#505250;}.cls-3{fill:#231f20;}.cls-4{fill:#2a2b2a;}.cls-5{fill:#1d1d1b;}.cls-6{fill:#72bf44;}.cls-7{fill:#039447;}.cls-8{fill:#828282;}.cls-21,.cls-9{fill:#191c17;}.cls-16,.cls-18,.cls-22,.cls-28,.cls-9{mix-blend-mode:multiply;}.cls-10{fill:#6f706f;}.cls-11{fill:#050606;}.cls-12,.cls-25{fill:#fff200;}.cls-13{opacity:0;}.cls-14,.cls-26{fill:#fcee21;}.cls-15{fill:#878787;}.cls-16{fill:#1c1e1b;}.cls-16,.cls-23,.cls-25,.cls-26,.cls-28{opacity:0.5;}.cls-17,.cls-18{fill:#757576;}.cls-19{fill:#01ae4d;}.cls-20{fill:#0b0b0b;}.cls-22{fill:#565656;}.cls-23{fill:#3f443b;}.cls-23,.cls-25,.cls-26{mix-blend-mode:color-dodge;}.cls-24{fill:#434139;}.cls-27,.cls-28{fill:#d1d3d4;}.cls-29{fill:#fff;}</style></defs><g class="cls-1"><g id="Layer_1" data-name="Layer 1"><path class="cls-2" d="M2255.55,2609.18a98.86,98.86,0,1,1-98.84-98.86A98.84,98.84,0,0,1,2255.55,2609.18Z"/><path class="cls-3" d="M2156.71,2711.05a101.88,101.88,0,1,1,101.87-101.87A102,102,0,0,1,2156.71,2711.05Zm0-197.7a95.83,95.83,0,1,0,95.81,95.83A95.95,95.95,0,0,0,2156.71,2513.35Z"/><path class="cls-4" d="M2217.47,2609.18a60.76,60.76,0,1,1-60.76-60.77A60.76,60.76,0,0,1,2217.47,2609.18Z"/><path class="cls-5" d="M2186.84,2613a30.13,30.13,0,1,1-30.13-30.13A30.14,30.14,0,0,1,2186.84,2613Z"/><path class="cls-6" d="M2133.53,2465.52l4.64,149.83s-4.64,18.53,18.54,20.07c0,0,15.44,3.1,24.7-17l58.7-143.66Z"/><path class="cls-7" d="M2159,2638.62h0a15.49,15.49,0,0,1-2.9-.23c-8.15-.52-14.33-3.32-18-8.3-4.38-6-3.38-13.13-3-15l-4.63-149.47a3,3,0,0,1,3.29-3.11l106.57,9.26a3,3,0,0,1,2.55,4.17l-58.69,143.65C2176.29,2636.78,2163.94,2638.62,2159,2638.62Zm-22.34-169.79,4.53,146.43a3.26,3.26,0,0,1-.08.82c0,.05-1.38,6,2,10.49,2.52,3.43,7.17,5.38,13.84,5.83,2.79.39,14.28,1,21.76-15.23l57.08-139.73Z"/><path class="cls-8" d="M2133.55,2465.64l4.63,149.84s-4.63,18.53,18.54,20.07c0,0,15.44,3.1,24.71-17l58.7-143.66Z"/><path class="cls-8" d="M2159,2638.75h0a15.43,15.43,0,0,1-2.89-.23c-8.16-.52-14.33-3.33-18-8.3-4.39-6-3.38-13.13-3-15l-4.63-149.47a3,3,0,0,1,.95-2.29,3,3,0,0,1,2.33-.82l106.58,9.26a3.06,3.06,0,0,1,2.33,1.44,3,3,0,0,1,.21,2.73l-58.68,143.65C2176.3,2636.91,2164,2638.75,2159,2638.75ZM2136.68,2469l4.53,146.42a3.3,3.3,0,0,1-.09.83s-1.37,5.95,2,10.49c2.52,3.43,7.17,5.38,13.83,5.83,2.8.39,14.29,1,21.77-15.23l57.08-139.73Z"/><polygon class="cls-9" points="2219.34 2525.62 2240.11 2474.78 2133.53 2465.52 2135.38 2525.62 2219.34 2525.62"/><polygon class="cls-10" points="2108.82 2428.44 2122.72 2480.97 2255.55 2480.97 2255.55 2434.63 2108.82 2428.44"/><path class="cls-10" d="M2255.55,2484H2122.72a3,3,0,0,1-2.93-2.26l-13.9-52.52a3,3,0,0,1,.57-2.68,2.83,2.83,0,0,1,2.48-1.12l146.74,6.18a3,3,0,0,1,2.9,3V2481A3,3,0,0,1,2255.55,2484Zm-130.5-6.07h127.47v-40.4l-139.72-5.89Z"/><path class="cls-11" d="M2167.53,2611a11.6,11.6,0,1,1-11.6-11.57A11.58,11.58,0,0,1,2167.53,2611Z"/><path class="cls-12" d="M2013,1236.81l339.33,42.24-71.71-164.2s-19.24-33.25-64.72-33.25H1215.41c-45.47,0-64.71,33.25-64.71,33.25L1079,1282.54l339.34-45.73V1239l297.36-1.11L2013,1239Z"/><path class="cls-12" d="M1079,1285.57a3,3,0,0,1-2.79-4.21l71.71-167.7c1-1.75,20.84-35.08,67.51-35.08H2215.93c46.68,0,66.52,33.34,67.34,34.75l71.56,163.81a3,3,0,0,1-2.35,4.93h-.12a2.3,2.3,0,0,1-.37,0l-336.16-41.84a3.32,3.32,0,0,1-.66,1,3.05,3.05,0,0,1-2.14.87h0L1715.67,1241l-297.33,1.11h0a3,3,0,0,1-2.78-1.83l-336.17,45.31A1.71,1.71,0,0,1,1079,1285.57Zm136.43-200.94c-43.22,0-61.91,31.42-62.09,31.73l-69.46,162.47,334.06-45a3,3,0,0,1,2.39.71,3,3,0,0,1,.93,1.48l294.43-1.1,294.44,1.1a3.12,3.12,0,0,1,.92-1.47,3,3,0,0,1,2.37-.73l334.06,41.59-69.59-159.33s-18.86-31.43-61.94-31.43Z"/><g class="cls-13"><path class="cls-14" d="M2008.46,1280.66l339.33-1.27-71.71-120.69s-19.25-33.23-64.72-33.23H1210.84c-45.47,0-64.72,33.23-64.72,33.23l-71.72,120.69,339.35,1.27v2.23l297.35-1.11,297.36,1.11Z"/><path class="cls-14" d="M2008.46,1285.92h0l-297.36-1.11-297.33,1.11h0a3,3,0,0,1-2.14-.88,3.09,3.09,0,0,1-.8-1.37l-336.43-1.25a3.06,3.06,0,0,1-2.62-1.54,3,3,0,0,1,0-3l71.72-120.69c.8-1.39,20.65-34.71,67.32-34.71H2211.36c46.68,0,66.51,33.33,67.34,34.74l71.69,120.66a3,3,0,0,1-2.59,4.58l-336.41,1.25a3.09,3.09,0,0,1-.8,1.37A3,3,0,0,1,2008.46,1285.92Zm-297.37-7.17,294.44,1.1a3.05,3.05,0,0,1,2.92-2.22l334-1.25-69-116.13c-.2-.34-19-31.75-62.12-31.75H1210.84c-43.23,0-61.91,31.4-62.1,31.72l-69,116.16,334,1.25a3,3,0,0,1,2.91,2.22Z"/></g><path class="cls-15" d="M2205.91,1252.66l-42.1-70.83s-15.41-26.63-51.86-26.63H1310.26c-36.46,0-51.87,26.63-51.87,26.63l-42.09,70.83Z"/><path class="cls-15" d="M2205.91,1255.69H1216.3a3,3,0,0,1-2.6-4.58l42.09-70.83c.64-1.12,16.7-28.11,54.47-28.11H2112c37.76,0,53.81,27,54.47,28.15l42.09,70.79a3,3,0,0,1-2.6,4.58Zm-984.29-6.06h979l-39.38-66.25c-.61-1.05-15.09-25.15-49.25-25.15H1310.26c-34.17,0-48.65,24.1-49.25,25.12Z"/><polygon class="cls-16" points="1234.3 1222.37 1216.3 1252.66 2205.91 1252.66 2187.9 1222.37 1234.3 1222.37"/><rect class="cls-17" x="887.33" y="1490.89" width="142.1" height="71.06"/><path class="cls-17" d="M1029.43,1565H887.33a3,3,0,0,1-3-3v-71.06a3,3,0,0,1,3-3h142.1a3,3,0,0,1,3,3V1562A3,3,0,0,1,1029.43,1565Zm-139.07-6.06h136.05v-65H890.36Z"/><polygon class="cls-18" points="1029.43 1561.95 955.29 1561.95 944.99 1490.89 1029.43 1490.89 1029.43 1561.95"/><rect class="cls-17" x="2394.84" y="1490.89" width="142.1" height="71.06"/><path class="cls-17" d="M2536.93,1565H2394.84a3,3,0,0,1-3-3v-71.06a3,3,0,0,1,3-3h142.09a3,3,0,0,1,3,3V1562A3,3,0,0,1,2536.93,1565Zm-139.06-6.06h136v-65h-136Z"/><polygon class="cls-18" points="2394.84 1561.95 2468.97 1561.95 2479.26 1490.89 2394.84 1490.89 2394.84 1561.95"/><path class="cls-6" d="M1712.14,1341.29v-1.78l-45.73,1-52.1-1,0,2L961.46,1355s95.76,966.89,98.86,976.15,0,95.78,108.12,111.22H2263c108.12-15.44,105-101.95,108.12-111.22S2470,1355,2470,1355Z"/><path class="cls-19" d="M2263,2445.38H1168.44c-98.08-14-107.13-84.45-110.09-107.6a51.91,51.91,0,0,0-.9-5.69c-3.12-9.31-89.19-877.82-99-976.82a3,3,0,0,1,.74-2.31,3.09,3.09,0,0,1,2.21-1l650-13.37a2.85,2.85,0,0,1,.74-1.2,3,3,0,0,1,2.18-.88l52.1.94,45.61-.94a2.86,2.86,0,0,1,2.19.86,3.29,3.29,0,0,1,.66,1l755.14,13.63a3.09,3.09,0,0,1,2.21,1,3,3,0,0,1,.75,2.31c-9.81,99-95.88,967.51-99,976.82a47.82,47.82,0,0,0-.89,5.7c-3,23.16-12,93.61-109.67,107.56ZM964.8,1357.94c33,332.94,95.54,960.16,98.43,972.38a42.88,42.88,0,0,1,1.12,6.69c2.83,22,11.43,89,104.51,102.34l1094,0C2355.7,2426,2364.29,2359,2367.12,2337a42.73,42.73,0,0,1,1.16-6.84c2.84-12.06,65.41-639.28,98.39-972.24l-754.59-13.62a3,3,0,0,1-2.67-1.71l-42.94.88-49.3-.89a3,3,0,0,1-2.77,2Z"/><path class="cls-20" d="M1712.15,1341.33v-1.77l-45.74.94-52.09-.94v2L961.46,1355s95.77,966.9,98.87,976.16,0,95.77,108.11,111.21H2263c108.12-15.44,105-101.94,108.12-111.21S2470,1355,2470,1355Z"/><path class="cls-20" d="M2263,2445.38H1168.44c-98.08-14-107.13-84.45-110.09-107.6a51.91,51.91,0,0,0-.9-5.69c-3.12-9.31-89.19-877.82-99-976.82a3,3,0,0,1,.74-2.31,3.09,3.09,0,0,1,2.21-1l650-13.37a2.85,2.85,0,0,1,.74-1.2,3,3,0,0,1,2.18-.88l52.1.94,45.61-.94a2.86,2.86,0,0,1,2.19.86,3.29,3.29,0,0,1,.66,1l755.14,13.63a3.09,3.09,0,0,1,2.21,1,3,3,0,0,1,.75,2.31c-9.81,99-95.88,967.51-99,976.82a47.82,47.82,0,0,0-.89,5.7c-3,23.16-12,93.61-109.67,107.56ZM964.8,1357.94c33,332.94,95.54,960.16,98.43,972.38a42.88,42.88,0,0,1,1.12,6.69c2.83,22,11.43,89,104.51,102.34l1094,0C2355.7,2426,2364.29,2359,2367.12,2337a42.73,42.73,0,0,1,1.16-6.84c2.84-12.06,65.41-639.28,98.39-972.24l-754.59-13.62a3,3,0,0,1-2.67-1.71l-42.94.88-49.3-.89a3,3,0,0,1-2.77,2Z"/><path class="cls-21" d="M1712.14,1341.29v-1.78l-45.73,1-52.1-1,0,2L961.46,1355s1.68,16.93,4.59,46.33H2145.74s74.69-.94,74.69,61.61l-52.9,869.94s2.42,93.84-284.19,109.49H2263c108.12-15.44,105-101.95,108.12-111.22S2470,1355,2470,1355Z"/><path class="cls-22" d="M964.57,1386.32H2466.89c2-20.08,3.11-31.34,3.11-31.34l-757.86-13.69v-1.78l-45.73,1-52.1-1,0,2L961.46,1355S962.58,1366.24,964.57,1386.32Z"/><path class="cls-23" d="M980,1404.4l92.68,874.23s-3.09,139,135.91,148.28h590L1351,2387.35s-175.39-23.59-197-168.79-78-817.25-78-817.25Z"/><polygon class="cls-12" points="1091.59 1356.51 1108.58 1453.82 1124.03 1453.82 1134.08 1354.97 1091.59 1356.51"/><path class="cls-12" d="M1124,1456.85h-15.45a3,3,0,0,1-3-2.51l-17-97.31a3,3,0,0,1,.62-2.43,3.11,3.11,0,0,1,2.25-1.12l42.49-1.54a2.83,2.83,0,0,1,2.31,1,3,3,0,0,1,.8,2.38l-10,98.84A3,3,0,0,1,1124,1456.85Zm-12.9-6.06h10.16l9.42-92.67-35.55,1.29Z"/><polygon class="cls-12" points="1391.24 1356.51 1408.23 1453.82 1423.68 1453.82 1433.71 1354.97 1391.24 1356.51"/><path class="cls-12" d="M1423.68,1456.85h-15.45a3,3,0,0,1-3-2.51l-17-97.31a3,3,0,0,1,.64-2.43,3.07,3.07,0,0,1,2.23-1.12l42.48-1.54a2.92,2.92,0,0,1,2.33,1,3,3,0,0,1,.79,2.38l-10,98.84A3,3,0,0,1,1423.68,1456.85Zm-12.91-6.06H1421l9.39-92.67-35.52,1.29Z"/><polygon class="cls-12" points="1690.9 1356.51 1707.87 1453.82 1723.33 1453.82 1733.37 1354.97 1690.9 1356.51"/><path class="cls-12" d="M1723.33,1456.85h-15.46a3,3,0,0,1-3-2.51l-17-97.31a3,3,0,0,1,.64-2.43,3.07,3.07,0,0,1,2.23-1.12l42.48-1.54a3,3,0,0,1,2.32,1,3,3,0,0,1,.79,2.38l-10,98.84A3,3,0,0,1,1723.33,1456.85Zm-12.91-6.06h10.18l9.4-92.67-35.52,1.29Z"/><polygon class="cls-12" points="1990.55 1356.51 2007.52 1453.82 2022.98 1453.82 2033.02 1354.97 1990.55 1356.51"/><path class="cls-12" d="M2023,1456.85h-15.46a3,3,0,0,1-3-2.51l-17-97.31a3,3,0,0,1,.63-2.43,3.09,3.09,0,0,1,2.24-1.12l42.46-1.54a2.86,2.86,0,0,1,2.33,1,3,3,0,0,1,.8,2.38l-10,98.84A3,3,0,0,1,2023,1456.85Zm-12.91-6.06h10.17l9.41-92.67-35.52,1.29Z"/><polygon class="cls-12" points="2290.19 1356.51 2307.18 1453.82 2322.62 1453.82 2332.66 1354.97 2290.19 1356.51"/><path class="cls-12" d="M2322.62,1456.85h-15.44a3,3,0,0,1-3-2.51l-17-97.31a3,3,0,0,1,.63-2.43,3.09,3.09,0,0,1,2.24-1.12l42.47-1.54a2.88,2.88,0,0,1,2.32,1,3,3,0,0,1,.8,2.38l-10,98.84A3,3,0,0,1,2322.62,1456.85Zm-12.9-6.06h10.17l9.4-92.67-35.53,1.29Z"/><rect class="cls-24" x="940.09" y="1315.04" width="1542.51" height="39.4"/><path class="cls-24" d="M2482.6,1357.47H940.09a3,3,0,0,1-3-3V1315a3,3,0,0,1,3-3H2482.6a3,3,0,0,1,3,3v39.4A3,3,0,0,1,2482.6,1357.47Zm-1539.48-6.06H2479.58v-33.33H943.12Z"/><rect class="cls-12" x="926.94" y="1339.51" width="1568.8" height="27.82"/><path class="cls-12" d="M2495.74,1370.36H926.94a3,3,0,0,1-3-3v-27.82a3,3,0,0,1,3-3h1568.8a3,3,0,0,1,3,3v27.82A3,3,0,0,1,2495.74,1370.36Zm-1565.77-6H2492.71v-21.77H930Z"/><rect class="cls-12" x="926.94" y="1276.43" width="1568.8" height="47.37"/><path class="cls-12" d="M2495.74,1326.83H926.94a3,3,0,0,1-3-3v-47.37a3,3,0,0,1,3-3h1568.8a3,3,0,0,1,3,3v47.37A3,3,0,0,1,2495.74,1326.83ZM930,1320.77H2492.71v-41.31H930Z"/><rect class="cls-25" x="926.94" y="1276.43" width="1568.8" height="12.08"/><path class="cls-26" d="M1105,1254.89l56-94.44s22.73-31.48,78.7-29.73h547.49l-503.76,10.49s-15.73-5.25-33.24,14-56,98-56,98Z"/><path class="cls-27" d="M2209.36,1101.59h38.5A139.77,139.77,0,0,0,2209.36,1101.59Z"/><path class="cls-28" d="M2277.12,1162.75s-19.24-33.23-64.72-33.23h-45.25c14.37,2.09,29.61,8.07,39.8,21,93.78,119.58,42.35,115.71,42.35,115.71H1085.64l-10.19,17.17,339.34,1.26v2.23l297.36-1.11,297.35,1.11v-2.23l339.33-1.26Z"/><path class="cls-2" d="M1372.69,2623.86a98.86,98.86,0,1,1-98.84-98.86A98.85,98.85,0,0,1,1372.69,2623.86Z"/><path class="cls-3" d="M1273.85,2725.73a101.88,101.88,0,1,1,101.87-101.87A102,102,0,0,1,1273.85,2725.73Zm0-197.7a95.83,95.83,0,1,0,95.81,95.83A95.95,95.95,0,0,0,1273.85,2528Z"/><path class="cls-4" d="M1334.61,2623.86a60.76,60.76,0,1,1-60.76-60.77A60.76,60.76,0,0,1,1334.61,2623.86Z"/><path class="cls-5" d="M1304,2627.71a30.13,30.13,0,1,1-30.12-30.12A30.13,30.13,0,0,1,1304,2627.71Z"/><path class="cls-6" d="M1250.67,2480.2l4.64,149.83s-4.64,18.53,18.54,20.07c0,0,15.43,3.1,24.7-17l58.7-143.66Z"/><path class="cls-7" d="M1276.14,2653.3h0a15.49,15.49,0,0,1-2.9-.23c-8.16-.52-14.33-3.32-18-8.3-4.38-6-3.38-13.13-3-15l-4.63-149.47a3,3,0,0,1,.95-2.29,3.09,3.09,0,0,1,2.34-.82l106.57,9.26a3,3,0,0,1,2.55,4.17l-58.69,143.65C1293.43,2651.46,1281.08,2653.3,1276.14,2653.3Zm-22.34-169.79,4.53,146.43a2.87,2.87,0,0,1-.09.82s-1.37,5.95,2,10.49c2.52,3.43,7.17,5.38,13.84,5.83,2.79.39,14.28,1,21.76-15.23l57.08-139.73Z"/><path class="cls-8" d="M1250.69,2480.32l4.63,149.83s-4.63,18.54,18.54,20.08c0,0,15.44,3.1,24.71-17l58.69-143.66Z"/><path class="cls-8" d="M1276.15,2653.43h0a15.43,15.43,0,0,1-2.89-.23c-8.16-.52-14.33-3.33-18-8.3-4.39-6-3.38-13.13-3-15l-4.63-149.46a3,3,0,0,1,.95-2.29,3,3,0,0,1,2.33-.82l106.58,9.26a3.06,3.06,0,0,1,2.33,1.44,3,3,0,0,1,.21,2.73l-58.68,143.65C1293.44,2651.58,1281.1,2653.43,1276.15,2653.43Zm-22.33-169.79,4.53,146.42a3.84,3.84,0,0,1-.09.83s-1.37,6,2,10.49c2.52,3.43,7.17,5.38,13.83,5.82,2.79.4,14.29,1,21.77-15.23l57.08-139.72Z"/><polygon class="cls-9" points="1336.48 2540.3 1357.25 2489.46 1250.67 2480.2 1252.52 2540.3 1336.48 2540.3"/><polygon class="cls-10" points="1225.96 2443.12 1239.86 2495.64 1372.69 2495.64 1372.69 2449.3 1225.96 2443.12"/><path class="cls-10" d="M1372.69,2498.68H1239.86a3,3,0,0,1-2.93-2.26L1223,2443.9a3,3,0,0,1,.57-2.68,2.83,2.83,0,0,1,2.48-1.12l146.74,6.18a3,3,0,0,1,2.9,3v46.34A3,3,0,0,1,1372.69,2498.68Zm-130.5-6.07h127.47v-40.4l-139.73-5.89Z"/><path class="cls-11" d="M1284.66,2625.64a11.59,11.59,0,1,1-11.59-11.58A11.58,11.58,0,0,1,1284.66,2625.64Z"/><path class="cls-29" d="M1730.41,1700.07c.65.8,1.27,1.66,1.87,2.47q12.62,17.13,24.38,34.83c2.46,3.67,4.7,7.44,6.86,11.25-8.28,3.84-16.58,7.6-25,11.2a.71.71,0,0,1-.31-.16c-1.22.6-2.48,1.26-3.68,1.94,8,4.48,17.2,7.87,25.45,11.2,14.2,5.76,28.55,11,42.51,17.25,13,5.71,26.34,10.53,39.76,15v0a20.47,20.47,0,0,1,2.3.49c.47-1.4.8-2.8,1.34-4.16h-.07c2.77-8.77,5.67-17.49,8.58-26.15q5.1-15.19,10.32-30.27a45,45,0,0,1,3.21-9.47c2.13-6,4.09-11.91,6.16-17.82,1.56-4.47,3.11-8.84,4.7-13.24a1.73,1.73,0,0,1,.29-.23c.44-1.24,1-2.48,1.39-3.6a1.55,1.55,0,0,1-.15-.28,60.41,60.41,0,0,1-8.73,3.39c-6.75,3.18-14,5.71-21,8.35-6.58-9.15-13-18.31-19.51-27.56s-13.31-18.81-21.24-27.09c-3.23-3.34-8.18-5.92-11.74-9-2.51-2.15-7.38-2.84-8.45-2.9-21.17-1-42.55.63-63.72,1.24-17.43.56-34.71-1.13-52.33.8-4-.47-12-.24-16.43,1.84a23.56,23.56,0,0,0-6.34,4.61,4.84,4.84,0,0,1-.33.46,1.81,1.81,0,0,0-.58.42c-16.31,14.7-28.84,33.21-42.85,50-4.78,5.66-9.55,11.31-14.22,16.95.91.68,1.79,1.42,2.66,2.08,0-.07.16-.18.2-.23,13.55,8.74,26.27,19.55,39.21,29.13,12.06,8.89,23.82,19.6,37,26.91v.13c1.89,1.18,3.72,2.4,5.45,3.66.71-1.19,1.46-2.43,2.18-3.72,5.52-9.65,11.83-18.8,17.64-28.27,5.49-8.94,10.83-17.89,16.32-26.82C1718.7,1716.59,1723.87,1707.38,1730.41,1700.07Zm-52.09-43.46c-3.81-1.2-9.63-4-13.58-2.69-2.57.86-1.47.81-4,.53-.34-.11-.25-.63.1-.7,3.17-.38,5.23-2.41,8.52-1.93,2.59.36,5.07.91,7.59,1.46a46.26,46.26,0,0,1,17.21,8.24,173.86,173.86,0,0,1,34.2,34.18c.55.8-.75,2.31-1.54,1.55-4.87-4.66-8.69-10.32-13.82-14.85-5.51-4.85-10.88-9.91-16.42-14.6C1691.11,1663.29,1685.19,1658.76,1678.32,1656.61Z"/><path class="cls-29" d="M1940.78,1875.38a1.73,1.73,0,0,0-.21-.54,1,1,0,0,0,0-.7c-4-21.59-13.46-41.84-20.49-62.51-2.44-7.05-4.75-14-7.2-21-1,.33-2.1.76-3.12,1.19,0,.1.07.15.07.33-14.46,7-30.29,12.33-45.22,18.4-13.85,5.71-29.1,10.28-42.18,17.77-.07-.06-.09-.06-.09-.06-2,1-4,1.84-6,2.71.74,1.28,1.46,2.53,2.13,3.76,5.38,9.81,10,19.92,15.07,29.84,4.78,9.31,9.68,18.46,14.38,27.78,4.38,8.66,9.57,17.82,12.43,27.14-1,.16-2.06.26-3.11.38-14.1,1.28-28.26,2.15-42.38,2.86-4.41.15-8.79.1-13.19,0,1-9.06,2.07-18.11,3.33-27.16.17,0,.22-.16.31-.21.11-1.39.18-2.73.21-4.13-7.93,4.55-15.58,10.66-22.75,15.92-12.19,9.22-24.18,18.74-36.69,27.52-11.65,8.07-22.72,17.07-33.49,26.18h0c-.54.6-1.06,1.17-1.59,1.71.94,1.08,1.92,2.16,2.83,3.29h0c6.1,6.89,12,13.84,18,20.84,6.82,8.12,13.65,16.32,20.47,24.5a37.62,37.62,0,0,1,6.39,7.7c4.07,4.85,8.13,9.64,12.17,14.42,3,3.67,5.92,7.27,8.89,10.94,0,.11,0,.27,0,.32.81,1.08,1.55,2,2.32,3.08h.35a49.91,49.91,0,0,1,1.56-9.17c.8-7.42,2.36-15,3.8-22.34,11.14-.91,22.35-1.66,33.59-2.43,11.48-.87,23-1.62,34.2-4.21,4.53-1,9.35-3.92,13.79-5.32,3.17-1,6.35-4.84,6.88-5.7,11.75-17.6,21.47-36.73,31.94-55.2,8.64-15.12,18.95-29.07,26.4-45.13,2.58-3.2,6.46-10.17,7-15A21.67,21.67,0,0,0,1940.78,1875.38Zm-5.13,13.63c-8.11,10.88-15.27,20.23-28.37,25.3a92.24,92.24,0,0,1-38.76,5.82c-1.49-.07-.84-2.15.24-2.43,12.46-2.31,25.37-2.74,37.34-7.39,12.35-4.77,19.94-12.48,28.87-21.9C1935.41,1888,1936,1888.41,1935.65,1889Z"/><path class="cls-29" d="M1703.45,1925.35c-.16-2.2-.16-4.42-.16-6.56-1.36.1-2.8.17-4.24.38-11.13,1-22.26,1.18-33.35,1.81-10.44.76-20.83,1.51-31.2,2.17-9.73.53-20.18,1.55-29.9.42.34-1,.62-2,.93-3,4.47-13.4,9.3-26.76,14.35-40,1.58-4.14,3.45-8.08,5.29-12.06q11.83,6.77,23.53,13.93a1.06,1.06,0,0,1,0,.33c1.27.66,2.5,1.31,3.75,1.89-1-9.11-3.54-18.48-5.55-27.25-3.44-14.86-7.45-29.62-10.46-44.69-2.76-13.84-6.52-27.57-10.57-41.15h.07a12.41,12.41,0,0,1-1-2.14c-1.35.43-2.78.92-4.12,1.29v.12c-8.8,2.67-17.53,5.43-26.36,8.07-10.15,3-20.4,5.91-30.62,9a40.14,40.14,0,0,1-9.65,2.78c-6,1.78-12,3.56-18.13,5.29-4.51,1.28-9,2.58-13.47,3.81a1,1,0,0,1-.42-.11c-1.2.32-2.45.6-3.69,1,0,0-.1.22-.14.27a52.41,52.41,0,0,1,7.78,5.1c6.56,3.77,12.79,8.15,18.95,12.39-3.66,10.6-7.45,21.22-11.24,31.77-3.85,10.82-7.74,21.76-9.92,33.08-.86,4.5-.1,10-.54,14.69-.32,3.33,1.87,7.75,2.46,8.61,11.44,17.88,25.09,34.46,37.71,51.37,10.48,14,19.14,29,30.84,42.27,1.92,3.67,6.78,10,11,12.44a20.77,20.77,0,0,0,7.38,2.42h.62a1,1,0,0,0,.64.32c21.43,4.9,43.74,4.36,65.55,6.19,7.31.6,14.68,1.35,22.05,1.82,0-1.05.11-2.19.12-3.32a.54.54,0,0,0-.18,0c-.79-16.06.7-32.74,1.07-48.85.36-15,2.33-30.75.68-45.72C1703.45,1925.4,1703.45,1925.35,1703.45,1925.35Zm-102.68-2.95c-14.37,2.25-32-.12-45.83-4.14-11.17-3.3-26.51-7.07-29.57-20-.07-.21.38-.54.44-.21,5.52,11.56,21.85,15.34,33.5,18,13.87,3,27.58,2.69,41.68,3.76C1602.5,1920,1602,1922.17,1600.77,1922.4Z"/></g></g></svg>