<svg xmlns="http://www.w3.org/2000/svg" viewBox="0 0 3061.42 3061.42"><defs><style>.cls-1{isolation:isolate;}.cls-2{fill:#505250;}.cls-3{fill:#231f20;}.cls-4{fill:#2a2b2a;}.cls-5{fill:#1d1d1b;}.cls-6{fill:#72bf44;}.cls-7{fill:#039447;}.cls-8{fill:#828282;}.cls-20,.cls-9{fill:#191c17;}.cls-15,.cls-17,.cls-21,.cls-27,.cls-9{mix-blend-mode:multiply;}.cls-10{fill:#6f706f;}.cls-11{fill:#050606;}.cls-12{opacity:0;}.cls-13{fill:#fcee21;}.cls-14{fill:#878787;}.cls-15{fill:#1c1e1b;}.cls-15,.cls-22,.cls-24,.cls-25,.cls-27{opacity:0.5;}.cls-16,.cls-17{fill:#757576;}.cls-18{fill:#01ae4d;}.cls-19{fill:#0b0b0b;}.cls-21{fill:#4c4c4d;}.cls-22{fill:#3f443b;}.cls-22,.cls-24,.cls-25{mix-blend-mode:color-dodge;}.cls-23{fill:#434139;}.cls-25{fill:#474748;}.cls-26,.cls-27{fill:#545554;}.cls-28{fill:#fff;}</style></defs><g class="cls-1"><g id="Layer_1" data-name="Layer 1"><path class="cls-2" d="M2086.37,2437.71a98.86,98.86,0,1,1-98.85-98.86A98.85,98.85,0,0,1,2086.37,2437.71Z"/><path class="cls-3" d="M1987.52,2539.58a101.88,101.88,0,1,1,101.87-101.87A102,102,0,0,1,1987.52,2539.58Zm0-197.7a95.83,95.83,0,1,0,95.82,95.83A95.94,95.94,0,0,0,1987.52,2341.88Z"/><path class="cls-4" d="M2048.28,2437.71a60.76,60.76,0,1,1-60.76-60.77A60.75,60.75,0,0,1,2048.28,2437.71Z"/><path class="cls-5" d="M2017.65,2441.56a30.13,30.13,0,1,1-30.13-30.12A30.14,30.14,0,0,1,2017.65,2441.56Z"/><path class="cls-6" d="M1964.35,2294.05l4.63,149.83s-4.63,18.53,18.54,20.07c0,0,15.44,3.1,24.71-17l58.7-143.66Z"/><path class="cls-7" d="M1989.81,2467.15h0a15.43,15.43,0,0,1-2.89-.23c-8.16-.52-14.33-3.32-18-8.3-4.39-6-3.38-13.13-3-15l-4.63-149.47a3,3,0,0,1,3.28-3.11l106.58,9.26a3.06,3.06,0,0,1,2.33,1.44,3,3,0,0,1,.21,2.73L2015,2448.11C2007.1,2465.31,1994.76,2467.15,1989.81,2467.15Zm-22.33-169.79,4.53,146.42a3.3,3.3,0,0,1-.09.83s-1.37,5.95,2,10.49c2.52,3.43,7.17,5.38,13.83,5.83,2.8.39,14.29,1,21.77-15.23L2066.57,2306Z"/><path class="cls-8" d="M1964.37,2294.17,1969,2444s-4.63,18.53,18.54,20.08c0,0,15.44,3.1,24.71-17l58.69-143.66Z"/><path class="cls-8" d="M1989.83,2467.28h0a15.43,15.43,0,0,1-2.89-.23c-8.16-.52-14.34-3.33-18-8.3-4.39-6-3.39-13.13-3-15l-4.62-149.46a3,3,0,0,1,3.28-3.11l106.58,9.26a3.09,3.09,0,0,1,2.33,1.43,3,3,0,0,1,.21,2.73l-58.68,143.66C2007.12,2465.43,1994.77,2467.28,1989.83,2467.28Zm-22.33-169.79,4.52,146.42a3.29,3.29,0,0,1-.08.83s-1.37,6,2,10.48c2.52,3.44,7.17,5.39,13.83,5.83,2.79.4,14.28,1,21.76-15.23l57.09-139.72Z"/><polygon class="cls-9" points="2050.16 2354.15 2070.93 2303.31 1964.35 2294.05 1966.2 2354.15 2050.16 2354.15"/><polygon class="cls-10" points="1939.63 2256.97 1953.54 2309.49 2086.37 2309.49 2086.37 2263.15 1939.63 2256.97"/><path class="cls-10" d="M2086.37,2312.52H1953.54a3,3,0,0,1-2.93-2.25l-13.91-52.52a3.08,3.08,0,0,1,.57-2.68,2.85,2.85,0,0,1,2.49-1.12l146.74,6.18a3,3,0,0,1,2.89,3v46.34A3,3,0,0,1,2086.37,2312.52Zm-130.5-6.06h127.47v-40.4l-139.73-5.89Z"/><path class="cls-11" d="M1998.34,2439.49a11.59,11.59,0,1,1-11.59-11.58A11.58,11.58,0,0,1,1998.34,2439.49Z"/><path d="M1843.85,1065.33l339.33,42.25-71.71-164.21s-19.24-33.24-64.72-33.24H1046.23c-45.47,0-64.72,33.24-64.72,33.24l-71.72,167.7,339.35-45.74v2.23l297.35-1.11,297.36,1.11Z"/><path d="M909.79,1114.1a3,3,0,0,1-2.4-1.19,3.06,3.06,0,0,1-.38-3l71.71-167.69c1-1.75,20.84-35.08,67.51-35.08H2046.75c46.68,0,66.51,33.33,67.34,34.75l71.56,163.81a3,3,0,0,1-2.36,4.93h-.11l-.37,0-336.16-41.84a3.18,3.18,0,0,1-.67,1,3,3,0,0,1-2.13.88h0l-297.35-1.11-297.33,1.11h0a3,3,0,0,1-2.14-.88,2.93,2.93,0,0,1-.65-1L910.2,1114.07A1.84,1.84,0,0,1,909.79,1114.1Zm136.44-200.94c-43.22,0-61.91,31.42-62.09,31.73l-69.46,162.47,334.06-45a3,3,0,0,1,2.39.72,3.11,3.11,0,0,1,.93,1.47l294.43-1.09,294.44,1.09a3.12,3.12,0,0,1,.91-1.46,3,3,0,0,1,2.38-.73l334,41.59-69.58-159.34s-18.86-31.42-61.94-31.42Z"/><g class="cls-12"><path class="cls-13" d="M1839.27,1109.19l339.33-1.27-71.71-120.69S2087.65,954,2042.18,954H1041.66c-45.47,0-64.72,33.23-64.72,33.23l-71.72,120.69,339.35,1.27v2.23l297.35-1.11,297.35,1.11Z"/><path class="cls-13" d="M1839.27,1114.45h0l-297.36-1.11-297.33,1.11h0a3,3,0,0,1-2.13-.88,3.11,3.11,0,0,1-.81-1.37l-336.42-1.26a3,3,0,0,1-2.59-4.57l71.71-120.69c.81-1.39,20.65-34.71,67.33-34.71H2042.18c46.67,0,66.51,33.33,67.33,34.74l71.69,120.66a3,3,0,0,1-2.58,4.57l-336.42,1.26a3,3,0,0,1-.79,1.37A3,3,0,0,1,1839.27,1114.45Zm-297.36-7.17,294.44,1.1a3,3,0,0,1,2.92-2.22l334-1.25-69-116.13c-.2-.34-19-31.75-62.11-31.75H1041.66c-43.23,0-61.91,31.4-62.1,31.72l-69,116.16,334,1.25a3,3,0,0,1,2.91,2.22Z"/></g><path class="cls-14" d="M2036.72,1081.19l-42.09-70.83s-15.41-26.63-51.87-26.63H1141.07c-36.45,0-51.86,26.63-51.86,26.63l-42.09,70.83Z"/><path class="cls-14" d="M2036.72,1084.22h-989.6a3,3,0,0,1-2.6-4.58l42.09-70.83c.64-1.12,16.7-28.11,54.46-28.11h801.69c37.77,0,53.82,27,54.48,28.15l42.08,70.79a3,3,0,0,1-2.6,4.58Zm-984.28-6.06h979L1992,1011.91c-.61-1.06-15.09-25.15-49.26-25.15H1141.07c-34.16,0-48.64,24.09-49.24,25.12Z"/><polygon class="cls-15" points="1065.11 1050.9 1047.12 1081.19 2036.72 1081.19 2018.72 1050.9 1065.11 1050.9"/><rect class="cls-16" x="718.14" y="1319.42" width="142.1" height="71.06"/><path class="cls-16" d="M860.25,1393.51H718.14a3,3,0,0,1-3-3v-71.06a3,3,0,0,1,3-3H860.25a3,3,0,0,1,3,3v71.06A3,3,0,0,1,860.25,1393.51Zm-139.08-6.06H857.22v-65H721.17Z"/><polygon class="cls-17" points="860.25 1390.48 786.11 1390.48 775.8 1319.42 860.25 1319.42 860.25 1390.48"/><rect class="cls-16" x="2225.65" y="1319.42" width="142.1" height="71.06"/><path class="cls-16" d="M2367.75,1393.51h-142.1a3,3,0,0,1-3-3v-71.06a3,3,0,0,1,3-3h142.1a3,3,0,0,1,3,3v71.06A3,3,0,0,1,2367.75,1393.51Zm-139.07-6.06h136v-65h-136Z"/><polygon class="cls-17" points="2225.65 1390.48 2299.78 1390.48 2310.08 1319.42 2225.65 1319.42 2225.65 1390.48"/><path class="cls-6" d="M1543,1169.82V1168l-45.74,1-52.09-1,0,2L792.28,1183.5s95.76,966.9,98.86,976.16,0,95.78,108.12,111.22H2093.85c108.12-15.44,105-102,108.12-111.22s98.85-976.16,98.85-976.16Z"/><path class="cls-18" d="M2093.85,2273.91H999.26c-98.08-14-107.13-84.45-110.1-107.6a49.51,49.51,0,0,0-.9-5.69c-3.11-9.31-89.18-877.82-99-976.82a3,3,0,0,1,.74-2.31,3.06,3.06,0,0,1,2.2-1l650-13.37a3.06,3.06,0,0,1,.74-1.2,3,3,0,0,1,2.19-.88l52.1.94,45.61-.94a2.8,2.8,0,0,1,2.18.86,3.2,3.2,0,0,1,.67,1l755.13,13.63a3.09,3.09,0,0,1,2.22,1,3,3,0,0,1,.74,2.31c-9.81,99-95.88,967.51-99,976.82a49.41,49.41,0,0,0-.9,5.7c-3,23.16-12,93.61-109.66,107.56ZM795.61,1186.47c33,332.94,95.54,960.16,98.44,972.38a42,42,0,0,1,1.11,6.69c2.83,22,11.43,89.05,104.52,102.34l1094,0c92.88-13.37,101.47-80.31,104.3-102.31a44.24,44.24,0,0,1,1.15-6.84c2.85-12.06,65.41-639.28,98.4-972.24l-754.59-13.62a3.07,3.07,0,0,1-2.68-1.72l-42.93.89-49.31-.89a3,3,0,0,1-2.76,2Z"/><path class="cls-19" d="M1543,1169.86v-1.78l-45.73,1-52.1-1,0,2-652.87,13.44s95.76,966.89,98.86,976.16,0,95.77,108.12,111.21h1094.6c108.11-15.44,105-101.94,108.11-111.21s98.85-976.16,98.85-976.16Z"/><path class="cls-19" d="M2093.85,2273.91H999.26c-98.08-14-107.13-84.45-110.1-107.6a49.51,49.51,0,0,0-.9-5.69c-3.11-9.31-89.18-877.82-99-976.82a3,3,0,0,1,.74-2.31,3.06,3.06,0,0,1,2.2-1l650-13.37a3.06,3.06,0,0,1,.74-1.2,3,3,0,0,1,2.19-.88l52.1.94,45.61-.94a2.8,2.8,0,0,1,2.18.86,3.2,3.2,0,0,1,.67,1l755.13,13.63a3.09,3.09,0,0,1,2.22,1,3,3,0,0,1,.74,2.31c-9.81,99-95.88,967.51-99,976.82a49.41,49.41,0,0,0-.9,5.7c-3,23.16-12,93.61-109.66,107.56ZM795.61,1186.47c33,332.94,95.54,960.16,98.44,972.38a42,42,0,0,1,1.11,6.69c2.83,22,11.43,89.05,104.52,102.34l1094,0c92.88-13.37,101.47-80.31,104.3-102.31a44.24,44.24,0,0,1,1.15-6.84c2.85-12.06,65.41-639.28,98.4-972.24l-754.59-13.62a3.07,3.07,0,0,1-2.68-1.72l-42.93.89-49.31-.89a3,3,0,0,1-2.76,2Z"/><path class="cls-20" d="M1543,1169.82V1168l-45.74,1-52.09-1,0,2L792.28,1183.5s1.68,16.94,4.59,46.34H1976.56s74.68-.94,74.68,61.61l-52.9,869.94s2.43,93.84-284.18,109.49h379.69c108.12-15.44,105-102,108.12-111.22s98.85-976.16,98.85-976.16Z"/><path class="cls-21" d="M795.39,1214.84H2297.71c2-20.07,3.11-31.34,3.11-31.34L1543,1169.82V1168l-45.74,1-52.09-1,0,2L792.28,1183.5S793.4,1194.77,795.39,1214.84Z"/><path class="cls-22" d="M810.82,1232.93l92.67,874.22s-3.08,139,135.92,148.29h590l-447.67-39.57s-175.39-23.59-197-168.78-78-817.25-78-817.25Z"/><polygon points="922.4 1185.04 939.4 1282.35 954.85 1282.35 964.89 1183.5 922.4 1185.04"/><path d="M954.84,1285.38H939.4a3,3,0,0,1-3-2.51l-17-97.31a3,3,0,0,1,.62-2.43,3.09,3.09,0,0,1,2.24-1.12l42.5-1.54a2.83,2.83,0,0,1,2.31,1,3,3,0,0,1,.8,2.38l-10,98.84A3,3,0,0,1,954.84,1285.38Zm-12.9-6.06h10.17l9.42-92.67L926,1187.94Z"/><polygon points="1222.06 1185.04 1239.05 1282.35 1254.5 1282.35 1264.53 1183.5 1222.06 1185.04"/><path d="M1254.5,1285.38h-15.45a3,3,0,0,1-3-2.51l-17-97.31a3,3,0,0,1,.63-2.43,3.11,3.11,0,0,1,2.24-1.12l42.48-1.54a2.9,2.9,0,0,1,2.32,1,3,3,0,0,1,.8,2.38l-10,98.84A3,3,0,0,1,1254.5,1285.38Zm-12.91-6.06h10.18l9.39-92.67-35.53,1.29Z"/><polygon points="1521.71 1185.04 1538.69 1282.35 1554.15 1282.35 1564.18 1183.5 1521.71 1185.04"/><path d="M1554.15,1285.38h-15.46a3,3,0,0,1-3-2.51l-17-97.31a3,3,0,0,1,.63-2.43,3.11,3.11,0,0,1,2.24-1.12l42.47-1.54a3,3,0,0,1,2.33,1,3,3,0,0,1,.79,2.38l-10,98.84A3,3,0,0,1,1554.15,1285.38Zm-12.92-6.06h10.18l9.41-92.67-35.53,1.29Z"/><polygon points="1821.37 1185.04 1838.34 1282.35 1853.8 1282.35 1863.84 1183.5 1821.37 1185.04"/><path d="M1853.8,1285.38h-15.46a3,3,0,0,1-3-2.51l-17-97.31a3,3,0,0,1,.63-2.43,3.07,3.07,0,0,1,2.24-1.12l42.46-1.54a2.86,2.86,0,0,1,2.33,1,3,3,0,0,1,.79,2.38l-10,98.84A3,3,0,0,1,1853.8,1285.38Zm-12.91-6.06h10.17l9.41-92.67-35.52,1.29Z"/><polygon points="2121.01 1185.04 2137.99 1282.35 2153.44 1282.35 2163.47 1183.5 2121.01 1185.04"/><path d="M2153.44,1285.38H2138a3,3,0,0,1-3-2.51l-17-97.31a3,3,0,0,1,.63-2.43,3.09,3.09,0,0,1,2.24-1.12l42.47-1.54a2.89,2.89,0,0,1,2.32,1,3,3,0,0,1,.8,2.38l-10,98.84A3,3,0,0,1,2153.44,1285.38Zm-12.9-6.06h10.16l9.4-92.67-35.52,1.29Z"/><rect class="cls-23" x="770.91" y="1143.57" width="1542.51" height="39.4"/><path class="cls-23" d="M2313.42,1186H770.91a3,3,0,0,1-3-3v-39.4a3,3,0,0,1,3-3H2313.42a3,3,0,0,1,3,3V1183A3,3,0,0,1,2313.42,1186Zm-1539.48-6H2310.4V1146.6H773.94Z"/><rect x="757.76" y="1168.04" width="1568.8" height="27.82"/><path d="M2326.56,1198.89H757.76a3,3,0,0,1-3-3V1168a3,3,0,0,1,3-3h1568.8a3,3,0,0,1,3,3v27.82A3,3,0,0,1,2326.56,1198.89Zm-1565.77-6.05H2323.53v-21.77H760.79Z"/><rect x="757.76" y="1104.96" width="1568.8" height="47.37"/><path d="M2326.56,1155.36H757.76a3,3,0,0,1-3-3V1105a3,3,0,0,1,3-3h1568.8a3,3,0,0,1,3,3v47.37A3,3,0,0,1,2326.56,1155.36ZM760.79,1149.3H2323.53V1108H760.79Z"/><rect class="cls-24" x="757.76" y="1104.96" width="1568.8" height="12.08"/><path class="cls-25" d="M935.79,1083.42l56-94.44s22.73-31.48,78.7-29.73H1618l-503.75,10.49s-15.73-5.25-33.24,14-56,98-56,98Z"/><path class="cls-26" d="M2040.17,930.12h38.51A139.85,139.85,0,0,0,2040.17,930.12Z"/><path class="cls-27" d="M2107.94,991.28s-19.24-33.23-64.72-33.23H1998c14.37,2.09,29.6,8.07,39.8,21.05,93.77,119.58,42.34,115.71,42.34,115.71H916.46L906.26,1112l339.35,1.27v2.23l297.35-1.11,297.36,1.11v-2.23l339.33-1.27Z"/><path class="cls-2" d="M1203.51,2452.39a98.86,98.86,0,1,1-98.85-98.86A98.85,98.85,0,0,1,1203.51,2452.39Z"/><path class="cls-3" d="M1104.66,2554.26a101.88,101.88,0,1,1,101.87-101.87A102,102,0,0,1,1104.66,2554.26Zm0-197.71a95.83,95.83,0,1,0,95.82,95.84A95.95,95.95,0,0,0,1104.66,2356.55Z"/><path class="cls-4" d="M1165.42,2452.39a60.76,60.76,0,1,1-60.76-60.77A60.75,60.75,0,0,1,1165.42,2452.39Z"/><path class="cls-5" d="M1134.79,2456.24a30.13,30.13,0,1,1-30.13-30.12A30.13,30.13,0,0,1,1134.79,2456.24Z"/><path class="cls-6" d="M1081.49,2308.73l4.63,149.83s-4.63,18.53,18.54,20.07c0,0,15.44,3.1,24.71-17L1188.06,2318Z"/><path class="cls-7" d="M1107,2481.83h0a15.43,15.43,0,0,1-2.89-.23c-8.16-.52-14.33-3.32-18-8.3-4.39-6-3.38-13.13-3-15l-4.63-149.47a3,3,0,0,1,1-2.29,3,3,0,0,1,2.33-.82l106.58,9.26a3.06,3.06,0,0,1,2.33,1.44,3,3,0,0,1,.21,2.73l-58.68,143.65C1124.24,2480,1111.9,2481.83,1107,2481.83ZM1084.62,2312l4.53,146.42a3.84,3.84,0,0,1-.09.83c0,.05-1.37,5.95,2,10.49,2.52,3.43,7.17,5.38,13.83,5.83,2.79.39,14.29,1,21.77-15.23l57.08-139.73Z"/><path class="cls-8" d="M1081.51,2308.85l4.63,149.83s-4.63,18.53,18.54,20.08c0,0,15.44,3.1,24.71-17l58.69-143.67Z"/><path class="cls-8" d="M1107,2482h0a15.43,15.43,0,0,1-2.89-.23c-8.16-.52-14.34-3.33-18-8.3-4.39-6-3.39-13.13-3-15L1078.48,2309a3,3,0,0,1,3.28-3.11l106.58,9.26a3.07,3.07,0,0,1,2.33,1.43,3,3,0,0,1,.21,2.73l-58.68,143.66C1124.26,2480.11,1111.91,2482,1107,2482Zm-22.33-169.79,4.52,146.42a3.29,3.29,0,0,1-.08.83s-1.37,5.95,2,10.48c2.52,3.44,7.17,5.39,13.83,5.83,2.79.4,14.28,1,21.76-15.23l57.09-139.72Z"/><polygon class="cls-9" points="1167.3 2368.83 1188.06 2317.99 1081.49 2308.73 1083.34 2368.83 1167.3 2368.83"/><polygon class="cls-10" points="1056.77 2271.65 1070.68 2324.17 1203.51 2324.17 1203.51 2277.83 1056.77 2271.65"/><path class="cls-10" d="M1203.51,2327.2H1070.68a3,3,0,0,1-2.93-2.25l-13.91-52.52a3,3,0,0,1,.57-2.68,2.85,2.85,0,0,1,2.49-1.12l146.73,6.18a3,3,0,0,1,2.9,3v46.34A3,3,0,0,1,1203.51,2327.2Zm-130.5-6.06h127.47v-40.4l-139.73-5.89Z"/><path class="cls-11" d="M1115.48,2454.17a11.59,11.59,0,1,1-11.59-11.58A11.58,11.58,0,0,1,1115.48,2454.17Z"/><path class="cls-28" d="M1561.23,1528.6c.65.8,1.27,1.66,1.87,2.46q12.62,17.14,24.38,34.84c2.46,3.67,4.69,7.44,6.86,11.25-8.28,3.84-16.58,7.6-25,11.2a.8.8,0,0,1-.32-.16c-1.22.6-2.47,1.26-3.67,1.94,8,4.48,17.19,7.87,25.44,11.2,14.21,5.76,28.56,11,42.52,17.25,13,5.7,26.34,10.53,39.75,15v.05a19,19,0,0,1,2.31.49c.47-1.4.8-2.8,1.34-4.16h-.08c2.78-8.77,5.68-17.49,8.59-26.15q5.1-15.19,10.31-30.27a45.58,45.58,0,0,1,3.22-9.47c2.13-6,4.09-11.91,6.16-17.83,1.56-4.46,3.11-8.83,4.7-13.23a1.77,1.77,0,0,1,.28-.23c.45-1.24,1-2.48,1.39-3.6a2.43,2.43,0,0,1-.14-.28,60.41,60.41,0,0,1-8.73,3.39c-6.75,3.18-14,5.7-21,8.35-6.57-9.15-13-18.31-19.51-27.57s-13.3-18.8-21.23-27.08c-3.23-3.34-8.18-5.92-11.74-9-2.51-2.15-7.38-2.84-8.45-2.9-21.17-1-42.55.63-63.72,1.24-17.43.56-34.71-1.13-52.33.8-4-.47-12-.24-16.44,1.84a23.51,23.51,0,0,0-6.33,4.61c-.11.12-.21.34-.33.46a1.71,1.71,0,0,0-.58.42c-16.32,14.69-28.85,33.21-42.86,50-4.77,5.67-9.54,11.32-14.22,17,.91.67,1.79,1.42,2.66,2.07l.21-.22c13.55,8.73,26.27,19.55,39.21,29.13,12.06,8.88,23.81,19.6,37,26.91v.13c1.88,1.17,3.72,2.4,5.45,3.66.7-1.19,1.45-2.44,2.18-3.72,5.51-9.65,11.83-18.8,17.63-28.27,5.5-8.94,10.84-17.89,16.33-26.82C1549.52,1545.12,1554.69,1535.91,1561.23,1528.6Zm-52.1-43.46c-3.8-1.2-9.62-4-13.58-2.69-2.56.86-1.46.81-4,.53-.34-.11-.24-.63.11-.7,3.16-.38,5.22-2.41,8.52-1.93,2.59.36,5.07.91,7.59,1.46A46.24,46.24,0,0,1,1525,1490a174.18,174.18,0,0,1,34.2,34.19c.54.8-.75,2.31-1.55,1.55-4.86-4.66-8.69-10.32-13.81-14.85-5.51-4.85-10.88-9.91-16.43-14.6C1521.93,1491.82,1516,1487.29,1509.13,1485.14Z"/><path class="cls-28" d="M1771.6,1703.91a1.73,1.73,0,0,0-.21-.54,1.12,1.12,0,0,0,0-.7c-4-21.59-13.46-41.84-20.49-62.51-2.44-7.06-4.75-14-7.21-21-1,.33-2.1.75-3.11,1.19,0,.1.07.15.07.33-14.47,7-30.29,12.32-45.22,18.4-13.85,5.71-29.1,10.28-42.18,17.77l-.09-.06c-2,1-4,1.84-6.05,2.71.73,1.28,1.46,2.53,2.13,3.76,5.38,9.81,10,19.92,15.06,29.84,4.79,9.31,9.69,18.46,14.39,27.78,4.38,8.66,9.57,17.82,12.43,27.14-1,.16-2.07.26-3.11.37-14.1,1.29-28.26,2.16-42.39,2.87-4.41.15-8.78.1-13.18,0,1-9.06,2.07-18.11,3.32-27.16.17,0,.23-.16.31-.21.12-1.39.19-2.73.21-4.13-7.92,4.55-15.58,10.65-22.74,15.92-12.19,9.22-24.18,18.73-36.7,27.52-11.64,8.07-22.71,17.07-33.48,26.17h0c-.54.61-1.06,1.18-1.6,1.72,1,1.08,1.92,2.16,2.83,3.29h0c6.11,6.89,12,13.84,18,20.84q10.24,12.18,20.47,24.5a37.35,37.35,0,0,1,6.4,7.7q6.1,7.26,12.17,14.42c3,3.67,5.91,7.27,8.88,10.93,0,.12,0,.28,0,.33.82,1.08,1.56,2,2.33,3.07h.35a49.94,49.94,0,0,1,1.56-9.16c.8-7.42,2.35-15,3.79-22.34,11.15-.91,22.36-1.67,33.6-2.43,11.47-.87,23-1.62,34.2-4.21,4.53-1,9.35-3.93,13.79-5.32,3.16-1,6.35-4.85,6.87-5.7,11.76-17.61,21.48-36.73,31.94-55.2,8.64-15.13,19-29.07,26.41-45.13,2.57-3.21,6.46-10.17,7-15A21.67,21.67,0,0,0,1771.6,1703.91Zm-5.13,13.63c-8.11,10.87-15.27,20.23-28.37,25.3a92.24,92.24,0,0,1-38.76,5.82c-1.49-.07-.85-2.15.23-2.43,12.47-2.31,25.38-2.74,37.35-7.39,12.35-4.77,19.94-12.48,28.87-21.91C1766.23,1716.51,1766.86,1716.93,1766.47,1717.54Z"/><path class="cls-28" d="M1534.26,1753.88c-.15-2.21-.15-4.42-.15-6.56-1.37.1-2.81.16-4.25.38-11.13,1-22.26,1.18-33.35,1.81-10.43.76-20.82,1.51-31.2,2.16-9.72.54-20.17,1.56-29.9.43.35-1,.62-2,.94-3,4.47-13.4,9.3-26.76,14.35-39.95,1.58-4.14,3.44-8.08,5.28-12.06q11.83,6.76,23.54,13.93a1.41,1.41,0,0,1,0,.33c1.27.66,2.5,1.31,3.74,1.89-1-9.11-3.53-18.48-5.55-27.25-3.43-14.86-7.44-29.62-10.45-44.69-2.76-13.84-6.52-27.57-10.57-41.15h.07a12.77,12.77,0,0,1-1-2.14c-1.36.43-2.78.92-4.12,1.29v.12c-8.81,2.67-17.54,5.43-26.36,8.07-10.16,3-20.4,5.91-30.62,9a40.68,40.68,0,0,1-9.66,2.78c-6,1.78-12,3.56-18.12,5.29-4.52,1.28-9,2.57-13.47,3.81a1,1,0,0,1-.42-.11c-1.2.32-2.45.6-3.69,1,0,0-.1.23-.14.28a52.41,52.41,0,0,1,7.78,5.1c6.55,3.77,12.79,8.15,18.94,12.39-3.65,10.6-7.44,21.22-11.23,31.76-3.85,10.83-7.75,21.77-9.92,33.08-.86,4.51-.1,10.06-.54,14.7-.32,3.33,1.87,7.75,2.45,8.61,11.44,17.88,25.09,34.46,37.72,51.36,10.48,14,19.14,29,30.84,42.28,1.92,3.67,6.78,10,11,12.44a20.9,20.9,0,0,0,7.38,2.42h.63a1.08,1.08,0,0,0,.63.32c21.43,4.9,43.74,4.36,65.55,6.19,7.32.6,14.69,1.35,22,1.82,0-1.05.12-2.19.12-3.32a.39.39,0,0,0-.17,0c-.79-16.06.7-32.73,1.07-48.84.36-15,2.33-30.76.67-45.72C1534.26,1753.93,1534.26,1753.88,1534.26,1753.88Zm-102.67-3c-14.37,2.25-32-.12-45.84-4.15-11.16-3.29-26.5-7.06-29.56-20-.07-.22.37-.54.44-.22,5.51,11.56,21.85,15.35,33.5,18,13.86,3,27.58,2.69,41.67,3.76C1433.32,1748.5,1432.79,1750.7,1431.59,1750.93Z"/><rect x="2012.52" y="923.04" width="69.45" height="15.83"/></g></g></svg>